{
.appVersion = "3058";
.formatVersion = 3;
DisplayStrings = (
Q,
r,
s,
S,
"/newGlyph",
Y,
Z,
M,
L,
F,
B,
K
);
axes = (
{
name = Weight;
tag = wght;
}
);
customParameters = (
{
name = fsType;
value = (
);
},
{
name = "Use Typo Metrics";
value = 1;
},
{
name = "Write lastChange";
value = 0;
},
{
name = "Use Line Breaks";
value = 1;
}
);
date = "2019-09-05 03:17:21 +0000";
familyName = "Quarry Digger";
featurePrefixes = (
{
automatic = 1;
code = "languagesystem DFLT dflt;

languagesystem latn dflt;
";
name = Languagesystems;
}
);
features = (
{
automatic = 1;
code = "feature ordn;
";
tag = aalt;
},
{
automatic = 1;
code = "lookup ccmp_Other_1 {
	@CombiningTopAccents = [acutecomb brevecomb caroncomb circumflexcomb commaturnedabovecomb dieresiscomb dotaccentcomb gravecomb hookabovecomb hungarumlautcomb macroncomb ringcomb tildecomb];
	@CombiningNonTopAccents = [cedillacomb dotbelowcomb ogonekcomb horncomb];
	sub [i j]' @CombiningTopAccents by [idotless jdotless];
	sub [i j]' @CombiningNonTopAccents @CombiningTopAccents by [idotless jdotless];
} ccmp_Other_1;

lookup ccmp_latn_1 {
	sub fi by f i;
	sub fl by f l;
} ccmp_latn_1;

script latn;
lookup ccmp_latn_1;
";
tag = ccmp;
},
{
automatic = 1;
code = "sub [zero one two three four five six seven eight nine] [A a]' by ordfeminine;
sub [zero one two three four five six seven eight nine] [O o]' by ordmasculine;
";
tag = ordn;
},
{
automatic = 1;
code = "lookupflag IgnoreMarks;
sub f i by fi;
sub f l by fl;
";
tag = liga;
}
);
fontMaster = (
{
axesValues = (
400
);
customParameters = (
{
name = typoAscender;
value = 970;
},
{
name = typoDescender;
value = -260;
},
{
name = typoLineGap;
value = 369;
},
{
name = winAscent;
value = 1057;
},
{
name = winDescent;
value = 259;
},
{
name = hheaAscender;
value = 970;
},
{
name = hheaDescender;
value = -260;
}
);
guides = (
{
pos = (439,400);
},
{
pos = (-87,293);
}
);
id = "F01B58DE-C728-4329-B3AC-16E1FFD45204";
metricValues = (
{
pos = 970;
},
{
pos = 800;
},
{
pos = 582;
},
{
},

glyphs = (
{
color = 4;
glyphname = A;
kernLeft = A;
kernRight = A;
layers = (
{
anchors = (
{
name = bottom;
pos = (411,0);
},
{
name = ogonek;
pos = (743,10);
},
{
name = top;
pos = (411,800);
}
);
layerId = "63F83B90-CAEF-434E-8639-9EC66952CC6B";
shapes = (
{
closed = 1;
nodes = (
(202,0,l),
(276,207,l),
(547,207,l),
(620,0,l),
(787,0,l),
(504,800,l),
(318,800,l),
(35,0,l)
);
},
{
closed = 1;
nodes = (
(411,588,l),
(497,347,l),
(326,347,l)
);
}
);
width = 822;
},
{
anchors = (
{
name = bottom;
pos = (380,0);
},
{
name = ogonek;
pos = (684,10);
},
{
name = top;
pos = (380,800);
}
);
layerId = "F01B58DE-C728-4329-B3AC-16E1FFD45204";
shapes = (
{
closed = 1;
nodes = (
(142,0,l),
(219,221,l),
(542,221,l),
(618,0,l),
(725,0,l),
(454,800,l),
(306,800,l),
(35,0,l)
);
},
{
closed = 1;
nodes = (
(380,702,l),
(513,306,l),
(249,306,l)
);
}
);
width = 760;
}
);
unicode = 65;
},
{
color = 4;
glyphname = AE;
layers = (
{
layerId = "63F83B90-CAEF-434E-8639-9EC66952CC6B";
shapes = (
{
closed = 1;
nodes = (
(207,0,l),
(281,207,l),
(543,207,l),
(543,0,l),
(1059,0,l),
(1059,158,l),
(701,158,l),
(701,321,l),
(948,321,l),
(948,479,l),
(701,479,l),
(701,642,l),
(1059,642,l),
(1059,800,l),
(323,800,l),
(40,0,l)
);
},
{
closed = 1;
nodes = (
(442,660,l),
(543,660,l),
(543,347,l),
(331,347,l)
);
}
);
width = 1099;
},
{
layerId = "F01B58DE-C728-4329-B3AC-16E1FFD45204";
shapes = (
{
closed = 1;
nodes = (
(147,0,l),
(224,221,l),
(547,221,l),
(547,0,l),
(1018,0,l),
(1018,104,l),
(648,104,l),
(648,342,l),
(904,342,l),
(904,447,l),
(648,447,l),
(648,684,l),
(1018,684,l),
(1018,789,l),
(311,789,l),
(40,0,l)
);
},
{
closed = 1;
nodes = (
(390,704,l),
(547,704,l),
(547,306,l),
(254,306,l)
);
}
);
userData = {
assembly = "PUSHW[ ]	/* 1 value pushed */
0 
CALL[ ]	/* CallFunction */
SVTCA[0]	/* SetFreedomAndProjectionVectorToAxis */
PUSHW[ ]	/* 1 value pushed */
0 
RCVT[ ]	/* ReadCVT */
IF[ ]	/* If */
PUSHW[ ]	/* 1 value pushed */
0 
MDAP[1]	/* MoveDirectAbsPt */
ELSE[ ]	/* Else */
PUSHW[ ]	/* 2 values pushed */
0 3 
MIAP[0]	/* MoveIndirectAbsPt */
EIF[ ]	/* EndIf */
PUSHW[ ]	/* 1 value pushed */
0 
RCVT[ ]	/* ReadCVT */
IF[ ]	/* If */
PUSHW[ ]	/* 1 value pushed */
11 
MDAP[1]	/* MoveDirectAbsPt */
ELSE[ ]	/* Else */
PUSHW[ ]	/* 2 values pushed */
11 3 
MIAP[0]	/* MoveIndirectAbsPt */
EIF[ ]	/* EndIf */
IUP[0]	/* InterpolateUntPts */
IUP[1]	/* InterpolateUntPts */";
};
width = 1058;
}
);
unicode = 198;
},
{
color = 4;
glyphname = B;
layers = (
{
layerId = "63F83B90-CAEF-434E-8639-9EC66952CC6B";
shapes = (
{
closed = 1;
nodes = (
(458,0,ls),
(595,0,o),
(705,107,o),
(705,246,cs),
(705,312,o),
(680,371,o),
(640,415,c),
(675,457,o),
(696,511,o),
(696,570,cs),
(696,697,o),
(596,801,o),
(472,801,c),
(50,801,l),
(50,0,l)
);
},
{
closed = 1;
nodes = (
(208,335,l),
(458,335,ls),
(510,335,o),
(547,298,o),
(547,246,cs),
(547,194,o),
(509,158,o),
(458,158,cs),
(208,158,l)
);
},
{
closed = 1;
nodes = (
(208,643,l),
(472,643,ls),
(508,643,o),
(538,610,o),
(538,570,cs),
(538,529,o),
(507,493,o),
(472,493,cs),
(208,493,l)
);
}
);
width = 745;
},
{
layerId = "F01B58DE-C728-4329-B3AC-16E1FFD45204";
shapes = (
{
closed = 1;
nodes = (
(440,0,ls),
(566,0,o),
(665,103,o),
(665,232,cs),
(665,308,o),
(645,349,o),
(587,414,c),
(635,472,o),
(655,512,o),
(655,584,cs),
(655,703,o),
(567,801,o),
(455,801,cs),
(50,801,l),
(50,0,l)
);
},
{
closed = 1;
nodes = (
(151,362,l),
(440,362,ls),
(512,362,o),
(563,307,o),
(563,232,cs),
(563,159,o),
(509,104,o),
(440,104,cs),
(151,104,l)
);
},
{
closed = 1;
nodes = (
(151,696,l),
(455,696,ls),
(515,696,o),
(554,642,o),
(554,584,cs),
(554,528,o),
(516,467,o),
(455,467,c),
(151,467,l)
);
}
);
width = 705;
}
);
unicode = 66;
},
{
color = 4;
glyphname = C;
layers = (
{
anchors = (
{
name = bottom;
pos = (334,0);
},
{
name = top;
pos = (334,800);
}
);
layerId = "63F83B90-CAEF-434E-8639-9EC66952CC6B";
shapes = (
{
closed = 1;
nodes = (
(387,-13,ls),
(484,-13,o),
(571,33,o),
(627,103,c),
(499,197,l),
(472,165,o),
(432,145,o),
(387,145,cs),
(345,145,ls),
(264,145,o),
(198,210,o),
(198,291,cs),
(198,505,ls),
(198,586,o),
(264,652,o),
(345,652,cs),
(387,652,ls),
(432,652,o),
(472,632,o),
(499,600,c),
(627,693,l),
(571,764,o),
(484,810,o),
(387,810,cs),
(345,810,ls),
(177,810,o),
(40,673,o),
(40,505,cs),
(40,291,ls),
(40,123,o),
(177,-13,o),
(345,-13,cs)
);
}
);
width = 667;
},
{
anchors = (
{
name = bottom;
pos = (305,0);
},
{
name = top;
pos = (305,800);
}
);
layerId = "F01B58DE-C728-4329-B3AC-16E1FFD45204";
shapes = (
{
closed = 1;
nodes = (
(367,-14,ls),
(443,-14,o),
(515.333,17.333,o),
(570,72,c),
(486,136,l),
(452,106,o),
(412.333,91,o),
(367,91,cs),
(324,91,ls),
(223.891,91,o),
(141,174.67,o),
(141,278,cs),
(141,506,ls),
(141,609.031,o),
(223.425,695,o),
(324,695,cs),
(372,695,ls),
(418,695,o),
(450,685,o),
(486,650,c),
(570,712,l),
(515.333,768,o),
(444.333,799,o),
(367,799,cs),
(324,799,ls),
(167.992,799,o),
(40,666.457,o),
(40,506,cs),
(40,278,ls),
(40,117.897,o),
(167.527,-14,o),
(324,-14,cs)
);
}
);
width = 610;
}
);
unicode = 67;
},
{
color = 4;
glyphname = D;
layers = (
{
anchors = (
{
name = bottom;
pos = (360,0);
},
{
name = center;
pos = (362,400);
},
{
name = top;
pos = (354,800);
}
);
layerId = "63F83B90-CAEF-434E-8639-9EC66952CC6B";
shapes = (
{
closed = 1;
nodes = (
(378,0,ls),
(547,0,o),
(684,137,o),
(684,305,cs),
(684,495,ls),
(684,663,o),
(547,800,o),
(378,800,cs),
(50,800,l),
(50,0,l)
);
},
{
closed = 1;
nodes = (
(208,642,l),
(378,642,ls),
(459,642,o),
(526,576,o),
(526,495,cs),
(526,305,ls),
(526,224,o),
(459,158,o),
(378,158,cs),
(208,158,l)
);
}
);
width = 724;
},
{
anchors = (
{
name = bottom;
pos = (342,0);
},
{
name = center;
pos = (342,400);
},
{
name = top;
pos = (342,800);
}
);
layerId = "F01B58DE-C728-4329-B3AC-16E1FFD45204";
shapes = (
{
closed = 1;
nodes = (
(358,0,l),
(515.041,0,o),
(643,131.947,o),
(643,293,c),
(643,506,ls),
(643,668,o),
(516,799,o),
(358,799,c),
(50,799,l),
(50,0,l)
);
},
{
closed = 1;
nodes = (
(151,694,l),
(358,694,l),
(459,694,o),
(542,610,o),
(542,506,cs),
(542,293,l),
(542,190.568,o),
(459.33,104,o),
(358,104,c),
(151,104,l)
);
}
);
width = 683;
}
);
unicode = 68;
},
{
color = 4;
glyphname = E;
kernLeft = E;
kernRight = E;
layers = (
{
anchors = (
{
name = bottom;
pos = (303,0);
},
{
name = ogonek;
pos = (545,10);
},
{
name = top;
pos = (303,800);
},
{
name = topleft;
pos = (20,800);
}
);
layerId = "63F83B90-CAEF-434E-8639-9EC66952CC6B";
shapes = (
{
closed = 1;
nodes = (
(566,0,l),
(566,158,l),
(208,158,l),
(208,334,l),
(455,334,l),
(455,472,l),
(208,472,l),
(208,642,l),
(566,642,l),
(566,800,l),
(50,800,l),
(50,0,l)
);
}
);
width = 606;
},
{
anchors = (
{
name = bottom;
pos = (281,0);
},
{
name = ogonek;
pos = (505,10);
},
{
name = top;
pos = (281,800);
},
{
name = topleft;
pos = (20,800);
}
);
layerId = "F01B58DE-C728-4329-B3AC-16E1FFD45204";
shapes = (
{
closed = 1;
nodes = (
(521,0,l),
(521,104,l),
(151,104,l),
(151,357,l),
(406,357,l),
(406,454,l),
(151,454,l),
(151,695,l),
(521,695,l),
(521,800,l),
(50,800,l),
(50,0,l)
);
}
);
userData = {
assembly = "PUSHW[ ]	/* 1 value pushed */
0 
CALL[ ]	/* CallFunction */
SVTCA[0]	/* SetFreedomAndProjectionVectorToAxis */
PUSHW[ ]	/* 1 value pushed */
0 
RCVT[ ]	/* ReadCVT */
IF[ ]	/* If */
PUSHW[ ]	/* 1 value pushed */
10 
MDAP[1]	/* MoveDirectAbsPt */
ELSE[ ]	/* Else */
PUSHW[ ]	/* 2 values pushed */
10 3 
MIAP[0]	/* MoveIndirectAbsPt */
EIF[ ]	/* EndIf */
IUP[0]	/* InterpolateUntPts */
IUP[1]	/* InterpolateUntPts */";
};
width = 561;
}
);
unicode = 69;
},
{
color = 4;
glyphname = F;
layers = (
{
anchors = (
{
name = bottom;
pos = (303,0);
},
{
name = top;
pos = (303,800);
}
);
layerId = "63F83B90-CAEF-434E-8639-9EC66952CC6B";
shapes = (
{
closed = 1;
nodes = (
(208,0,l),
(208,330,l),
(454,330,l),
(454,469,l),
(208,469,l),
(208,652,l),
(565,652,l),
(565,800,l),
(50,800,l),
(50,0,l)
);
}
);
width = 605;
},
{
anchors = (
{
name = bottom;
pos = (280,0);
},
{
name = top;
pos = (280,800);
}
);
layerId = "F01B58DE-C728-4329-B3AC-16E1FFD45204";
shapes = (
{
closed = 1;
nodes = (
(151,0,l),
(151,380,l),
(405,380,l),
(405,479,l),
(151,479,l),
(151,705,l),
(520,705,l),
(520,800,l),
(50,800,l),
(50,0,l)
);
}
);
width = 560;
}
);
unicode = 70;
},
{
color = 4;
glyphname = G;
layers = (
{
anchors = (
{
name = bottom;
pos = (361,0);
},
{
name = top;
pos = (361,800);
}
);
layerId = "63F83B90-CAEF-434E-8639-9EC66952CC6B";
shapes = (
{
closed = 1;
nodes = (
(377,-14,ls),
(545,-14,o),
(682,122,o),
(682,293,cs),
(682,409,l),
(391,409,l),
(391,269,l),
(522,269,l),
(511,197,o),
(450,144,o),
(377,144,cs),
(345,144,ls),
(264,144,o),
(198,209,o),
(198,293,cs),
(198,510,ls),
(198,591,o),
(264,657,o),
(345,657,cs),
(377,657,ls),
(440,657,o),
(494,617,o),
(515,562,c),
(649,647,l),
(599,746,o),
(496,814,o),
(377,814,cs),
(345,814,ls),
(177,814,o),
(40,678,o),
(40,510,cs),
(40,293,ls),
(40,122,o),
(177,-14,o),
(345,-14,cs)
);
}
);
width = 722;
},
{
anchors = (
{
name = bottom;
pos = (341,0);
},
{
name = top;
pos = (341,800);
}
);
layerId = "F01B58DE-C728-4329-B3AC-16E1FFD45204";
shapes = (
{
closed = 1;
nodes = (
(357,-13,ls),
(568,-13,o),
(641,129,o),
(641,307,cs),
(641,377,l),
(403,377,l),
(403,289,l),
(543,289,l),
(538,175,o),
(491,92,o),
(357,92,cs),
(324,92,ls),
(221,92,o),
(141,179,o),
(141,282,cs),
(141,514,ls),
(141,616,o),
(224,702,o),
(324,702,cs),
(367,702,ls),
(431,702,o),
(487,668,o),
(522,615,c),
(607,670,l),
(555,755,o),
(464,806,o),
(367,806,cs),
(324,806,ls),
(168,806,o),
(40,674,o),
(40,514,cs),
(40,282,ls),
(40,119,o),
(165,-13,o),
(324,-13,cs)
);
}
);
width = 681;
}
);
unicode = 71;
},
{
color = 4;
glyphname = H;
layers = (
{
anchors = (
{
name = bottom;
pos = (351,0);
},
{
name = center;
pos = (351,400);
},
{
name = top;
pos = (351,800);
},
{
name = topleft;
pos = (20,800);
}
);
layerId = "63F83B90-CAEF-434E-8639-9EC66952CC6B";
shapes = (
{
closed = 1;
nodes = (
(209,0,l),
(209,329,l),
(494,329,l),
(494,0,l),
(652,0,l),
(652,800,l),
(494,800,l),
(494,471,l),
(209,471,l),
(209,800,l),
(50,800,l),
(50,0,l)
);
}
);
width = 702;
},
{
anchors = (
{
name = bottom;
pos = (330,0);
},
{
name = center;
pos = (330,400);
},
{
name = top;
pos = (330,800);
},
{
name = topleft;
pos = (20,800);
}
);
layerId = "F01B58DE-C728-4329-B3AC-16E1FFD45204";
shapes = (
{
closed = 1;
nodes = (
(152,0,l),
(152,354,l),
(509,354,l),
(509,0,l),
(610,0,l),
(610,800,l),
(509,800,l),
(509,444,l),
(152,444,l),
(152,800,l),
(50,800,l),
(50,0,l)
);
}
);
width = 660;
}
);
unicode = 72;
},
{
color = 4;
glyphname = I;
kernLeft = I;
kernRight = I;
layers = (
{
anchors = (
{
name = bottom;
pos = (129,0);
},
{
name = ogonek;
pos = (232,10);
},
{
name = top;
pos = (129,800);
},
{
name = topleft;
pos = (20,800);
}
);
layerId = "63F83B90-CAEF-434E-8639-9EC66952CC6B";
shapes = (
{
closed = 1;
nodes = (
(208,0,l),
(208,800,l),
(50,800,l),
(50,0,l)
);
}
);
width = 258;
},
{
anchors = (
{
name = bottom;
pos = (101,0);
},
{
name = ogonek;
pos = (181,10);
},
{
name = top;
pos = (101,800);
},
{
name = topleft;
pos = (20,800);
}
);
layerId = "F01B58DE-C728-4329-B3AC-16E1FFD45204";
shapes = (
{
closed = 1;
nodes = (
(151,0,l),
(151,800,l),
(50,800,l),
(50,0,l)
);
}
);
userData = {
assembly = "PUSHW[ ]	/* 1 value pushed */
0 
CALL[ ]	/* CallFunction */
SVTCA[0]	/* SetFreedomAndProjectionVectorToAxis */
PUSHW[ ]	/* 1 value pushed */
0 
RCVT[ ]	/* ReadCVT */
IF[ ]	/* If */
PUSHW[ ]	/* 1 value pushed */
2 
MDAP[1]	/* MoveDirectAbsPt */
ELSE[ ]	/* Else */
PUSHW[ ]	/* 2 values pushed */
2 3 
MIAP[0]	/* MoveIndirectAbsPt */
EIF[ ]	/* EndIf */
IUP[0]	/* InterpolateUntPts */
IUP[1]	/* InterpolateUntPts */";
};
width = 201;
}
);
unicode = 73;
},
{
color = 4;
glyphname = J;
layers = (
{
anchors = (
{
name = bottom;
pos = (208,0);
},
{
name = top;
pos = (208,800);
}
);
layerId = "63F83B90-CAEF-434E-8639-9EC66952CC6B";
shapes = (
{
closed = 1;
nodes = (
(69,-6,l),
(257,-6,o),
(374,80,o),
(374,248,c),
(374,800,l),
(216,800,l),
(216,248,l),
(216,167,o),
(150,152,o),
(69,152,c),
(30,152,l),
(30,-6,l)
);
}
);
width = 424;
},
{
anchors = (
{
name = bottom;
pos = (187,0);
},
{
name = top;
pos = (187,800);
}
);
layerId = "F01B58DE-C728-4329-B3AC-16E1FFD45204";
shapes = (
{
closed = 1;
nodes = (
(42,-6,ls),
(207.55,-6,o),
(323,65.164,o),
(323,232,cs),
(323,800,l),
(222,800,l),
(222,232,l),
(222,124,o),
(139,98,o),
(42,98,c),
(30,98,l),
(30,-6,l)
);
}
);
width = 373;
}
);
unicode = 74;
},
{
color = 4;
glyphname = K;
layers = (
{
anchors = (
{
name = bottom;
pos = (361,0);
},
{
name = top;
pos = (361,800);
}
);
layerId = "63F83B90-CAEF-434E-8639-9EC66952CC6B";
shapes = (
{
closed = 1;
nodes = (
(210,800,l),
(50,800,l),
(50,0,l),
(210,0,l)
);
},
{
closed = 1;
nodes = (
(681,0,l),
(301,421,l),
(85,421,l),
(462,0,l)
);
},
{
closed = 1;
nodes = (
(495,800,l),
(135,437,l),
(251,327,l),
(695,800,l)
);
}
);
width = 735;
},
{
anchors = (
{
name = bottom;
pos = (417,0);
},
{
name = top;
pos = (417,800);
}
);
layerId = "F01B58DE-C728-4329-B3AC-16E1FFD45204";
shapes = (
{
closed = 1;
nodes = (
(150,800,l),
(50,800,l),
(50,0,l),
(150,0,l)
);
},
{
closed = 1;
nodes = (
(616,0,l),
(246,419,l),
(100,419,l),
(467,0,l)
);
},
{
closed = 1;
nodes = (
(486,800,l),
(127,419,l),
(209,345,l),
(626,800,l)
);
}
);
userData = {
assembly = "PUSHW[ ]	/* 1 value pushed */
0 
CALL[ ]	/* CallFunction */
SVTCA[0]	/* SetFreedomAndProjectionVectorToAxis */
PUSHW[ ]	/* 1 value pushed */
0 
RCVT[ ]	/* ReadCVT */
IF[ ]	/* If */
PUSHW[ ]	/* 1 value pushed */
0 
MDAP[1]	/* MoveDirectAbsPt */
ELSE[ ]	/* Else */
PUSHW[ ]	/* 2 values pushed */
0 3 
MIAP[0]	/* MoveIndirectAbsPt */
EIF[ ]	/* EndIf */
PUSHW[ ]	/* 1 value pushed */
0 
RCVT[ ]	/* ReadCVT */
IF[ ]	/* If */
PUSHW[ ]	/* 1 value pushed */
7 
MDAP[1]	/* MoveDirectAbsPt */
ELSE[ ]	/* Else */
PUSHW[ ]	/* 2 values pushed */
7 3 
MIAP[0]	/* MoveIndirectAbsPt */
EIF[ ]	/* EndIf */
IUP[0]	/* InterpolateUntPts */
IUP[1]	/* InterpolateUntPts */";
};
width = 666;
}
);
unicode = 75;
},
{
color = 4;
glyphname = L;
layers = (
{
anchors = (
{
name = bottom;
pos = (280,0);
},
{
name = center;
pos = (280,400);
},
{
name = top;
pos = (280,800);
},
{
name = topright;
pos = (539,800);
}
);
layerId = "63F83B90-CAEF-434E-8639-9EC66952CC6B";
shapes = (
{
closed = 1;
nodes = (
(209,0,l),
(209,800,l),
(50,800,l),
(50,0,l)
);
},
{
closed = 1;
nodes = (
(509,0,l),
(509,138,l),
(65,138,l),
(65,0,l)
);
}
);
width = 539;
},
{
anchors = (
{
name = bottom;
pos = (246,0);
},
{
name = center;
pos = (246,400);
},
{
name = top;
pos = (246,800);
},
{
name = topright;
pos = (472,800);
}
);
layerId = "F01B58DE-C728-4329-B3AC-16E1FFD45204";
shapes = (
{
closed = 1;
nodes = (
(151,0,l),
(151,800,l),
(50,800,l),
(50,0,l)
);
},
{
closed = 1;
nodes = (
(442,0,l),
(442,97,l),
(67,97,l),
(67,0,l)
);
}
);
userData = {
assembly = "PUSHW[ ]	/* 1 value pushed */
0 
CALL[ ]	/* CallFunction */
SVTCA[0]	/* SetFreedomAndProjectionVectorToAxis */
PUSHW[ ]	/* 1 value pushed */
0 
RCVT[ ]	/* ReadCVT */
IF[ ]	/* If */
PUSHW[ ]	/* 1 value pushed */
1 
MDAP[1]	/* MoveDirectAbsPt */
ELSE[ ]	/* Else */
PUSHW[ ]	/* 2 values pushed */
1 3 
MIAP[0]	/* MoveIndirectAbsPt */
EIF[ ]	/* EndIf */
IUP[0]	/* InterpolateUntPts */
IUP[1]	/* InterpolateUntPts */";
};
width = 472;
}
);
unicode = 76;
},
{
color = 4;
glyphname = M;
layers = (
{
anchors = (
{
name = bottom;
pos = (450,0);
},
{
name = top;
pos = (450,800);
}
);
layerId = "63F83B90-CAEF-434E-8639-9EC66952CC6B";
shapes = (
{
closed = 1;
nodes = (
(518,181,l),
(692,467.411,l),
(692,3,l),
(849,3,l),
(849,800,l),
(692,800,l),
(449,376,l),
(205,800,l),
(50,800,l),
(50,0,l),
(207,0,l),
(205,465,l),
(380,181,l)
);
}
);
width = 899;
},
{
anchors = (
{
name = bottom;
pos = (432,0);
},
{
name = top;
pos = (432,800);
}
);
guides = (
{
angle = 180;
pos = (432,193);
}
);
layerId = "F01B58DE-C728-4329-B3AC-16E1FFD45204";
shapes = (
{
closed = 1;
nodes = (
(482,193,l),
(713,593.183,l),
(713,1,l),
(813,1,l),
(813,800,l),
(713,800,l),
(431,321,l),
(150,800,l),
(50,800,l),
(50,1,l),
(150,1,l),
(150,591.455,l),
(380,193,l)
);
}
);
userData = {
assembly = "PUSHW[ ]	/* 1 value pushed */
0 
CALL[ ]	/* CallFunction */
SVTCA[0]	/* SetFreedomAndProjectionVectorToAxis */
PUSHW[ ]	/* 1 value pushed */
0 
RCVT[ ]	/* ReadCVT */
IF[ ]	/* If */
PUSHW[ ]	/* 1 value pushed */
0 
MDAP[1]	/* MoveDirectAbsPt */
ELSE[ ]	/* Else */
PUSHW[ ]	/* 2 values pushed */
0 3 
MIAP[0]	/* MoveIndirectAbsPt */
EIF[ ]	/* EndIf */
PUSHW[ ]	/* 1 value pushed */
0 
RCVT[ ]	/* ReadCVT */
IF[ ]	/* If */
PUSHW[ ]	/* 1 value pushed */
12 
MDAP[1]	/* MoveDirectAbsPt */
ELSE[ ]	/* Else */
PUSHW[ ]	/* 2 values pushed */
12 3 
MIAP[0]	/* MoveIndirectAbsPt */
EIF[ ]	/* EndIf */
IUP[0]	/* InterpolateUntPts */
IUP[1]	/* InterpolateUntPts */";
};
width = 863;
}
);
unicode = 77;
},
{
color = 4;
glyphname = N;
layers = (
{
anchors = (
{
name = bottom;
pos = (378,0);
},
{
name = top;
pos = (378,800);
}
);
layerId = "63F83B90-CAEF-434E-8639-9EC66952CC6B";
shapes = (
{
closed = 1;
nodes = (
(706,0,l),
(706,800,l),
(548,800,l),
(548,256,l),
(208,800,l),
(50,800,l),
(50,0,l),
(207,0,l),
(207,556,l),
(548,0,l)
);
}
);
width = 756;
},
{
anchors = (
{
name = bottom;
pos = (358,0);
},
{
name = top;
pos = (358,800);
}
);
layerId = "F01B58DE-C728-4329-B3AC-16E1FFD45204";
shapes = (
{
closed = 1;
nodes = (
(666,0,l),
(666,800,l),
(564,800,l),
(564,156,l),
(166,800,l),
(50,800,l),
(50,0,l),
(152,0,l),
(152,642,l),
(550,0,l)
);
}
);
userData = {
assembly = "PUSHW[ ]	/* 1 value pushed */
0 
CALL[ ]	/* CallFunction */
SVTCA[0]	/* SetFreedomAndProjectionVectorToAxis */
PUSHW[ ]	/* 1 value pushed */
0 
RCVT[ ]	/* ReadCVT */
IF[ ]	/* If */
PUSHW[ ]	/* 1 value pushed */
4 
MDAP[1]	/* MoveDirectAbsPt */
ELSE[ ]	/* Else */
PUSHW[ ]	/* 2 values pushed */
4 3 
MIAP[0]	/* MoveIndirectAbsPt */
EIF[ ]	/* EndIf */
PUSHW[ ]	/* 1 value pushed */
0 
RCVT[ ]	/* ReadCVT */
IF[ ]	/* If */
PUSHW[ ]	/* 1 value pushed */
7 
MDAP[1]	/* MoveDirectAbsPt */
ELSE[ ]	/* Else */
PUSHW[ ]	/* 2 values pushed */
7 3 
MIAP[0]	/* MoveIndirectAbsPt */
EIF[ ]	/* EndIf */
IUP[0]	/* InterpolateUntPts */
IUP[1]	/* InterpolateUntPts */";
};
width = 716;
}
);
unicode = 78;
},
{
color = 4;
glyphname = O;
kernLeft = O;
kernRight = O;
layers = (
{
anchors = (
{
name = bottom;
pos = (379,0);
},
{
name = center;
pos = (379,400);
},
{
name = ogonek;
pos = (679,10);
},
{
name = top;
pos = (379,800);
},
{
name = topleft;
pos = (23,800);
},
{
name = topright;
pos = (734,800);
}
);
layerId = "63F83B90-CAEF-434E-8639-9EC66952CC6B";
shapes = (
{
closed = 1;
nodes = (
(409,-13,l),
(580,-13,o),
(717,123,o),
(717,291,c),
(717,510,l),
(717,678,o),
(580,814,o),
(409,814,c),
(347,814,l),
(176,814,o),
(40,678,o),
(40,510,c),
(40,291,l),
(40,123,o),
(176,-13,o),
(347,-13,c)
);
},
{
closed = 1;
nodes = (
(259,132,o),
(193,197,o),
(193,283,c),
(193,518,l),
(193,604,o),
(259,670,o),
(345,670,c),
(411,670,l),
(497,670,o),
(563,604,o),
(563,518,c),
(563,283,l),
(563,197,o),
(497,132,o),
(411,132,c),
(345,132,l)
);
}
);
width = 757;
},
{
anchors = (
{
name = bottom;
pos = (359,0);
},
{
name = center;
pos = (359,400);
},
{
name = ogonek;
pos = (643,10);
},
{
name = top;
pos = (359,800);
},
{
name = topleft;
pos = (23,800);
},
{
name = topright;
pos = (694,800);
}
);
layerId = "F01B58DE-C728-4329-B3AC-16E1FFD45204";
shapes = (
{
closed = 1;
nodes = (
(390,-14,ls),
(550,-14,o),
(677,118,o),
(677,278,cs),
(677,522,l),
(677,682,o),
(550,814,o),
(390,814,cs),
(326,814,ls),
(167,814,o),
(40,683,o),
(40,522,cs),
(40,278,ls),
(40,117,o),
(167,-14,o),
(326,-14,cs)
);
},
{
closed = 1;
nodes = (
(227,88,o),
(144,172,o),
(144,278,cs),
(144,522,ls),
(144,627,o),
(227,713,o),
(326,713,c),
(390,713,ls),
(488,713,o),
(570,627,o),
(570,522,cs),
(570,278,ls),
(570,175,o),
(488,88,o),
(390,88,cs),
(326,88,ls)
);
}
);
width = 717;
}
);
unicode = 79;
},
{
color = 4;
glyphname = P;
layers = (
{
anchors = (
{
name = bottom;
pos = (344,0);
},
{
name = top;
pos = (344,800);
}
);
layerId = "63F83B90-CAEF-434E-8639-9EC66952CC6B";
shapes = (
{
closed = 1;
nodes = (
(276,277,o),
(363,277,o),
(402,277,c),
(537,277,o),
(647,390,o),
(647,539,c),
(647,687,o),
(537,800,o),
(402,800,c),
(358,800,o),
(277,800,o),
(197,800,c),
(197,643,l),
(402,643,l),
(452,643,o),
(490,598,o),
(490,539,c),
(490,479,o),
(452,435,o),
(402,435,c),
(197,435,l),
(197,277,l)
);
},
{
closed = 1;
nodes = (
(207,0,l),
(207,800,l),
(50,800,l),
(50,0,l)
);
}
);
width = 687;
},
{
anchors = (
{
name = bottom;
pos = (323,0);
},
{
name = top;
pos = (323,800);
}
);
layerId = "F01B58DE-C728-4329-B3AC-16E1FFD45204";
shapes = (
{
closed = 1;
nodes = (
(227,288,o),
(311,288,o),
(350,288,c),
(485,288,o),
(595,391,o),
(595,544,c),
(595,697,o),
(485,800,o),
(350,800,c),
(306,800,o),
(225,800,o),
(145,800,c),
(103,695,l),
(374,695,l),
(443,695,o),
(494,633,o),
(494,547,c),
(494,461,o),
(443,400,o),
(374,400,c),
(103,400,l),
(148,288,l)
);
},
{
closed = 1;
nodes = (
(151,0,l),
(151,800,l),
(50,800,l),
(50,0,l)
);
}
);
width = 635;
}
);
unicode = 80;
},
{
color = 4;
glyphname = Thorn;
layers = (
{
layerId = "63F83B90-CAEF-434E-8639-9EC66952CC6B";
shapes = (
{
closed = 1;
nodes = (
(276,139,o),
(363,139,o),
(402,139,c),
(537,139,o),
(647,252,o),
(647,401,c),
(647,549,o),
(537,662,o),
(402,662,c),
(358,662,o),
(277,662,o),
(197,662,c),
(197,505,l),
(402,505,l),
(452,505,o),
(490,460,o),
(490,401,c),
(490,341,o),
(452,297,o),
(402,297,c),
(197,297,l),
(197,139,l)
);
},
{
closed = 1;
nodes = (
(207,20,l),
(207,780,l),
(50,780,l),
(50,20,l)
);
}
);
width = 687;
},
{
layerId = "F01B58DE-C728-4329-B3AC-16E1FFD45204";
shapes = (
{
closed = 1;
nodes = (
(227,144,o),
(301,144,o),
(340,144,c),
(475,144,o),
(585,247,o),
(585,400,c),
(585,553,o),
(475,656,o),
(340,656,c),
(296,656,o),
(225,656,o),
(145,656,c),
(103,551,l),
(364,551,l),
(433,551,o),
(484,489,o),
(484,403,c),
(484,317,o),
(433,256,o),
(364,256,c),
(103,256,l),
(148,144,l)
);
},
{
closed = 1;
nodes = (
(151,0,l),
(151,800,l),
(50,800,l),
(50,0,l)
);
}
);
width = 625;
}
);
unicode = 222;
},
{
color = 4;
glyphname = Q;
layers = (
{
anchors = (
{
name = bottom;
pos = (390,0);
},
{
name = top;
pos = (390,800);
}
);
layerId = "63F83B90-CAEF-434E-8639-9EC66952CC6B";
shapes = (
{
closed = 1;
nodes = (
(384,-11,l),
(550,-11,o),
(685,124,o),
(685,290,c),
(685,512,l),
(685,679,o),
(550,814,o),
(384,814,c),
(342,814,l),
(175,814,o),
(40,679,o),
(40,512,c),
(40,290,l),
(40,124,o),
(175,-11,o),
(342,-11,c)
);
},
{
closed = 1;
nodes = (
(262,135,o),
(196,200,o),
(196,290,c),
(196,512,l),
(196,603,o),
(262,668,o),
(342,668,c),
(384,668,l),
(464,668,o),
(529,603,o),
(529,512,c),
(529,290,l),
(529,200,o),
(464,135,o),
(384,135,c),
(342,135,l)
);
},
{
closed = 1;
nodes = (
(694,37,l),
(418,330,l),
(317,236,l),
(601,-64,l)
);
}
);
width = 734;
},
{
anchors = (
{
name = bottom;
pos = (356,0);
},
{
name = top;
pos = (356,800);
}
);
layerId = "F01B58DE-C728-4329-B3AC-16E1FFD45204";
shapes = (
{
closed = 1;
nodes = (
(382,-17,ls),
(524,-17,o),
(651,115,o),
(651,275,cs),
(651,519,l),
(651,679,o),
(524,811,o),
(382,811,cs),
(308,811,ls),
(167,811,o),
(40,680,o),
(40,519,cs),
(40,275,ls),
(40,114,o),
(167,-17,o),
(308,-17,cs)
);
},
{
closed = 1;
nodes = (
(223,83,o),
(140,167,o),
(140,275,cs),
(140,519,ls),
(140,626,o),
(223,712,o),
(308,712,c),
(382,712,ls),
(468,712,o),
(550,626,o),
(550,519,cs),
(550,275,ls),
(550,167,o),
(468,83,o),
(382,83,cs),
(308,83,ls)
);
},
{
closed = 1;
nodes = (
(651,7,l),
(407,275,l),
(348,219,l),
(594,-49,l)
);
}
);
userData = {
assembly = "PUSHW[ ]	/* 1 value pushed */
0 
CALL[ ]	/* CallFunction */
SVTCA[0]	/* SetFreedomAndProjectionVectorToAxis */
PUSHW[ ]	/* 1 value pushed */
0 
RCVT[ ]	/* ReadCVT */
IF[ ]	/* If */
PUSHW[ ]	/* 1 value pushed */
34 
MDAP[1]	/* MoveDirectAbsPt */
ELSE[ ]	/* Else */
PUSHW[ ]	/* 2 values pushed */
34 3 
MIAP[0]	/* MoveIndirectAbsPt */
EIF[ ]	/* EndIf */
IUP[0]	/* InterpolateUntPts */
IUP[1]	/* InterpolateUntPts */";
};
width = 691;
}
);
unicode = 81;
},
{
color = 4;
glyphname = R;
layers = (
{
anchors = (
{
name = bottom;
pos = (367,0);
},
{
name = top;
pos = (367,800);
}
);
layerId = "63F83B90-CAEF-434E-8639-9EC66952CC6B";
shapes = (
{
closed = 1;
nodes = (
(227,295,o),
(391,295,o),
(424,295,c),
(561,295,o),
(672,406,o),
(672,553,c),
(672,689,o),
(561,800,o),
(424,800,c),
(388,800,o),
(226,800,o),
(153,800,c),
(153,647,l),
(429,647,l),
(479,647,o),
(518,607,o),
(518,553,c),
(518,489,o),
(479,449,o),
(429,449,c),
(153,449,l),
(153,295,l)
);
},
{
closed = 1;
nodes = (
(209,0,l),
(209,800,l),
(50,800,l),
(50,0,l)
);
},
{
closed = 1;
nodes = (
(693,0,l),
(500,428,l),
(352,372,l),
(524,0,l)
);
}
);
width = 733;
},
{
anchors = (
{
name = bottom;
pos = (338,0);
},
{
name = top;
pos = (338,800);
}
);
guides = (
{
angle = 180;
pos = (279,431);
}
);
layerId = "F01B58DE-C728-4329-B3AC-16E1FFD45204";
shapes = (
{
closed = 1;
nodes = (
(221,318,o),
(335,318,o),
(374,318,c),
(509,318,o),
(619,419,o),
(619,554,c),
(619,707,o),
(509,800,o),
(374,800,c),
(330,800,o),
(239,800,o),
(117,800,c),
(117,695,l),
(400,695,l),
(469,695,o),
(520,643,o),
(520,557,c),
(520,489,o),
(469,428,o),
(400,428,c),
(117,428,l),
(117,318,l)
);
},
{
closed = 1;
nodes = (
(151,0,l),
(151,800,l),
(50,800,l),
(50,0,l)
);
},
{
closed = 1;
nodes = (
(626,0,l),
(462,372,l),
(352,372,l),
(518,0,l)
);
}
);
width = 666;
}
);
unicode = 82;
},
{
color = 4;
glyphname = S;
layers = (
{
anchors = (
{
name = bottom;
pos = (341,0);
},
{
name = top;
pos = (341,800);
}
);
guides = (
{
angle = 59.8485;
pos = (621,643);
},
{
angle = 51.9654;
pos = (138,150);
}
);
layerId = "63F83B90-CAEF-434E-8639-9EC66952CC6B";
shapes = (
{
closed = 1;
nodes = (
(225,-83,o),
(631,-40,o),
(633,219,cs),
(635,547,o),
(212,432,o),
(212,576,cs),
(212,659,o),
(359,677,o),
(514,593,c),
(593,729,l),
(491,786,o),
(406,806,o),
(338,808,cs),
(189,812,o),
(54,716,o),
(54,579,cs),
(54,263,o),
(477,389,o),
(477,227,cs),
(477,115,o),
(223,134,o),
(137,212,c),
(40,88,l)
);
}
);
width = 673;
},
{
anchors = (
{
name = bottom;
pos = (310,0);
},
{
name = top;
pos = (310,800);
}
);
layerId = "F01B58DE-C728-4329-B3AC-16E1FFD45204";
shapes = (
{
closed = 1;
nodes = (
(218,-80,o),
(579,-32,o),
(579,214,cs),
(579,558,o),
(142,361,o),
(144,582,cs),
(145,710,o),
(347,717,o),
(473,645,c),
(524,734,l),
(451,771,o),
(374,797,o),
(295,797,cs),
(157,797,o),
(43,709,o),
(43,581,cs),
(44,250,o),
(480,445,o),
(480,214,cs),
(480,66,o),
(239,52,o),
(103,149,c),
(40,66,l)
);
}
);
width = 619;
}
);
unicode = 83;
},
{
color = 4;
glyphname = T;
layers = (
{
anchors = (
{
name = bottom;
pos = (320,0);
},
{
name = center;
pos = (320,400);
},
{
name = top;
pos = (320,800);
}
);
layerId = "63F83B90-CAEF-434E-8639-9EC66952CC6B";
shapes = (
{
closed = 1;
nodes = (
(399,0,l),
(399,780,l),
(241,780,l),
(241,0,l)
);
},
{
closed = 1;
nodes = (
(600,657,l),
(600,800,l),
(40,800,l),
(40,657,l)
);
}
);
width = 640;
},
{
anchors = (
{
name = bottom;
pos = (290,0);
},
{
name = center;
pos = (290,400);
},
{
name = top;
pos = (290,800);
}
);
layerId = "F01B58DE-C728-4329-B3AC-16E1FFD45204";
shapes = (
{
closed = 1;
nodes = (
(349,0,l),
(349,789,l),
(248,789,l),
(248,0,l)
);
},
{
closed = 1;
nodes = (
(556,705,l),
(556,800,l),
(40,800,l),
(40,705,l)
);
}
);
width = 596;
}
);
unicode = 84;
},
{
color = 4;
glyphname = U;
kernLeft = U;
kernRight = U;
layers = (
{
anchors = (
{
name = bottom;
pos = (360,0);
},
{
name = ogonek;
pos = (648,10);
},
{
name = top;
pos = (360,800);
},
{
name = topright;
pos = (700,800);
}
);
layerId = "63F83B90-CAEF-434E-8639-9EC66952CC6B";
shapes = (
{
closed = 1;
nodes = (
(376,-11,l),
(544,-11,o),
(680,125,o),
(680,293,c),
(680,800,l),
(523,800,l),
(523,293,l),
(523,212,o),
(457,146,o),
(376,146,c),
(344,146,l),
(263,146,o),
(197,212,o),
(197,293,c),
(197,800,l),
(40,800,l),
(40,293,l),
(40,125,o),
(176,-11,o),
(344,-11,c)
);
}
);
width = 720;
},
{
anchors = (
{
name = bottom;
pos = (335,0);
},
{
name = ogonek;
pos = (610,10);
},
{
name = top;
pos = (335,800);
},
{
name = topright;
pos = (659,800);
}
);
layerId = "F01B58DE-C728-4329-B3AC-16E1FFD45204";
shapes = (
{
closed = 1;
nodes = (
(356,-12,ls),
(513,-12,o),
(639,120,o),
(639,280,cs),
(639,800,l),
(539,800,l),
(539,280,ls),
(539,178,o),
(457,92,o),
(356,92,cs),
(323,92,ls),
(223,92,o),
(140,178,o),
(140,280,cs),
(140,800,l),
(40,800,l),
(40,280,l),
(40,119,o),
(167,-12,o),
(323,-12,cs)
);
}
);
width = 679;
}
);
unicode = 85;
},
{
color = 4;
glyphname = V;
layers = (
{
anchors = (
{
name = bottom;
pos = (387,0);
},
{
name = top;
pos = (387,800);
}
);
layerId = "63F83B90-CAEF-434E-8639-9EC66952CC6B";
shapes = (
{
closed = 1;
nodes = (
(318,0,l),
(456,0,l),
(734,800,l),
(569,800,l),
(387,236,l),
(205,800,l),
(40,800,l)
);
}
);
width = 774;
},
{
anchors = (
{
name = bottom;
pos = (360,0);
},
{
name = top;
pos = (360,800);
}
);
layerId = "F01B58DE-C728-4329-B3AC-16E1FFD45204";
shapes = (
{
closed = 1;
nodes = (
(311,0,l),
(409,0,l),
(680,800,l),
(575,800,l),
(360,147,l),
(145,800,l),
(40,800,l)
);
}
);
userData = {
assembly = "PUSHW[ ]	/* 1 value pushed */
0 
CALL[ ]	/* CallFunction */
SVTCA[0]	/* SetFreedomAndProjectionVectorToAxis */
PUSHW[ ]	/* 1 value pushed */
0 
RCVT[ ]	/* ReadCVT */
IF[ ]	/* If */
PUSHW[ ]	/* 1 value pushed */
5 
MDAP[1]	/* MoveDirectAbsPt */
ELSE[ ]	/* Else */
PUSHW[ ]	/* 2 values pushed */
5 3 
MIAP[0]	/* MoveIndirectAbsPt */
EIF[ ]	/* EndIf */
IUP[0]	/* InterpolateUntPts */
IUP[1]	/* InterpolateUntPts */";
};
width = 720;
}
);
unicode = 86;
},
{
color = 4;
glyphname = W;
layers = (
{
anchors = (
{
name = bottom;
pos = (582,0);
},
{
name = top;
pos = (582,800);
}
);
layerId = "63F83B90-CAEF-434E-8639-9EC66952CC6B";
shapes = (
{
closed = 1;
nodes = (
(387,0,l),
(580,541,l),
(769,0,l),
(893,0,l),
(1123,800,l),
(960,800,l),
(825,287,l),
(659,800,l),
(502,800,l),
(333,288,l),
(203,800,l),
(40,800,l),
(263,0,l)
);
}
);
width = 1163;
},
{
anchors = (
{
name = bottom;
pos = (559,0);
},
{
name = top;
pos = (559,800);
}
);
layerId = "F01B58DE-C728-4329-B3AC-16E1FFD45204";
shapes = (
{
closed = 1;
nodes = (
(346,0,l),
(558,662,l),
(765,0,l),
(868,0,l),
(1078,800,l),
(974,800,l),
(814,169,l),
(620,800,l),
(497,800,l),
(299,169,l),
(144,800,l),
(40,800,l),
(243,0,l)
);
}
);
userData = {
assembly = "PUSHW[ ]	/* 1 value pushed */
0 
CALL[ ]	/* CallFunction */
SVTCA[0]	/* SetFreedomAndProjectionVectorToAxis */
PUSHW[ ]	/* 1 value pushed */
0 
RCVT[ ]	/* ReadCVT */
IF[ ]	/* If */
PUSHW[ ]	/* 1 value pushed */
8 
MDAP[1]	/* MoveDirectAbsPt */
ELSE[ ]	/* Else */
PUSHW[ ]	/* 2 values pushed */
8 3 
MIAP[0]	/* MoveIndirectAbsPt */
EIF[ ]	/* EndIf */
PUSHW[ ]	/* 1 value pushed */
0 
RCVT[ ]	/* ReadCVT */
IF[ ]	/* If */
PUSHW[ ]	/* 1 value pushed */
11 
MDAP[1]	/* MoveDirectAbsPt */
ELSE[ ]	/* Else */
PUSHW[ ]	/* 2 values pushed */
11 3 
MIAP[0]	/* MoveIndirectAbsPt */
EIF[ ]	/* EndIf */
IUP[0]	/* InterpolateUntPts */
IUP[1]	/* InterpolateUntPts */";
};
width = 1118;
}
);
unicode = 87;
},
{
color = 4;
glyphname = X;
layers = (
{
anchors = (
{
name = bottom;
pos = (399,0);
},
{
name = top;
pos = (399,800);
}
);
layerId = "63F83B90-CAEF-434E-8639-9EC66952CC6B";
shapes = (
{
closed = 1;
nodes = (
(426,279,l),
(769,799,l),
(580,799,l),
(331,419,l)
);
},
{
closed = 1;
nodes = (
(756,0,l),
(229,800,l),
(40,800,l),
(567,0,l)
);
},
{
closed = 1;
nodes = (
(320,420,l),
(42,0,l),
(232,0,l),
(415,280,l)
);
}
);
width = 809;
},
{
anchors = (
{
name = bottom;
pos = (360,0);
},
{
name = top;
pos = (360,800);
}
);
layerId = "F01B58DE-C728-4329-B3AC-16E1FFD45204";
shapes = (
{
closed = 1;
nodes = (
(384,324,l),
(690,800,l),
(570,800,l),
(328,419,l)
);
},
{
closed = 1;
nodes = (
(671,0,l),
(160,800,l),
(40,800,l),
(550,0,l)
);
},
{
closed = 1;
nodes = (
(319,419,l),
(49,0,l),
(170,0,l),
(376,326,l)
);
}
);
userData = {
assembly = "PUSHW[ ]	/* 1 value pushed */
0 
CALL[ ]	/* CallFunction */
SVTCA[0]	/* SetFreedomAndProjectionVectorToAxis */
PUSHW[ ]	/* 1 value pushed */
0 
RCVT[ ]	/* ReadCVT */
IF[ ]	/* If */
PUSHW[ ]	/* 1 value pushed */
6 
MDAP[1]	/* MoveDirectAbsPt */
ELSE[ ]	/* Else */
PUSHW[ ]	/* 2 values pushed */
6 3 
MIAP[0]	/* MoveIndirectAbsPt */
EIF[ ]	/* EndIf */
PUSHW[ ]	/* 1 value pushed */
0 
RCVT[ ]	/* ReadCVT */
IF[ ]	/* If */
PUSHW[ ]	/* 1 value pushed */
9 
MDAP[1]	/* MoveDirectAbsPt */
ELSE[ ]	/* Else */
PUSHW[ ]	/* 2 values pushed */
9 3 
MIAP[0]	/* MoveIndirectAbsPt */
EIF[ ]	/* EndIf */
IUP[0]	/* InterpolateUntPts */
IUP[1]	/* InterpolateUntPts */";
};
width = 730;
}
);
unicode = 88;
},
{
color = 4;
glyphname = Y;
layers = (
{
anchors = (
{
name = bottom;
pos = (403,0);
},
{
name = top;
pos = (403,800);
},
{
name = topleft;
pos = (20,800);
}
);
layerId = "63F83B90-CAEF-434E-8639-9EC66952CC6B";
shapes = (
{
closed = 1;
nodes = (
(766,800,l),
(590,800,l),
(403,445,l),
(217,800,l),
(40,800,l),
(403,131,l)
);
},
{
closed = 1;
nodes = (
(482,0,l),
(482,366,l),
(324,366,l),
(324,0,l)
);
}
);
width = 806;
},
{
anchors = (
{
name = bottom;
pos = (374,0);
},
{
name = top;
pos = (374,800);
},
{
name = topleft;
pos = (28,800);
}
);
layerId = "F01B58DE-C728-4329-B3AC-16E1FFD45204";
shapes = (
{
closed = 1;
nodes = (
(702,800,l),
(589,800,l),
(371,378,l),
(153,800,l),
(40,800,l),
(371,173,l)
);
},
{
closed = 1;
nodes = (
(422,0,l),
(422,325,l),
(321,325,l),
(321,0,l)
);
}
);
userData = {
assembly = "PUSHW[ ]	/* 1 value pushed */
0 
CALL[ ]	/* CallFunction */
SVTCA[0]	/* SetFreedomAndProjectionVectorToAxis */
PUSHW[ ]	/* 1 value pushed */
0 
RCVT[ ]	/* ReadCVT */
IF[ ]	/* If */
PUSHW[ ]	/* 1 value pushed */
16 
MDAP[1]	/* MoveDirectAbsPt */
ELSE[ ]	/* Else */
PUSHW[ ]	/* 2 values pushed */
16 3 
MIAP[0]	/* MoveIndirectAbsPt */
EIF[ ]	/* EndIf */
IUP[0]	/* InterpolateUntPts */
IUP[1]	/* InterpolateUntPts */";
};
width = 742;
}
);
unicode = 89;
},
{
color = 5;
glyphname = Z;
layers = (
{
anchors = (
{
name = bottom;
pos = (343,0);
},
{
name = center;
pos = (343,400);
},
{
name = top;
pos = (343,800);
}
);
layerId = "63F83B90-CAEF-434E-8639-9EC66952CC6B";
shapes = (
{
attr = {
strokeWidth = 160;
};
closed = 0;
nodes = (
(40,720,l),
(561,720,l),
(561,678,l),
(129,123,l),
(129,81,l),
(637,81,l)
);
}
);
width = 681;
},
{
anchors = (
{
name = bottom;
pos = (333,0);
},
{
name = center;
pos = (333,400);
},
{
name = top;
pos = (333,800);
}
);
guides = (
{
angle = 90;
pos = (651,737);
},
{
angle = 90;
pos = (40,65);
}
);
layerId = "F01B58DE-C728-4329-B3AC-16E1FFD45204";
shapes = (
{
attr = {
strokeWidth = 100;
};
closed = 0;
nodes = (
(50,751,l),
(561,751,l),
(561,722,l),
(93,79,l),
(93,50,l),
(617,50,l)
);
}
);
userData = {
assembly = "PUSHW[ ]	/* 1 value pushed */
0 
CALL[ ]	/* CallFunction */
SVTCA[0]	/* SetFreedomAndProjectionVectorToAxis */
PUSHW[ ]	/* 1 value pushed */
0 
RCVT[ ]	/* ReadCVT */
IF[ ]	/* If */
PUSHW[ ]	/* 1 value pushed */
8 
MDAP[1]	/* MoveDirectAbsPt */
ELSE[ ]	/* Else */
PUSHW[ ]	/* 2 values pushed */
8 3 
MIAP[0]	/* MoveIndirectAbsPt */
EIF[ ]	/* EndIf */
PUSHW[ ]	/* 1 value pushed */
0 
RCVT[ ]	/* ReadCVT */
IF[ ]	/* If */
PUSHW[ ]	/* 1 value pushed */
10 
MDAP[1]	/* MoveDirectAbsPt */
ELSE[ ]	/* Else */
PUSHW[ ]	/* 2 values pushed */
10 3 
MIAP[0]	/* MoveIndirectAbsPt */
EIF[ ]	/* EndIf */
IUP[0]	/* InterpolateUntPts */
IUP[1]	/* InterpolateUntPts */";
};
width = 651;
}
);
unicode = 90;
},
{
color = 4;
glyphname = a;
kernLeft = "rounded-low";
layers = (
{
anchors = (
{
name = bottom;
pos = (294,0);
},
{
name = ogonek;
pos = (528,10);
},
{
name = top;
pos = (294,582);
}
);
layerId = "63F83B90-CAEF-434E-8639-9EC66952CC6B";
shapes = (
{
closed = 1;
nodes = (
(547,0,l),
(547,390,ls),
(547,512,o),
(444,592,o),
(338,592,cs),
(287,592,ls),
(189,592,o),
(126,570,o),
(73,534,c),
(144,421,l),
(165,437,o),
(219,454,o),
(273,454,cs),
(302,454,ls),
(352,454,o),
(389,426,o),
(389,393,cs),
(389,0,l)
);
},
{
closed = 1;
nodes = (
(378,-10,o),
(464,93,o),
(517,187,c),
(406,327,l),
(406,337,o),
(389,363,o),
(354,363,c),
(238,363,l),
(121,363,o),
(40,280,o),
(40,176,c),
(40,65,o),
(136,-10,o),
(260,-10,cs)
);
},
{
closed = 1;
nodes = (
(238,133,o),
(203,149,o),
(203,195,cs),
(203,220,o),
(214,246,o),
(238,246,c),
(377,246,l),
(386,245,o),
(389,240,o),
(389,233,c),
(389,205,l),
(389,161,o),
(352,133,o),
(279,133,cs)
);
}
);
width = 597;
},
{
anchors = (
{
name = bottom;
pos = (297,0);
},
{
name = ogonek;
pos = (513,10);
},
{
name = top;
pos = (297,582);
}
);
layerId = "F01B58DE-C728-4329-B3AC-16E1FFD45204";
shapes = (
{
closed = 1;
nodes = (
(525,-1,l),
(525,393,ls),
(525,511,o),
(432,591,o),
(316,591,cs),
(245,591,ls),
(186,591,o),
(149,582,o),
(91,547,c),
(138,462,l),
(172,485,o),
(224,493,o),
(256,493,cs),
(317,493,ls),
(393,493,o),
(426,436,o),
(426,393,cs),
(426,0,l)
);
},
{
closed = 1;
nodes = (
(397,-11,o),
(430,54,o),
(515,131,c),
(438,342,l),
(438,355,o),
(408,372,o),
(373,372,c),
(237,372,l),
(99,372,o),
(40,280,o),
(40,175,cs),
(40,63,o),
(138,-11,o),
(259,-11,c)
);
},
{
closed = 1;
nodes = (
(187,89,o),
(140,111,o),
(140,194,cs),
(140,238,o),
(162,279,o),
(213,279,c),
(409,279,l),
(421,278,o),
(425,268,o),
(425,256,c),
(425,212,l),
(425,134,o),
(374,89,o),
(258,89,c)
);
}
);
width = 575;
}
);
unicode = 97;
},
{
color = 4;
glyphname = ae;
layers = (
{
layerId = "63F83B90-CAEF-434E-8639-9EC66952CC6B";
shapes = (
{
closed = 1;
nodes = (
(679,-14,ls),
(764,-14,o),
(839,27,o),
(886,90,c),
(756,179,l),
(737,158,o),
(710,144,o),
(679,144,cs),
(638,144,ls),
(582,144,o),
(537,189,o),
(537,248,cs),
(537,249,l),
(920,249,l),
(920,326,ls),
(920,470,o),
(804,586,o),
(661,586,cs),
(638,586,ls),
(580,586,o),
(523,557,o),
(482,524,c),
(449,571,o),
(393,592,o),
(328,592,cs),
(287,592,ls),
(189,592,o),
(126,570,o),
(73,534,c),
(144,413,l),
(165,433,o),
(209,454,o),
(273,454,cs),
(302,454,ls),
(312,454,o),
(379,446,o),
(379,403,cs),
(379,352,l),
(371,358,o),
(359,363,o),
(344,363,cs),
(238,363,ls),
(121,363,o),
(40,280,o),
(40,176,cs),
(40,65,o),
(136,-10,o),
(260,-10,cs),
(339,-10,o),
(389,25,o),
(444,74,c),
(491,20,o),
(561,-14,o),
(638,-14,cs)
);
},
{
closed = 1;
nodes = (
(238,133,o),
(203,149,o),
(203,195,cs),
(203,220,o),
(214,246,o),
(238,246,cs),
(367,246,l),
(376,245,o),
(379,240,o),
(379,233,cs),
(379,205,ls),
(379,161,o),
(342,133,o),
(279,133,cs)
);
},
{
closed = 1;
nodes = (
(555,399,o),
(593,428,o),
(638,428,cs),
(668,428,ls),
(713,428,o),
(746,399,o),
(758,358,c),
(542,358,l)
);
}
);
width = 960;
},
{
layerId = "F01B58DE-C728-4329-B3AC-16E1FFD45204";
shapes = (
{
closed = 1;
nodes = (
(673,-15,ls),
(737,-15,o),
(830,16,o),
(874,80,c),
(789,140,l),
(764,104,o),
(714,90,o),
(673,90,cs),
(631,90,ls),
(552,90,o),
(495,155,o),
(495,232,cs),
(495,268,l),
(891,268,l),
(891,319,ls),
(891,486,o),
(786,584,o),
(654,584,cs),
(631,584,ls),
(564,584,o),
(504,555,o),
(461,509,c),
(425,555,o),
(364,585,o),
(286,585,cs),
(245,585,ls),
(186,585,o),
(149,576,o),
(91,541,c),
(138,462,l),
(172,491,o),
(224,493,o),
(256,493,cs),
(287,493,ls),
(363,493,o),
(394,436,o),
(394,393,c),
(394,349,l),
(382,356,o),
(363,362,o),
(343,362,cs),
(237,362,ls),
(126,362,o),
(40,283,o),
(40,175,cs),
(40,63,o),
(138,-11,o),
(259,-11,cs),
(345,-11,o),
(398,22,o),
(439,87,c),
(482,25,o),
(551,-15,o),
(631,-15,cs)
);
},
{
closed = 1;
nodes = (
(197,89,o),
(150,111,o),
(150,194,cs),
(150,238,o),
(172,279,o),
(223,279,cs),
(379,279,ls),
(388,279,o),
(392,273,o),
(394,265,c),
(395,209,l),
(394,133,o),
(343,89,o),
(258,89,cs)
);
},
{
closed = 1;
nodes = (
(495,428,o),
(571,479,o),
(631,479,cs),
(662,479,ls),
(722,479,o),
(795,428,o),
(795,346,c),
(495,346,l)
);
}
);
userData = {
assembly = "PUSHW[ ]	/* 1 value pushed */
0 
CALL[ ]	/* CallFunction */
SVTCA[0]	/* SetFreedomAndProjectionVectorToAxis */
PUSHW[ ]	/* 1 value pushed */
87 
MDAP[1]	/* MoveDirectAbsPt */
PUSHW[ ]	/* 1 value pushed */
94 
MDAP[1]	/* MoveDirectAbsPt */
PUSHW[ ]	/* 1 value pushed */
0 
RCVT[ ]	/* ReadCVT */
IF[ ]	/* If */
PUSHW[ ]	/* 1 value pushed */
51 
MDAP[1]	/* MoveDirectAbsPt */
ELSE[ ]	/* Else */
PUSHW[ ]	/* 2 values pushed */
51 3 
MIAP[0]	/* MoveIndirectAbsPt */
EIF[ ]	/* EndIf */
PUSHW[ ]	/* 1 value pushed */
0 
RCVT[ ]	/* ReadCVT */
IF[ ]	/* If */
PUSHW[ ]	/* 1 value pushed */
60 
MDAP[1]	/* MoveDirectAbsPt */
ELSE[ ]	/* Else */
PUSHW[ ]	/* 2 values pushed */
60 3 
MIAP[0]	/* MoveIndirectAbsPt */
EIF[ ]	/* EndIf */
PUSHW[ ]	/* 3 values pushed */
9 51 94 
SRP1[ ]	/* SetRefPoint1 */
SRP2[ ]	/* SetRefPoint2 */
IP[ ]	/* InterpolatePts */
PUSHW[ ]	/* 3 values pushed */
85 51 94 
SRP1[ ]	/* SetRefPoint1 */
SRP2[ ]	/* SetRefPoint2 */
IP[ ]	/* InterpolatePts */
PUSHW[ ]	/* 3 values pushed */
86 51 94 
SRP1[ ]	/* SetRefPoint1 */
SRP2[ ]	/* SetRefPoint2 */
IP[ ]	/* InterpolatePts */
IUP[0]	/* InterpolateUntPts */
IUP[1]	/* InterpolateUntPts */";
};
width = 931;
}
);
unicode = 230;
},
{
color = 3;
glyphname = b;
layers = (
{
anchors = (
{
name = top;
pos = (316,970);
}
);
layerId = "63F83B90-CAEF-434E-8639-9EC66952CC6B";
shapes = (
{
closed = 1;
nodes = (
(323,-7,ls),
(467,-7,o),
(571,109,o),
(571,252,cs),
(571,327,ls),
(571,470,o),
(455,586,o),
(311,586,cs),
(270,586,ls),
(250,586,o),
(229,579,o),
(208,568,c),
(208,800,l),
(50,800,l),
(50,0,l),
(208,0,l),
(208,35,l),
(227,15,o),
(260,-7,o),
(307,-7,cs)
);
},
{
closed = 1;
nodes = (
(254,151,o),
(209,196,o),
(209,252,cs),
(209,367,ls),
(209,401,o),
(236,428,o),
(270,428,cs),
(311,428,ls),
(367,428,o),
(413,383,o),
(413,327,cs),
(413,252,ls),
(413,196,o),
(379,151,o),
(323,151,cs),
(310,151,ls)
);
}
);
width = 611;
},
{
anchors = (
{
name = top;
pos = (293,970);
}
);
layerId = "F01B58DE-C728-4329-B3AC-16E1FFD45204";
shapes = (
{
closed = 1;
nodes = (
(307,-8,ls),
(449,-8,o),
(563,106,o),
(563,247,cs),
(563,332,ls),
(563,473,o),
(449,587,o),
(307,587,cs),
(260,587,ls),
(214,587,o),
(178,573,o),
(150,549,c),
(150,800,l),
(50,800,l),
(50,0,l),
(150,0,l),
(150,56,l),
(183,16,o),
(231,-8,o),
(306,-8,cs)
);
},
{
closed = 1;
nodes = (
(220,92,o),
(151,162,o),
(151,247,cs),
(151,378,ls),
(151,439,o),
(199,487,o),
(260,487,cs),
(307,487,ls),
(392,487,o),
(463,417,o),
(463,332,cs),
(463,247,ls),
(463,162,o),
(392,92,o),
(307,92,cs),
(306,92,ls)
);
}
);
width = 603;
}
);
unicode = 98;
},
{
color = 4;
glyphname = c;
kernLeft = "rounded-low";
layers = (
{
anchors = (
{
name = bottom;
pos = (284,0);
},
{
name = top;
pos = (284,582);
}
);
layerId = "63F83B90-CAEF-434E-8639-9EC66952CC6B";
shapes = (
{
closed = 1;
nodes = (
(322,-10,l),
(410,-10,o),
(487,38,o),
(528,109,c),
(392,189,l),
(379,165,o),
(352,148,o),
(322,148,c),
(293,148,l),
(244,148,o),
(197,188,o),
(197,244,c),
(197,334,l),
(197,386,o),
(241,430,o),
(293,430,c),
(322,430,l),
(352,430,o),
(379,413,o),
(392,389,c),
(528,469,l),
(487,540,o),
(410,588,o),
(322,588,c),
(293,588,l),
(154,588,o),
(40,474,o),
(40,334,c),
(40,244,l),
(40,104,o),
(154,-10,o),
(293,-10,c)
);
}
);
width = 568;
},
{
anchors = (
{
name = bottom;
pos = (265,0);
},
{
name = top;
pos = (265,582);
}
);
layerId = "F01B58DE-C728-4329-B3AC-16E1FFD45204";
shapes = (
{
closed = 1;
nodes = (
(310,-11,ls),
(377,-11,o),
(438,21,o),
(479,74,c),
(391,128,l),
(368,107,o),
(341,94,o),
(310,94,cs),
(270,94,ls),
(199,94,o),
(140,155,o),
(140,228,cs),
(140,351,ls),
(140,424,o),
(199,485,o),
(270,485,cs),
(310,485,ls),
(338,485,o),
(366,478,o),
(391,451,c),
(479,505,l),
(438,558,o),
(377,590,o),
(310,590,cs),
(270,590,ls),
(142,590,o),
(40,481,o),
(40,351,cs),
(40,228,ls),
(40,98,o),
(142,-11,o),
(270,-11,c)
);
}
);
width = 519;
}
);
unicode = 99;
},
{
color = 3;
glyphname = d;
kernLeft = "rounded-low";
layers = (
{
anchors = (
{
name = bottom;
pos = (296,0);
},
{
name = center;
pos = (296,291);
},
{
name = top;
pos = (296,800);
},
{
name = topright;
pos = (581,582);
}
);
layerId = "63F83B90-CAEF-434E-8639-9EC66952CC6B";
shapes = (
{
closed = 1;
nodes = (
(304,-7,ls),
(351,-7,o),
(384,15,o),
(403,35,c),
(403,0,l),
(561,0,l),
(561,800,l),
(403,800,l),
(403,568,l),
(382,579,o),
(361,586,o),
(341,586,cs),
(300,586,ls),
(156,586,o),
(40,470,o),
(40,327,cs),
(40,252,ls),
(40,109,o),
(144,-7,o),
(288,-7,cs)
);
},
{
closed = 1;
nodes = (
(198,326,ls),
(198,382,o),
(243,428,o),
(299,428,cs),
(340,428,ls),
(374,428,o),
(401,400,o),
(401,367,c),
(401,252,l),
(401,196,o),
(376,151,o),
(299,151,cs),
(243,151,o),
(198,196,o),
(198,252,cs)
);
}
);
width = 611;
},
{
anchors = (
{
name = bottom;
pos = (305,0);
},
{
name = center;
pos = (305,291);
},
{
name = top;
pos = (305,970);
},
{
name = topright;
pos = (589,582);
}
);
layerId = "F01B58DE-C728-4329-B3AC-16E1FFD45204";
shapes = (
{
closed = 1;
nodes = (
(297,-8,ls),
(372.163,-8,o),
(420.398,16.375,o),
(453,55.731,c),
(453,0,l),
(553,0,l),
(553,800,l),
(453,800,l),
(453,549.307,l),
(425.322,572.639,o),
(389.459,587,o),
(343,587,cs),
(296,587,ls),
(154,587,o),
(40,473,o),
(40,332,cs),
(40,247,ls),
(40,106,o),
(154,-8,o),
(296,-8,cs)
);
},
{
closed = 1;
nodes = (
(140,332,ls),
(140,417,o),
(211,487,o),
(296,487,cs),
(343,487,ls),
(404,487,o),
(452,439,o),
(452,378,cs),
(452,247,ls),
(452,162,o),
(393,92,o),
(296,92,cs),
(211,92,o),
(140,162,o),
(140,247,cs)
);
}
);
userData = {
assembly = "PUSHW[ ]	/* 1 value pushed */
0 
CALL[ ]	/* CallFunction */
SVTCA[0]	/* SetFreedomAndProjectionVectorToAxis */
PUSHW[ ]	/* 1 value pushed */
0 
RCVT[ ]	/* ReadCVT */
IF[ ]	/* If */
PUSHW[ ]	/* 1 value pushed */
13 
MDAP[1]	/* MoveDirectAbsPt */
ELSE[ ]	/* Else */
PUSHW[ ]	/* 2 values pushed */
13 3 
MIAP[0]	/* MoveIndirectAbsPt */
EIF[ ]	/* EndIf */
PUSHW[ ]	/* 1 value pushed */
0 
RCVT[ ]	/* ReadCVT */
IF[ ]	/* If */
PUSHW[ ]	/* 1 value pushed */
18 
MDAP[1]	/* MoveDirectAbsPt */
ELSE[ ]	/* Else */
PUSHW[ ]	/* 2 values pushed */
18 3 
MIAP[0]	/* MoveIndirectAbsPt */
EIF[ ]	/* EndIf */
IUP[0]	/* InterpolateUntPts */
IUP[1]	/* InterpolateUntPts */";
};
width = 603;
}
);
unicode = 100;
},
{
color = 4;
glyphname = e;
kernLeft = "rounded-low";
layers = (
{
anchors = (
{
name = bottom;
pos = (-291,0);
},
{
name = ogonek;
pos = (-43,10);
},
{
name = top;
pos = (-291,582);
}
);
layerId = "63F83B90-CAEF-434E-8639-9EC66952CC6B";
shapes = (
{
closed = 1;
nodes = (
(406.89,162.725,o),
(391,130,o),
(342,130,cs),
(325,130,o),
(312,130,o),
(298,130,cs),
(214,130,o),
(197,205,o),
(197,241,cs),
(197,252,o),
(197,304,o),
(197,328,cs),
(197,376,o),
(221,435,o),
(297,435,cs),
(308,435,o),
(323,435,o),
(329,435,cs),
(416,435,o),
(423,358.798,o),
(423,246,c),
(583,246,l),
(583,427.002,o),
(510,584,o),
(329,584,cs),
(323,584,o),
(308,584,o),
(297,584,cs),
(122.566,584,o),
(40,428.908,o),
(40,328,cs),
(40,304,o),
(40,252,o),
(40,241,cs),
(40,145.153,o),
(123,-15,o),
(296.438,-17,cs),
(312,-17,o),
(324.788,-17,o),
(342,-17,cs),
(454.6,-17,o),
(523.439,47.631,o),
(551.639,92.281,c),
(416.361,177.719,l)
);
},
{
closed = 1;
nodes = (
(123,346,l),
(123,246,l),
(531,246,l),
(531,346,l)
);
}
);
width = 623;
},
{
anchors = (
{
name = bottom;
pos = (1502,0);
},
{
name = ogonek;
pos = (1732,10);
},
{
name = top;
pos = (1502,582);
}
);
layerId = "F01B58DE-C728-4329-B3AC-16E1FFD45204";
shapes = (
{
closed = 1;
nodes = (
(466.85,160.617,o),
(427,82,o),
(352,82,cs),
(335,82,o),
(316,82,o),
(295,82,cs),
(153,82,o),
(139,225,o),
(138,245,cs),
(136,283,o),
(136,308,o),
(138,332,cs),
(143,390,o),
(180,497,o),
(295,497,cs),
(306,497,o),
(321,497,o),
(327,497,cs),
(486,497,o),
(475,300.331,o),
(475,266,c),
(575,266,l),
(575,297.869,o),
(588.315,592,o),
(327,592,cs),
(321,592,o),
(306,592,o),
(295,592,cs),
(112.771,592,o),
(40,421.303,o),
(40,332,cs),
(40,308,o),
(40,256,o),
(40,245,cs),
(40,218.199,o),
(62,-13,o),
(295.134,-13,cs),
(316,-13,o),
(335,-13,o),
(352,-13,cs),
(488.845,-13,o),
(556.374,115.54,o),
(566.082,138.597,c),
(473.918,177.403,l)
);
},
{
closed = 1;
nodes = (
(96,346,l),
(96,266,l),
(504,266,l),
(504,346,l)
);
}
);
width = 615;
}
);
unicode = 101;
},
{
color = 4;
glyphname = f;
layers = (
{
anchors = (
{
name = bottom;
pos = (219,0);
},
{
name = top;
pos = (219,970);
}
);
layerId = "63F83B90-CAEF-434E-8639-9EC66952CC6B";
shapes = (
{
closed = 1;
nodes = (
(272,0,l),
(272,577,l),
(272,664,o),
(290,653,o),
(400,653,c),
(407,653,l),
(407,800,l),
(400,800,l),
(194,800,o),
(114,806,o),
(117,572,c),
(117,0,l)
);
},
{
closed = 1;
nodes = (
(394,467,l),
(394,582,l),
(40,582,l),
(40,467,l)
);
}
);
width = 437;
},
{
anchors = (
{
name = bottom;
pos = (219,0);
},
{
name = top;
pos = (219,970);
}
);
layerId = "F01B58DE-C728-4329-B3AC-16E1FFD45204";
shapes = (
{
closed = 1;
nodes = (
(221,0,l),
(221,623,l),
(221,707,o),
(278,699,o),
(380,699,c),
(384,699,l),
(384,800,l),
(380,800,l),
(223,800,o),
(117,806,o),
(117,572,c),
(117,0,l)
);
},
{
closed = 1;
nodes = (
(364,497,l),
(364,582,l),
(40,582,l),
(40,497,l)
);
}
);
width = 424;
}
);
unicode = 102;
},
{
color = 4;
glyphname = g;
kernLeft = "rounded-low";
layers = (
{
anchors = (
{
name = bottom;
pos = (314,-260);
},
{
name = top;
pos = (314,582);
}
);
layerId = "63F83B90-CAEF-434E-8639-9EC66952CC6B";
shapes = (
{
closed = 1;
nodes = (
(467,-235,o),
(559,-127,o),
(559,25,c),
(559,582,l),
(401,582,l),
(401,19,l),
(401,18,o),
(402,-37,o),
(371,-62,cs),
(311,-109,o),
(224,-75,o),
(167,-31,c),
(83,-146,l),
(136,-198,o),
(228,-235,o),
(311,-235,c)
);
},
{
closed = 1;
nodes = (
(303,-7,ls),
(426,-7,o),
(522,115,o),
(547,240,c),
(552,263,o),
(549,248,o),
(552,281,c),
(562,352,o),
(461,585,o),
(330,585,cs),
(289,585,ls),
(146,585,o),
(40,469,o),
(40,326,cs),
(40,252,ls),
(40,109,o),
(151,-7,o),
(296,-7,cs)
);
},
{
closed = 1;
nodes = (
(243,151,o),
(198,196,o),
(198,252,cs),
(198,326,ls),
(198,382,o),
(243,428,o),
(299,428,cs),
(340,428,ls),
(374,428,o),
(401,400,o),
(401,367,c),
(401,252,l),
(401,196,o),
(376,151,o),
(299,151,cs)
);
}
);
width = 609;
},
{
anchors = (
{
name = bottom;
pos = (295,-260);
},
{
name = top;
pos = (295,582);
}
);
layerId = "F01B58DE-C728-4329-B3AC-16E1FFD45204";
shapes = (
{
closed = 1;
nodes = (
(441,-240,o),
(526,-141,o),
(526,-5,cs),
(526,582,l),
(425,582,l),
(425,-9,ls),
(425,-84,o),
(381,-145,o),
(292,-145,cs),
(244,-145,o),
(198,-124,o),
(159,-99,c),
(107,-172,l),
(159,-215,o),
(236,-240,o),
(301,-240,cs)
);
},
{
closed = 1;
nodes = (
(310,-7,ls),
(370,-7,o),
(430,27,o),
(468,81,cs),
(491,114,o),
(492,88,o),
(510,281,c),
(510,402,o),
(474,585,o),
(350,585,cs),
(299,585,ls),
(156,585,o),
(40,469,o),
(40,326,cs),
(40,252,ls),
(40,109,o),
(142,-7,o),
(287,-7,cs)
);
},
{
closed = 1;
nodes = (
(201,98,o),
(141,159,o),
(141,235,cs),
(141,336,ls),
(141,413,o),
(202,476,o),
(276,476,cs),
(341,476,ls),
(387,476,o),
(423,438,o),
(423,392,c),
(423,235,l),
(423,159,o),
(362,98,o),
(278,98,cs)
);
}
);
width = 576;
}
);
unicode = 103;
},
{
color = 4;
glyphname = h;
layers = (
{
anchors = (
{
name = bottom;
pos = (304,0);
},
{
name = center;
pos = (304,485);
},
{
name = top;
pos = (304,970);
}
);
layerId = "63F83B90-CAEF-434E-8639-9EC66952CC6B";
shapes = (
{
closed = 1;
nodes = (
(568,0,l),
(568,364,l),
(568,485,o),
(470,582,o),
(350,582,c),
(291,582,l),
(217,582,o),
(155,516,o),
(116,449,c),
(69,338,l),
(207,294,l),
(207,338,ls),
(207,382,o),
(242,425,o),
(295,425,cs),
(320,425,l),
(368,425,o),
(411,394,o),
(411,332,c),
(410,0,l)
);
},
{
closed = 1;
nodes = (
(207,0,l),
(207,800,l),
(50,800,l),
(50,0,l)
);
}
);
width = 608;
},
{
anchors = (
{
name = bottom;
pos = (263,0);
},
{
name = center;
pos = (263,485);
},
{
name = top;
pos = (263,970);
}
);
layerId = "F01B58DE-C728-4329-B3AC-16E1FFD45204";
shapes = (
{
closed = 1;
nodes = (
(559,0,l),
(559,374,l),
(559,489,o),
(466,582,o),
(351,582,c),
(284,582,l),
(119,582,o),
(110,452,o),
(80,371,c),
(102,325,l),
(149,295,l),
(149,345,l),
(149,415,o),
(209,483,o),
(294,483,c),
(322,483,l),
(398,483,o),
(460,435,o),
(460,338,c),
(459,0,l)
);
},
{
closed = 1;
nodes = (
(149,0,l),
(149,830,l),
(50,830,l),
(50,0,l)
);
}
);
width = 599;
}
);
unicode = 104;
},
{
color = 4;
glyphname = i;
layers = (
{
anchors = (
{
name = bottom;
pos = (143,0);
}
);
layerId = "63F83B90-CAEF-434E-8639-9EC66952CC6B";
shapes = (
{
closed = 1;
nodes = (
(195,642,o),
(236,683,o),
(236,735,c),
(236,786,o),
(195,828,o),
(143,828,c),
(91,828,o),
(50,786,o),
(50,735,c),
(50,683,o),
(91,642,o),
(143,642,c)
);
},
{
pos = (14,0);
ref = idotless;
}
);
width = 286;
},
{
anchors = (
{
name = bottom;
pos = (115,0);
}
);
layerId = "F01B58DE-C728-4329-B3AC-16E1FFD45204";
shapes = (
{
closed = 1;
nodes = (
(138,688,o),
(166,716,o),
(166,751,cs),
(166,785,o),
(138,813,o),
(103,813,cs),
(69,813,o),
(41,785,o),
(41,751,cs),
(41,716,o),
(69,688,o),
(103,688,cs)
);
},
{
ref = idotless;
}
);
userData = {
assembly = "PUSHW[ ]	/* 1 value pushed */
0 
CALL[ ]	/* CallFunction */
SVTCA[0]	/* SetFreedomAndProjectionVectorToAxis */
PUSHW[ ]	/* 1 value pushed */
0 
RCVT[ ]	/* ReadCVT */
IF[ ]	/* If */
PUSHW[ ]	/* 1 value pushed */
2 
MDAP[1]	/* MoveDirectAbsPt */
ELSE[ ]	/* Else */
PUSHW[ ]	/* 2 values pushed */
2 3 
MIAP[0]	/* MoveIndirectAbsPt */
EIF[ ]	/* EndIf */
IUP[0]	/* InterpolateUntPts */
IUP[1]	/* InterpolateUntPts */";
};
width = 230;
}
);
unicode = 105;
},
{
color = 4;
glyphname = idotless;
layers = (
{
anchors = (
{
name = bottom;
pos = (129,0);
},
{
name = ogonek;
pos = (232,10);
},
{
name = top;
pos = (129,582);
}
);
layerId = "63F83B90-CAEF-434E-8639-9EC66952CC6B";
shapes = (
{
closed = 1;
nodes = (
(208,0,l),
(208,582,l),
(50,582,l),
(50,0,l)
);
}
);
width = 258;
},
{
anchors = (
{
name = bottom;
pos = (101,0);
},
{
name = ogonek;
pos = (182,10);
},
{
name = top;
pos = (101,582);
}
);
layerId = "F01B58DE-C728-4329-B3AC-16E1FFD45204";
shapes = (
{
closed = 1;
nodes = (
(152,0,l),
(152,582,l),
(50,582,l),
(50,0,l)
);
}
);
width = 202;
}
);
unicode = 305;
},
{
color = 4;
glyphname = j;
layers = (
{
layerId = "63F83B90-CAEF-434E-8639-9EC66952CC6B";
shapes = (
{
closed = 1;
nodes = (
(310,642,o),
(351,683,o),
(351,735,c),
(351,786,o),
(310,828,o),
(258,828,c),
(206,828,o),
(165,786,o),
(165,735,c),
(165,683,o),
(206,642,o),
(258,642,c)
);
},
{
ref = jdotless;
}
);
width = 401;
},
{
layerId = "F01B58DE-C728-4329-B3AC-16E1FFD45204";
shapes = (
{
closed = 1;
nodes = (
(267,688,o),
(295,716,o),
(295,751,cs),
(295,785,o),
(267,813,o),
(232,813,cs),
(198,813,o),
(170,785,o),
(170,751,cs),
(170,716,o),
(198,688,o),
(232,688,cs)
);
},
{
ref = jdotless;
}
);
width = 335;
}
);
unicode = 106;
},
{
color = 4;
glyphname = jdotless;
layers = (
{
anchors = (
{
name = bottom;
pos = (194,-260);
},
{
name = top;
pos = (194,582);
}
);
layerId = "63F83B90-CAEF-434E-8639-9EC66952CC6B";
shapes = (
{
closed = 1;
nodes = (
(201,-209,o),
(337,-133,o),
(337,36,c),
(337,582,l),
(179,582,l),
(179,36,l),
(179,-32,o),
(118,-55,o),
(30,-55,c),
(30,-212,l)
);
}
);
width = 387;
},
{
anchors = (
{
name = bottom;
pos = (280,-260);
},
{
name = top;
pos = (280,582);
}
);
layerId = "F01B58DE-C728-4329-B3AC-16E1FFD45204";
shapes = (
{
closed = 1;
nodes = (
(175,-202,o),
(285,-131,o),
(285,18,cs),
(285,582,l),
(184,582,l),
(184,18,ls),
(184,-71,o),
(114,-101,o),
(30,-110,c),
(30,-213,l)
);
}
);
width = 335;
}
);
unicode = 567;
},
{
color = 4;
glyphname = k;
layers = (
{
anchors = (
{
name = bottom;
pos = (350,0);
},
{
name = top;
pos = (350,970);
}
);
layerId = "63F83B90-CAEF-434E-8639-9EC66952CC6B";
shapes = (
{
closed = 1;
nodes = (
(596,582,l),
(375,582,l),
(76,306,l),
(181,190,l)
);
},
{
closed = 1;
nodes = (
(207,0,l),
(207,800,l),
(50,800,l),
(50,0,l)
);
},
{
closed = 1;
nodes = (
(601,0,l),
(293,417,l),
(167,324,l),
(406,0,l)
);
}
);
width = 641;
},
{
anchors = (
{
name = bottom;
pos = (264,0);
},
{
name = top;
pos = (264,970);
}
);
layerId = "F01B58DE-C728-4329-B3AC-16E1FFD45204";
shapes = (
{
closed = 1;
nodes = (
(511,582,l),
(375,582,l),
(75,306,l),
(141,233,l)
);
},
{
closed = 1;
nodes = (
(149,0,l),
(149,800,l),
(50,800,l),
(50,0,l)
);
},
{
closed = 1;
nodes = (
(537,0,l),
(258,379,l),
(179,321,l),
(415,0,l)
);
}
);
userData = {
assembly = "PUSHW[ ]	/* 1 value pushed */
0 
CALL[ ]	/* CallFunction */
SVTCA[0]	/* SetFreedomAndProjectionVectorToAxis */
PUSHW[ ]	/* 1 value pushed */
0 
RCVT[ ]	/* ReadCVT */
IF[ ]	/* If */
PUSHW[ ]	/* 1 value pushed */
0 
MDAP[1]	/* MoveDirectAbsPt */
ELSE[ ]	/* Else */
PUSHW[ ]	/* 2 values pushed */
0 3 
MIAP[0]	/* MoveIndirectAbsPt */
EIF[ ]	/* EndIf */
PUSHW[ ]	/* 1 value pushed */
0 
RCVT[ ]	/* ReadCVT */
IF[ ]	/* If */
PUSHW[ ]	/* 1 value pushed */
7 
MDAP[1]	/* MoveDirectAbsPt */
ELSE[ ]	/* Else */
PUSHW[ ]	/* 2 values pushed */
7 3 
MIAP[0]	/* MoveIndirectAbsPt */
EIF[ ]	/* EndIf */
IUP[0]	/* InterpolateUntPts */
IUP[1]	/* InterpolateUntPts */";
};
width = 577;
}
);
unicode = 107;
},
{
color = 4;
glyphname = l;
layers = (
{
anchors = (
{
name = bottom;
pos = (190,0);
},
{
name = center;
pos = (190,485);
},
{
name = top;
pos = (136,800);
},
{
name = topright;
pos = (360,800);
}
);
layerId = "63F83B90-CAEF-434E-8639-9EC66952CC6B";
shapes = (
{
closed = 1;
nodes = (
(340,0,l),
(340,147,l),
(333,147,l),
(223,147,o),
(205,146,o),
(205,223,c),
(205,800,l),
(50,800,l),
(50,228,l),
(50,41,o),
(82,0,o),
(223,0,c)
);
}
);
width = 380;
},
{
anchors = (
{
name = bottom;
pos = (166,0);
},
{
name = center;
pos = (166,485);
},
{
name = top;
pos = (166,970);
},
{
name = topright;
pos = (311,970);
}
);
layerId = "F01B58DE-C728-4329-B3AC-16E1FFD45204";
shapes = (
{
closed = 1;
nodes = (
(291,0,l),
(290,88,l),
(253,88,l),
(171,88,o),
(146,89,o),
(146,214,c),
(146,800,l),
(50,800,l),
(50,220,l),
(50,40,o),
(79,0,o),
(207,0,c)
);
}
);
userData = {
assembly = "PUSHW[ ]	/* 1 value pushed */
0 
CALL[ ]	/* CallFunction */
SVTCA[0]	/* SetFreedomAndProjectionVectorToAxis */
PUSHW[ ]	/* 1 value pushed */
0 
RCVT[ ]	/* ReadCVT */
IF[ ]	/* If */
PUSHW[ ]	/* 1 value pushed */
1 
MDAP[1]	/* MoveDirectAbsPt */
ELSE[ ]	/* Else */
PUSHW[ ]	/* 2 values pushed */
1 3 
MIAP[0]	/* MoveIndirectAbsPt */
EIF[ ]	/* EndIf */
IUP[0]	/* InterpolateUntPts */
IUP[1]	/* InterpolateUntPts */";
};
width = 331;
}
);
unicode = 108;
},
{
color = 4;
glyphname = m;
layers = (
{
anchors = (
{
name = bottom;
pos = (477,0);
},
{
name = top;
pos = (477,582);
}
);
layerId = "63F83B90-CAEF-434E-8639-9EC66952CC6B";
shapes = (
{
closed = 1;
nodes = (
(208,0,l),
(208,357,l),
(208,411,o),
(254,424,o),
(296,424,cs),
(330,424,l),
(377,424,o),
(403,390,o),
(403,357,cs),
(402,0,l),
(561,0,l),
(561,357,l),
(561,411,o),
(606,424,o),
(649,424,cs),
(683,424,l),
(730,424,o),
(755,390,o),
(755,357,cs),
(755,0,l),
(913,0,l),
(913,363,ls),
(913,484,o),
(815,582,o),
(694,582,cs),
(645,582,ls),
(591,582,o),
(542,554,o),
(502,512,c),
(462,555,o),
(405,582,o),
(342,582,cs),
(292,582,ls),
(260,582,o),
(227,569,o),
(208,549,c),
(208,582,l),
(50,582,l),
(50,0,l)
);
}
);
width = 953;
},
{
anchors = (
{
name = bottom;
pos = (496,0);
},
{
name = top;
pos = (496,582);
}
);
layerId = "F01B58DE-C728-4329-B3AC-16E1FFD45204";
shapes = (
{
closed = 1;
nodes = (
(150,0,l),
(150,366,l),
(150,460,o),
(223,482,o),
(290,482,c),
(328,482,l),
(408,482,o),
(451,423,o),
(451,366,c),
(450,0,l),
(551,0,l),
(551,366,l),
(551,460,o),
(623,482,o),
(691,482,cs),
(730,482,ls),
(810,482,o),
(852,423,o),
(852,366,c),
(852,0,l),
(952,0,l),
(952,373,l),
(952,489,o),
(858,582,o),
(742,582,cs),
(687,582,ls),
(628,582,o),
(550,543,o),
(524,485,c),
(487,545,o),
(412,582,o),
(342,582,c),
(285,582,l),
(259,582,o),
(174,567,o),
(150,515,c),
(150,582,l),
(50,582,l),
(50,0,l)
);
}
);
width = 992;
}
);
unicode = 109;
},
{
color = 4;
glyphname = n;
layers = (
{
anchors = (
{
name = bottom;
pos = (304,0);
},
{
name = top;
pos = (304,582);
}
);
layerId = "63F83B90-CAEF-434E-8639-9EC66952CC6B";
shapes = (
{
closed = 1;
nodes = (
(207,0,l),
(207,582,l),
(50,582,l),
(50,0,l)
);
},
{
closed = 1;
nodes = (
(207,294,l),
(207,332,ls),
(207,382,o),
(242,425,o),
(295,425,cs),
(320,425,l),
(368,425,o),
(411,394,o),
(411,332,c),
(410,0,l),
(568,0,l),
(568,364,l),
(568,485,o),
(470,582,o),
(350,582,c),
(291,582,l),
(170,582,o),
(90,402,o),
(75,333,c)
);
}
);
width = 608;
},
{
anchors = (
{
name = bottom;
pos = (282,0);
},
{
name = top;
pos = (302,582);
}
);
layerId = "F01B58DE-C728-4329-B3AC-16E1FFD45204";
shapes = (
{
closed = 1;
nodes = (
(149,0,l),
(149,582,l),
(50,582,l),
(50,0,l)
);
},
{
closed = 1;
nodes = (
(149,295,l),
(149,338,l),
(149,416,o),
(204,483,o),
(289,483,c),
(317,483,l),
(393,483,o),
(460,435,o),
(460,338,c),
(459,0,l),
(559,0,l),
(559,374,l),
(559,489,o),
(466,582,o),
(351,582,c),
(284,582,ls),
(114,582,o),
(101,448,o),
(87,366,c)
);
}
);
width = 599;
}
);
unicode = 110;
},
{
color = 4;
glyphname = eng;
layers = (
{
layerId = "63F83B90-CAEF-434E-8639-9EC66952CC6B";
shapes = (
{
closed = 1;
nodes = (
(456,-212,o),
(568,-131,o),
(568,0,cs),
(568,364,ls),
(568,485,o),
(470,582,o),
(350,582,cs),
(291,582,ls),
(260,582,o),
(232,570,o),
(207,552,c),
(207,582,l),
(50,582,l),
(50,0,l),
(207,0,l),
(207,332,ls),
(207,382,o),
(242,425,o),
(295,425,cs),
(321,425,ls),
(369,425,o),
(412,394,o),
(412,332,cs),
(411,15,ls),
(411,-33,o),
(382,-60,o),
(323,-71,c),
(323,-229,l)
);
}
);
width = 608;
},
{
layerId = "F01B58DE-C728-4329-B3AC-16E1FFD45204";
shapes = (
{
closed = 1;
nodes = (
(463,-180,o),
(559,-104,o),
(559,10,c),
(559,374,l),
(559,489,o),
(466,582,o),
(351,582,c),
(284,582,l),
(219,582,o),
(176,565,o),
(149,530,c),
(149,582,l),
(50,582,l),
(50,0,l),
(149,0,l),
(149,338,l),
(149,416,o),
(204,483,o),
(289,483,c),
(318,483,l),
(394,483,o),
(461,435,o),
(461,338,c),
(460,27,l),
(460,-40,o),
(422,-82,o),
(360,-101,c),
(360,-203,l)
);
}
);
width = 599;
}
);
unicode = 331;
},
{
color = 4;
glyphname = o;
kernLeft = "rounded-low";
layers = (
{
anchors = (
{
name = bottom;
pos = (305,0);
},
{
name = center;
pos = (305,291);
},
{
name = ogonek;
pos = (549,10);
},
{
name = top;
pos = (305,582);
},
{
name = topright;
pos = (590,582);
}
);
layerId = "63F83B90-CAEF-434E-8639-9EC66952CC6B";
shapes = (
{
closed = 1;
nodes = (
(321,-14,l),
(464,-14,o),
(580,98,o),
(580,241,c),
(580,331,l),
(580,474,o),
(464,588,o),
(321,588,c),
(299,588,l),
(156,588,o),
(40,474,o),
(40,331,c),
(40,241,l),
(40,98,o),
(156,-14,o),
(299,-14,c)
);
},
{
closed = 1;
nodes = (
(246,144,o),
(198,182,o),
(198,241,c),
(198,331,l),
(198,387,o),
(243,430,o),
(309,430,c),
(378,430,o),
(422,387,o),
(422,331,c),
(422,241,l),
(422,185,o),
(379,144,o),
(309,144,c)
);
}
);
width = 620;
},
{
anchors = (
{
name = bottom;
pos = (308,0);
},
{
name = center;
pos = (308,291);
},
{
name = ogonek;
pos = (554,10);
},
{
name = top;
pos = (308,582);
},
{
name = topright;
pos = (595,582);
}
);
layerId = "F01B58DE-C728-4329-B3AC-16E1FFD45204";
shapes = (
{
closed = 1;
nodes = (
(320,-14,ls),
(461,-14,o),
(575,96,o),
(575,236,cs),
(575,337,ls),
(575,477,o),
(461,590,o),
(320,590,cs),
(295,590,ls),
(154,590,o),
(40,477,o),
(40,337,cs),
(40,236,ls),
(40,96,o),
(154,-14,o),
(295,-14,cs)
);
},
{
closed = 1;
nodes = (
(212,86,o),
(140,145,o),
(140,236,cs),
(140,337,ls),
(140,424,o),
(208,490,o),
(306,490,cs),
(409,490,o),
(475,424,o),
(475,337,cs),
(475,236,ls),
(475,150,o),
(411,86,o),
(306,86,cs)
);
}
);
userData = {
assembly = "PUSHW[ ]	/* 1 value pushed */
0 
CALL[ ]	/* CallFunction */
SVTCA[0]	/* SetFreedomAndProjectionVectorToAxis */
PUSHW[ ]	/* 1 value pushed */
0 
RCVT[ ]	/* ReadCVT */
IF[ ]	/* If */
PUSHW[ ]	/* 1 value pushed */
17 
MDAP[1]	/* MoveDirectAbsPt */
ELSE[ ]	/* Else */
PUSHW[ ]	/* 2 values pushed */
17 3 
MIAP[0]	/* MoveIndirectAbsPt */
EIF[ ]	/* EndIf */
IUP[0]	/* InterpolateUntPts */
IUP[1]	/* InterpolateUntPts */";
};
width = 615;
}
);
unicode = 111;
},
{
color = 4;
glyphname = p;
layers = (
{
anchors = (
{
name = bottom;
pos = (305,0);
},
{
name = top;
pos = (305,582);
}
);
layerId = "63F83B90-CAEF-434E-8639-9EC66952CC6B";
shapes = (
{
closed = 1;
nodes = (
(321,-8,ls),
(464,-8,o),
(570,103,o),
(570,247,cs),
(570,328,ls),
(570,471,o),
(454,585,o),
(311,585,cs),
(309,585,ls),
(273,585,o),
(239,573,o),
(208,555,c),
(208,582,l),
(50,582,l),
(50,-191,l),
(208,-191,l),
(208,11.699,l),
(239.078,-1.047,o),
(273.196,-8,o),
(309,-8,cs)
);
},
{
closed = 1;
nodes = (
(208,328,ls),
(208,381,o),
(250,427,o),
(309,427,cs),
(313,427,ls),
(369,427,o),
(412,384,o),
(412,328,cs),
(412,247,ls),
(412,190,o),
(370,150,o),
(313,150,cs),
(309,150,ls),
(254,150,o),
(208,187,o),
(208,247,cs)
);
}
);
width = 610;
},
{
anchors = (
{
name = bottom;
pos = (283,0);
},
{
name = top;
pos = (283,582);
}
);
layerId = "F01B58DE-C728-4329-B3AC-16E1FFD45204";
shapes = (
{
closed = 1;
nodes = (
(307,-9,ls),
(448,-9,o),
(562,100,o),
(562,241,cs),
(562,333,ls),
(562,473,o),
(448,586,o),
(307,586,cs),
(304,586,ls),
(233.617,586,o),
(184.907,560.887,o),
(150,526.601,c),
(150,582,l),
(50,582,l),
(50,-191,l),
(150,-191,l),
(150,41.722,l),
(193.349,10.338,o),
(246.684,-9,o),
(304,-9,cs)
);
},
{
closed = 1;
nodes = (
(150,333,ls),
(150,420,o),
(218,486,o),
(304,486,cs),
(307,486,ls),
(393,486,o),
(461,420,o),
(461,333,cs),
(461,241,ls),
(461,154,o),
(393,91,o),
(307,91,cs),
(304,91,ls),
(218,91,o),
(150,154,o),
(150,241,cs)
);
}
);
userData = {
assembly = "PUSHW[ ]	/* 1 value pushed */
0 
CALL[ ]	/* CallFunction */
SVTCA[0]	/* SetFreedomAndProjectionVectorToAxis */
PUSHW[ ]	/* 1 value pushed */
0 
RCVT[ ]	/* ReadCVT */
IF[ ]	/* If */
PUSHW[ ]	/* 1 value pushed */
16 
MDAP[1]	/* MoveDirectAbsPt */
ELSE[ ]	/* Else */
PUSHW[ ]	/* 2 values pushed */
16 3 
MIAP[0]	/* MoveIndirectAbsPt */
EIF[ ]	/* EndIf */
IUP[0]	/* InterpolateUntPts */
IUP[1]	/* InterpolateUntPts */";
};
width = 602;
}
);
unicode = 112;
},
{
color = 4;
glyphname = thorn;
layers = (
{
layerId = "63F83B90-CAEF-434E-8639-9EC66952CC6B";
shapes = (
{
closed = 1;
nodes = (
(311,-10,l),
(454,-10,o),
(570,102,o),
(570,246,c),
(570,327,l),
(570,470,o),
(454,584,o),
(311,584,c),
(309,584,l),
(220,584,o),
(142,513,o),
(95,446,cs),
(66,405,o),
(60,381,o),
(60,327,c),
(60,246,l),
(60,181,o),
(74,122,o),
(113,77,cs),
(160,22,o),
(231,-10,o),
(309,-10,c)
);
},
{
closed = 1;
nodes = (
(254,149,o),
(208,186,o),
(208,246,c),
(208,327,l),
(208,380,o),
(250,426,o),
(309,426,c),
(311,426,l),
(367,426,o),
(412,383,o),
(412,327,c),
(412,246,l),
(412,189,o),
(368,149,o),
(311,149,c),
(309,149,l)
);
},
{
closed = 1;
nodes = (
(208,-100,l),
(208,674,l),
(50,674,l),
(50,-100,l)
);
}
);
width = 600;
},
{
layerId = "F01B58DE-C728-4329-B3AC-16E1FFD45204";
shapes = (
{
closed = 1;
nodes = (
(307,-10,l),
(448,-10,o),
(562,99,o),
(562,240,c),
(562,332,l),
(562,472,o),
(448,585,o),
(307,585,c),
(304,585,l),
(184,585,o),
(127,512,o),
(94,445,c),
(68,406,o),
(61,383,o),
(61,332,c),
(61,240,l),
(61,176,o),
(76,117,o),
(111,75,c),
(159,24,o),
(228,-10,o),
(304,-10,c)
);
},
{
closed = 1;
nodes = (
(218,90,o),
(150,153,o),
(150,240,c),
(150,332,l),
(150,419,o),
(218,485,o),
(304,485,c),
(307,485,l),
(393,485,o),
(461,419,o),
(461,332,c),
(461,240,l),
(461,153,o),
(393,90,o),
(307,90,c),
(304,90,l)
);
},
{
closed = 1;
nodes = (
(150,-99,l),
(150,674,l),
(50,674,l),
(50,-99,l)
);
}
);
userData = {
assembly = "PUSHW[ ]	/* 1 value pushed */
0 
CALL[ ]	/* CallFunction */
SVTCA[0]	/* SetFreedomAndProjectionVectorToAxis */
PUSHW[ ]	/* 1 value pushed */
0 
RCVT[ ]	/* ReadCVT */
IF[ ]	/* If */
PUSHW[ ]	/* 1 value pushed */
16 
MDAP[1]	/* MoveDirectAbsPt */
ELSE[ ]	/* Else */
PUSHW[ ]	/* 2 values pushed */
16 3 
MIAP[0]	/* MoveIndirectAbsPt */
EIF[ ]	/* EndIf */
IUP[0]	/* InterpolateUntPts */
IUP[1]	/* InterpolateUntPts */";
};
width = 592;
}
);
unicode = 254;
},
{
color = 4;
glyphname = r;
layers = (
{
anchors = (
{
name = bottom;
pos = (251,0);
},
{
name = top;
pos = (251,582);
}
);
layerId = "63F83B90-CAEF-434E-8639-9EC66952CC6B";
shapes = (
{
closed = 1;
nodes = (
(207,0,l),
(207,326,ls),
(207,442,o),
(351,435,o),
(373,425,c),
(397,582,l),
(381,585,o),
(369,587,o),
(351,587,cs),
(271,587,o),
(229,571,o),
(207,546,c),
(207,582,l),
(50,582,l),
(50,0,l)
);
}
);
width = 427;
},
{
anchors = (
{
name = bottom;
pos = (186,0);
},
{
name = top;
pos = (186,582);
}
);
layerId = "F01B58DE-C728-4329-B3AC-16E1FFD45204";
shapes = (
{
closed = 1;
nodes = (
(149,0,l),
(149,331,ls),
(149,406,o),
(196,497,o),
(327,485,c),
(341,583,l),
(329,586,o),
(316,586,o),
(304,586,c),
(227,586,o),
(181,565,o),
(149,531.559,c),
(149,582,l),
(50,582,l),
(50,0,l)
);
}
);
width = 378;
}
);
unicode = 114;
},
{
color = 5;
glyphname = s;
kernLeft = "rounded-low";
layers = (
{
anchors = (
{
name = bottom;
pos = (282,0);
},
{
name = top;
pos = (282,582);
}
);
layerId = "63F83B90-CAEF-434E-8639-9EC66952CC6B";
shapes = (
{
closed = 1;
nodes = (
(408,-13,o),
(520,56,o),
(524,177,cs),
(528,286,o),
(461,339,o),
(350,356,cs),
(320,360,o),
(218,371,o),
(218,403,cs),
(218,446,o),
(345,436,o),
(399,408,c),
(481,539,l),
(313,647,o),
(57,596,o),
(57,404,cs),
(57,283,o),
(129,228,o),
(250,215,cs),
(279,212,o),
(364,208,o),
(364,177,cs),
(364,151,o),
(322,141,o),
(273,143,cs),
(214,145,o),
(145,164,o),
(121,191,c),
(40,62,l),
(104,11,o),
(194,-13,o),
(281,-13,c)
);
}
);
width = 564;
},
{
anchors = (
{
name = bottom;
pos = (258,0);
},
{
name = top;
pos = (258,582);
}
);
layerId = "F01B58DE-C728-4329-B3AC-16E1FFD45204";
shapes = (
{
closed = 1;
nodes = (
(379,-12,o),
(499,52,o),
(499,164,cs),
(499,267,o),
(436,318,o),
(327,334,c),
(256,347,o),
(155,349,o),
(155,420,c),
(157,497,o),
(285,511,o),
(386,468,c),
(441,551,l),
(291,633,o),
(56,592,o),
(52,423,c),
(50,316,o),
(119,262,o),
(233,247,c),
(296,238,o),
(397,229,o),
(397,165,cs),
(397,106,o),
(334,87,o),
(265,88,cs),
(207,89,o),
(139,104,o),
(91,130,c),
(40,50,l),
(103,10,o),
(185,-9,o),
(260,-10,cs)
);
}
);
userData = {
assembly = "PUSHW[ ]	/* 1 value pushed */
0 
CALL[ ]	/* CallFunction */
SVTCA[0]	/* SetFreedomAndProjectionVectorToAxis */
PUSHW[ ]	/* 1 value pushed */
0 
RCVT[ ]	/* ReadCVT */
IF[ ]	/* If */
PUSHW[ ]	/* 1 value pushed */
61 
MDAP[1]	/* MoveDirectAbsPt */
ELSE[ ]	/* Else */
PUSHW[ ]	/* 2 values pushed */
61 3 
MIAP[0]	/* MoveIndirectAbsPt */
EIF[ ]	/* EndIf */
IUP[0]	/* InterpolateUntPts */
IUP[1]	/* InterpolateUntPts */";
};
width = 539;
}
);
unicode = 115;
},
{
color = 5;
glyphname = germandbls;
layers = (
{
anchors = (
{
name = bottom;
pos = (373,0);
},
{
name = top;
pos = (373,800);
}
);
layerId = "63F83B90-CAEF-434E-8639-9EC66952CC6B";
shapes = (
{
closed = 1;
nodes = (
(208,0,l),
(208,643,l),
(472,643,ls),
(508,643,o),
(538,610,o),
(538,570,cs),
(538,520,o),
(507,484,o),
(472,484,cs),
(329,484,l),
(329,346,l),
(458,346,ls),
(510,346,o),
(547,309,o),
(547,260,cs),
(547,199,o),
(509,158,o),
(458,158,cs),
(330,158,l),
(330,0,l),
(458,0,ls),
(595,0,o),
(705,107,o),
(705,246,cs),
(705,312,o),
(680,371,o),
(640,415,c),
(675,457,o),
(696,511,o),
(696,570,cs),
(696,697,o),
(596,801,o),
(472,801,cs),
(50,801,l),
(50,0,l)
);
}
);
width = 745;
},
{
anchors = (
{
name = bottom;
pos = (333,0);
},
{
name = top;
pos = (318,797);
}
);
layerId = "F01B58DE-C728-4329-B3AC-16E1FFD45204";
shapes = (
{
closed = 1;
nodes = (
(151,2,l),
(151,695,l),
(435,695,ls),
(495,695,o),
(534,641,o),
(534,584,cs),
(534,526,o),
(496,465,o),
(435,465,cs),
(258,465,l),
(258,368,l),
(420,368,ls),
(492,368,o),
(543,314,o),
(543,238,cs),
(543,160,o),
(490,106,o),
(420,106,cs),
(259,106,l),
(259,2,l),
(420,2,ls),
(546,2,o),
(645,105,o),
(645,238,cs),
(645,311,o),
(619,360,o),
(566,417,c),
(614,472,o),
(635,515,o),
(635,584,cs),
(635,702,o),
(547,800,o),
(435,800,cs),
(50,800,l),
(50,2,l)
);
}
);
width = 685;
}
);
unicode = 223;
},
{
color = 4;
glyphname = t;
layers = (
{
anchors = (
{
name = bottom;
pos = (232,0);
},
{
name = center;
pos = (232,291);
},
{
name = top;
pos = (232,582);
},
{
name = topright;
pos = (444,582);
}
);
guides = (
{
angle = 270;
pos = (404,526);
}
);
layerId = "63F83B90-CAEF-434E-8639-9EC66952CC6B";
shapes = (
{
closed = 1;
nodes = (
(405,-7,l),
(405,120,l),
(388,120,l),
(278,120,o),
(279,129,o),
(279,206,c),
(279,800,l),
(124,800,l),
(124,216,l),
(124,33,o),
(165,-7,o),
(293,-7,c)
);
},
{
closed = 1;
nodes = (
(404,468,l),
(404,583,l),
(40,583,l),
(40,468,l)
);
}
);
width = 445;
},
{
anchors = (
{
name = bottom;
pos = (188,0);
},
{
name = center;
pos = (188,291);
},
{
name = top;
pos = (188,582);
},
{
name = topright;
pos = (375,582);
}
);
guides = (
{
angle = 270;
pos = (324,540);
}
);
layerId = "F01B58DE-C728-4329-B3AC-16E1FFD45204";
shapes = (
{
closed = 1;
nodes = (
(326,-7,l),
(325,76,l),
(316,76,l),
(227,76,o),
(209,82,o),
(209,207,c),
(209,798,l),
(113,798,l),
(113,213,l),
(113,33,o),
(142,-7,o),
(270,-7,c)
);
},
{
closed = 1;
nodes = (
(324,497,l),
(324,582,l),
(40,582,l),
(40,497,l)
);
}
);
userData = {
assembly = "PUSHW[ ]	/* 1 value pushed */
0 
CALL[ ]	/* CallFunction */
SVTCA[0]	/* SetFreedomAndProjectionVectorToAxis */
PUSHW[ ]	/* 1 value pushed */
0 
RCVT[ ]	/* ReadCVT */
IF[ ]	/* If */
PUSHW[ ]	/* 1 value pushed */
15 
MDAP[1]	/* MoveDirectAbsPt */
ELSE[ ]	/* Else */
PUSHW[ ]	/* 2 values pushed */
15 3 
MIAP[0]	/* MoveIndirectAbsPt */
EIF[ ]	/* EndIf */
IUP[0]	/* InterpolateUntPts */
IUP[1]	/* InterpolateUntPts */";
};
width = 366;
}
);
unicode = 116;
},
{
color = 4;
glyphname = u;
kernLeft = "rounded-low";
layers = (
{
anchors = (
{
name = bottom;
pos = (304,0);
},
{
name = ogonek;
pos = (547,10);
},
{
name = top;
pos = (304,582);
},
{
name = topright;
pos = (588,582);
}
);
layerId = "63F83B90-CAEF-434E-8639-9EC66952CC6B";
shapes = (
{
closed = 1;
nodes = (
(401,582,l),
(401,245,ls),
(401,193,o),
(366,150,o),
(313,150,cs),
(288,150,ls),
(240,150,o),
(197,172,o),
(197,236,cs),
(198,582,l),
(40,582,l),
(40,202,ls),
(40,81,o),
(138,-7,o),
(258,-7,cs),
(317,-7,ls),
(350,-7,o),
(378,7,o),
(401,28,c),
(401,0,l),
(558,0,l),
(558,582,l)
);
}
);
width = 608;
},
{
anchors = (
{
name = bottom;
pos = (299,0);
},
{
name = ogonek;
pos = (524,10);
},
{
name = top;
pos = (299,582);
},
{
name = topright;
pos = (560,582);
}
);
layerId = "F01B58DE-C728-4329-B3AC-16E1FFD45204";
shapes = (
{
closed = 1;
nodes = (
(451,582,l),
(451,239,ls),
(451,158,o),
(395,91,o),
(311,91,cs),
(283,91,ls),
(206,91,o),
(139,126,o),
(139,229,cs),
(140,582,l),
(40,582,l),
(40,190,ls),
(40,75,o),
(134,-8,o),
(248,-8,cs),
(316,-8,ls),
(373.753,-8,o),
(419.552,18.224,o),
(451,57.5,c),
(451,0,l),
(550,0,l),
(550,582,l)
);
}
);
userData = {
assembly = "PUSHW[ ]	/* 1 value pushed */
0 
CALL[ ]	/* CallFunction */
SVTCA[0]	/* SetFreedomAndProjectionVectorToAxis */
PUSHW[ ]	/* 1 value pushed */
0 
RCVT[ ]	/* ReadCVT */
IF[ ]	/* If */
PUSHW[ ]	/* 1 value pushed */
15 
MDAP[1]	/* MoveDirectAbsPt */
ELSE[ ]	/* Else */
PUSHW[ ]	/* 2 values pushed */
15 3 
MIAP[0]	/* MoveIndirectAbsPt */
EIF[ ]	/* EndIf */
PUSHW[ ]	/* 1 value pushed */
0 
RCVT[ ]	/* ReadCVT */
IF[ ]	/* If */
PUSHW[ ]	/* 1 value pushed */
20 
MDAP[1]	/* MoveDirectAbsPt */
ELSE[ ]	/* Else */
PUSHW[ ]	/* 2 values pushed */
20 3 
MIAP[0]	/* MoveIndirectAbsPt */
EIF[ ]	/* EndIf */
IUP[0]	/* InterpolateUntPts */
IUP[1]	/* InterpolateUntPts */";
};
width = 600;
}
);
unicode = 117;
},
{
color = 4;
glyphname = v;
layers = (
{
anchors = (
{
name = bottom;
pos = (349,0);
},
{
name = top;
pos = (349,582);
}
);
layerId = "63F83B90-CAEF-434E-8639-9EC66952CC6B";
shapes = (
{
closed = 1;
nodes = (
(658,581,l),
(488,581,l),
(349,190,l),
(210,581,l),
(40,581,l),
(263,0,l),
(435,0,l)
);
}
);
width = 698;
},
{
anchors = (
{
name = bottom;
pos = (314,0);
},
{
name = top;
pos = (314,582);
}
);
layerId = "F01B58DE-C728-4329-B3AC-16E1FFD45204";
shapes = (
{
closed = 1;
nodes = (
(626,581,l),
(520,581,l),
(333,93,l),
(146,581,l),
(40,581,l),
(262,0,l),
(403,0,l)
);
}
);
userData = {
assembly = "PUSHW[ ]	/* 1 value pushed */
0 
CALL[ ]	/* CallFunction */
SVTCA[0]	/* SetFreedomAndProjectionVectorToAxis */
PUSHW[ ]	/* 1 value pushed */
0 
RCVT[ ]	/* ReadCVT */
IF[ ]	/* If */
PUSHW[ ]	/* 1 value pushed */
5 
MDAP[1]	/* MoveDirectAbsPt */
ELSE[ ]	/* Else */
PUSHW[ ]	/* 2 values pushed */
5 3 
MIAP[0]	/* MoveIndirectAbsPt */
EIF[ ]	/* EndIf */
IUP[0]	/* InterpolateUntPts */
IUP[1]	/* InterpolateUntPts */";
};
width = 666;
}
);
unicode = 118;
},
{
color = 4;
glyphname = w;
layers = (
{
anchors = (
{
name = bottom;
pos = (520,0);
},
{
name = top;
pos = (520,586);
}
);
layerId = "63F83B90-CAEF-434E-8639-9EC66952CC6B";
shapes = (
{
closed = 1;
nodes = (
(392,0,l),
(519,361,l),
(647,0,l),
(793,0,l),
(999,581,l),
(833,581,l),
(722,209,l),
(591,581,l),
(438,581,l),
(316,209,l),
(205,581,l),
(40,581,l),
(245,0,l)
);
}
);
width = 1039;
},
{
anchors = (
{
name = bottom;
pos = (482,0);
},
{
name = top;
pos = (482,582);
}
);
layerId = "F01B58DE-C728-4329-B3AC-16E1FFD45204";
shapes = (
{
closed = 1;
nodes = (
(345,0,l),
(514,484,l),
(692,0,l),
(802,0,l),
(997,581,l),
(905,581,l),
(744,108,l),
(577,581,l),
(450,581,l),
(293,108,l),
(132,581,l),
(40,581,l),
(235,0,l)
);
}
);
userData = {
assembly = "PUSHW[ ]	/* 1 value pushed */
0 
CALL[ ]	/* CallFunction */
SVTCA[0]	/* SetFreedomAndProjectionVectorToAxis */
PUSHW[ ]	/* 1 value pushed */
0 
RCVT[ ]	/* ReadCVT */
IF[ ]	/* If */
PUSHW[ ]	/* 1 value pushed */
8 
MDAP[1]	/* MoveDirectAbsPt */
ELSE[ ]	/* Else */
PUSHW[ ]	/* 2 values pushed */
8 3 
MIAP[0]	/* MoveIndirectAbsPt */
EIF[ ]	/* EndIf */
PUSHW[ ]	/* 1 value pushed */
0 
RCVT[ ]	/* ReadCVT */
IF[ ]	/* If */
PUSHW[ ]	/* 1 value pushed */
11 
MDAP[1]	/* MoveDirectAbsPt */
ELSE[ ]	/* Else */
PUSHW[ ]	/* 2 values pushed */
11 3 
MIAP[0]	/* MoveIndirectAbsPt */
EIF[ ]	/* EndIf */
IUP[0]	/* InterpolateUntPts */
IUP[1]	/* InterpolateUntPts */";
};
width = 1037;
}
);
unicode = 119;
},
{
color = 4;
glyphname = x;
layers = (
{
anchors = (
{
name = bottom;
pos = (339,0);
},
{
name = top;
pos = (339,582);
}
);
layerId = "63F83B90-CAEF-434E-8639-9EC66952CC6B";
shapes = (
{
closed = 1;
nodes = (
(235,0,l),
(339,160,l),
(442,0,l),
(634,0,l),
(430,289,l),
(637,582,l),
(445,582,l),
(339,417,l),
(232,582,l),
(40,582,l),
(248,289,l),
(43,0,l)
);
}
);
width = 677;
},
{
anchors = (
{
name = bottom;
pos = (289,0);
},
{
name = top;
pos = (289,582);
}
);
layerId = "F01B58DE-C728-4329-B3AC-16E1FFD45204";
shapes = (
{
closed = 1;
nodes = (
(163,0,l),
(303,214,l),
(441,0,l),
(561,0,l),
(361,289,l),
(564,582,l),
(445,582,l),
(303,363,l),
(159,582,l),
(40,582,l),
(244,289,l),
(43,0,l)
);
}
);
userData = {
assembly = "PUSHW[ ]	/* 1 value pushed */
0 
CALL[ ]	/* CallFunction */
SVTCA[0]	/* SetFreedomAndProjectionVectorToAxis */
PUSHW[ ]	/* 1 value pushed */
0 
RCVT[ ]	/* ReadCVT */
IF[ ]	/* If */
PUSHW[ ]	/* 1 value pushed */
6 
MDAP[1]	/* MoveDirectAbsPt */
ELSE[ ]	/* Else */
PUSHW[ ]	/* 2 values pushed */
6 3 
MIAP[0]	/* MoveIndirectAbsPt */
EIF[ ]	/* EndIf */
PUSHW[ ]	/* 1 value pushed */
0 
RCVT[ ]	/* ReadCVT */
IF[ ]	/* If */
PUSHW[ ]	/* 1 value pushed */
9 
MDAP[1]	/* MoveDirectAbsPt */
ELSE[ ]	/* Else */
PUSHW[ ]	/* 2 values pushed */
9 3 
MIAP[0]	/* MoveIndirectAbsPt */
EIF[ ]	/* EndIf */
IUP[0]	/* InterpolateUntPts */
IUP[1]	/* InterpolateUntPts */";
};
width = 604;
}
);
unicode = 120;
},
{
color = 4;
glyphname = y;
layers = (
{
anchors = (
{
name = bottom;
pos = (343,0);
},
{
name = top;
pos = (343,582);
}
);
layerId = "63F83B90-CAEF-434E-8639-9EC66952CC6B";
shapes = (
{
closed = 1;
nodes = (
(477,583,l),
(362,208,l),
(214,582,l),
(40,582,l),
(287,8,l),
(267,-49,o),
(256,-75,o),
(198,-85,c),
(198,-238,l),
(301,-232,o),
(392,-174,o),
(424,-78,cs),
(645,583,l)
);
}
);
width = 685;
},
{
anchors = (
{
name = bottom;
pos = (313,0);
},
{
name = top;
pos = (313,582);
}
);
layerId = "F01B58DE-C728-4329-B3AC-16E1FFD45204";
shapes = (
{
closed = 1;
nodes = (
(483,583,l),
(339,126,l),
(149,583,l),
(40,583,l),
(291,0,l),
(282,-78,o),
(245,-119,o),
(186,-138,c),
(186,-235,l),
(269,-218,o),
(338,-166,o),
(366,-86,c),
(589,583,l)
);
}
);
width = 629;
}
);
unicode = 121;
},
{
color = 4;
glyphname = z;
layers = (
{
anchors = (
{
name = bottom;
pos = (301,0);
},
{
name = center;
pos = (301,291);
},
{
name = top;
pos = (301,582);
}
);
layerId = "63F83B90-CAEF-434E-8639-9EC66952CC6B";
shapes = (
{
closed = 1;
nodes = (
(562,429,l),
(531,581,l),
(40,152,l),
(77,0,l)
);
},
{
closed = 1;
nodes = (
(562,0,l),
(562,152,l),
(40,152,l),
(40,0,l)
);
},
{
closed = 1;
nodes = (
(562,429,l),
(562,581,l),
(40,581,l),
(40,429,l)
);
}
);
width = 602;
},
{
anchors = (
{
name = bottom;
pos = (290,0);
},
{
name = center;
pos = (290,291);
},
{
name = top;
pos = (290,582);
}
);
layerId = "F01B58DE-C728-4329-B3AC-16E1FFD45204";
shapes = (
{
closed = 1;
nodes = (
(554,472,l),
(516,566,l),
(40,77,l),
(78,-16,l)
);
},
{
closed = 1;
nodes = (
(554,-16,l),
(554,77,l),
(40,77,l),
(40,-16,l)
);
},
{
closed = 1;
nodes = (
(554,472,l),
(554,565,l),
(40,565,l),
(40,472,l)
);
}
);
userData = {
assembly = "PUSHW[ ]	/* 1 value pushed */
0 
CALL[ ]	/* CallFunction */
SVTCA[0]	/* SetFreedomAndProjectionVectorToAxis */
PUSHW[ ]	/* 1 value pushed */
0 
RCVT[ ]	/* ReadCVT */
IF[ ]	/* If */
PUSHW[ ]	/* 1 value pushed */
0 
MDAP[1]	/* MoveDirectAbsPt */
ELSE[ ]	/* Else */
PUSHW[ ]	/* 2 values pushed */
0 3 
MIAP[0]	/* MoveIndirectAbsPt */
EIF[ ]	/* EndIf */
IUP[0]	/* InterpolateUntPts */
IUP[1]	/* InterpolateUntPts */";
};
width = 594;
}
);
unicode = 122;
},
{
color = 5;
glyphname = Delta;
layers = (
{
layerId = "63F83B90-CAEF-434E-8639-9EC66952CC6B";
shapes = (
{
closed = 1;
nodes = (
(853,0,l),
(447,800,l),
(40,0,l)
);
},
{
closed = 1;
nodes = (
(447,481,l),
(596,153,l),
(298,153,l)
);
}
);
width = 893;
},
{
guides = (
{
angle = 90;
pos = (449,-20);
}
);
layerId = "F01B58DE-C728-4329-B3AC-16E1FFD45204";
shapes = (
{
closed = 1;
nodes = (
(858,0,l),
(449,800,l),
(40,0,l)
);
},
{
closed = 1;
nodes = (
(449,592,l),
(692,98,l),
(206,98,l)
);
}
);
width = 898;
}
);
unicode = 916;
},
{
color = 5;
glyphname = Omega;
layers = (
{
layerId = "63F83B90-CAEF-434E-8639-9EC66952CC6B";
shapes = (
{
closed = 1;
nodes = (
(379,1,l),
(379,136,l),
(370,140,o),
(345,151,o),
(320,169,cs),
(307,178,o),
(267,208,o),
(267,256,cs),
(267,447,ls),
(267,553,o),
(343,638,o),
(436,638,cs),
(478,638,ls),
(571,638,o),
(647,553,o),
(647,447,cs),
(647,256,ls),
(647,208,o),
(607,178,o),
(594,169,cs),
(569,151,o),
(544,140,o),
(535,136,c),
(535,1,l),
(884,1,l),
(884,139,l),
(696,139,ls),
(787,139,o),
(805,214,o),
(805,256,cs),
(805,447,ls),
(805,640,o),
(658,796,o),
(478,796,cs),
(436,796,ls),
(256,796,o),
(109,640,o),
(109,447,cs),
(109,256,ls),
(109,214,o),
(127,139,o),
(218,139,cs),
(30,139,l),
(30,1,l)
);
}
);
width = 914;
},
{
layerId = "F01B58DE-C728-4329-B3AC-16E1FFD45204";
shapes = (
{
closed = 1;
nodes = (
(324,0,l),
(324,102,l),
(312,108,o),
(292,118,o),
(273,132,cs),
(260,141,o),
(212,176,o),
(212,235,cs),
(212,426,ls),
(212,543,o),
(296,637,o),
(401,637,cs),
(423,637,ls),
(528,637,o),
(612,543,o),
(612,426,cs),
(612,235,ls),
(612,176,o),
(564,141,o),
(551,132,cs),
(532,118,o),
(512,108,o),
(500,102,c),
(500,0,l),
(789,0,l),
(789,98,l),
(641,98,l),
(716,98,o),
(730,185,o),
(730,225,cs),
(730,426,ls),
(730,611,o),
(595,755,o),
(423,755,cs),
(401,755,ls),
(229,755,o),
(94,611,o),
(94,426,cs),
(94,235,ls),
(94,195,o),
(108,98,o),
(183,98,c),
(35,98,l),
(35,0,l)
);
}
);
width = 824;
}
);
unicode = 937;
},
{
color = 5;
glyphname = mu;
layers = (
{
layerId = "63F83B90-CAEF-434E-8639-9EC66952CC6B";
shapes = (
{
closed = 1;
nodes = (
(199,-105,l),
(198,184,l),
(41,269,l),
(40,-105,l)
);
},
{
pos = (1,0);
ref = u;
}
);
width = 599;
},
{
associatedMasterId = "63F83B90-CAEF-434E-8639-9EC66952CC6B";
layerId = "14225CED-126E-4DE4-8A21-83F8E5FAF17E";
name = Regular;
shapes = (
{
closed = 1;
nodes = (
(40,-85,l),
(109,-85,l),
(109,225,l),
(40,225,l)
);
},
{
ref = u;
}
);
width = 487;
},
{
associatedMasterId = "63F83B90-CAEF-434E-8639-9EC66952CC6B";
layerId = "E1ADDF7C-A343-4E6D-B630-136BDFE64807";
name = Bold;
shapes = (
{
closed = 1;
nodes = (
(40,-85,l),
(128,-85,l),
(128,292,l),
(40,292,l)
);
},
{
ref = u;
}
);
width = 487;
},
{
layerId = "F01B58DE-C728-4329-B3AC-16E1FFD45204";
shapes = (
{
closed = 1;
nodes = (
(138,-87,l),
(138,184,l),
(40,249,l),
(40,-87,l)
);
},
{
ref = u;
}
);
userData = {
assembly = "PUSHW[ ]	/* 1 value pushed */
0 
CALL[ ]	/* CallFunction */
SVTCA[0]	/* SetFreedomAndProjectionVectorToAxis */
PUSHW[ ]	/* 1 value pushed */
0 
RCVT[ ]	/* ReadCVT */
IF[ ]	/* If */
PUSHW[ ]	/* 1 value pushed */
14 
MDAP[1]	/* MoveDirectAbsPt */
ELSE[ ]	/* Else */
PUSHW[ ]	/* 2 values pushed */
14 3 
MIAP[0]	/* MoveIndirectAbsPt */
EIF[ ]	/* EndIf */
PUSHW[ ]	/* 1 value pushed */
0 
RCVT[ ]	/* ReadCVT */
IF[ ]	/* If */
PUSHW[ ]	/* 1 value pushed */
19 
MDAP[1]	/* MoveDirectAbsPt */
ELSE[ ]	/* Else */
PUSHW[ ]	/* 2 values pushed */
19 3 
MIAP[0]	/* MoveIndirectAbsPt */
EIF[ ]	/* EndIf */
PUSHW[ ]	/* 1 value pushed */
0 
RCVT[ ]	/* ReadCVT */
IF[ ]	/* If */
PUSHW[ ]	/* 1 value pushed */
23 
MDAP[1]	/* MoveDirectAbsPt */
ELSE[ ]	/* Else */
PUSHW[ ]	/* 2 values pushed */
23 3 
MIAP[0]	/* MoveIndirectAbsPt */
EIF[ ]	/* EndIf */
IUP[0]	/* InterpolateUntPts */
IUP[1]	/* InterpolateUntPts */";
};
width = 590;
}
);
unicode = 956;
},
{
color = 5;
glyphname = pi;
layers = (
{
layerId = "63F83B90-CAEF-434E-8639-9EC66952CC6B";
shapes = (
{
closed = 1;
nodes = (
(654,59,l),
(602,69,o),
(566,91,o),
(566,145,cs),
(566,438,l),
(623,438,l),
(623,586,l),
(30,586,l),
(30,438,l),
(96,438,l),
(96,0,l),
(255,0,l),
(255,438,l),
(409,438,l),
(409,130,ls),
(409,0,o),
(519,-82,o),
(654,-99,c)
);
}
);
width = 684;
},
{
layerId = "F01B58DE-C728-4329-B3AC-16E1FFD45204";
shapes = (
{
closed = 1;
nodes = (
(584,5,l),
(532,22,o),
(493,56,o),
(493,123,cs),
(493,467,l),
(552,467,l),
(552,561,l),
(30,561,l),
(30,467,l),
(98,467,l),
(98,0,l),
(200,0,l),
(200,467,l),
(393,467,l),
(393,107,ls),
(393,1,o),
(472,-75,o),
(584,-100,c)
);
}
);
width = 614;
}
);
unicode = 960;
},
{
color = 5;
glyphname = zero;
layers = (
{
layerId = "63F83B90-CAEF-434E-8639-9EC66952CC6B";
shapes = (
{
closed = 1;
nodes = (
(353,-6,l),
(504,-6,o),
(626,116,o),
(626,267,c),
(626,534,l),
(626,685,o),
(504,807,o),
(353,807,c),
(313,807,l),
(162,807,o),
(40,685,o),
(40,534,c),
(40,267,l),
(40,116,o),
(162,-6,o),
(313,-6,c)
);
},
{
closed = 1;
nodes = (
(250,152,o),
(198,203,o),
(198,267,c),
(198,534,l),
(198,598,o),
(250,650,o),
(313,650,c),
(353,650,l),
(417,650,o),
(469,598,o),
(469,534,c),
(469,267,l),
(469,203,o),
(417,152,o),
(353,152,c),
(313,152,l)
);
}
);
width = 666;
},
{
layerId = "F01B58DE-C728-4329-B3AC-16E1FFD45204";
shapes = (
{
closed = 1;
nodes = (
(332,-6,ls),
(472.012,-6,o),
(583,110.861,o),
(583,253,cs),
(583,547,l),
(583,689.139,o),
(472.012,806,o),
(332,806,cs),
(291,806,ls),
(152.955,806,o),
(40,688.662,o),
(40,547,cs),
(40,253,ls),
(40,111.338,o),
(152.955,-6,o),
(291,-6,c)
);
},
{
closed = 1;
nodes = (
(208.074,98,o),
(141,166.68,o),
(141,253,cs),
(141,547,ls),
(141,631,o),
(207,703,o),
(291,703,c),
(332,703,ls),
(415,703,o),
(483,632,o),
(483,547,cs),
(483,253,ls),
(483,166.779,o),
(415.034,98,o),
(332,98,cs),
(291,98,l)
);
}
);
width = 623;
}
);
unicode = 48;
},
{
color = 5;
glyphname = one;
layers = (
{
layerId = "63F83B90-CAEF-434E-8639-9EC66952CC6B";
shapes = (
{
closed = 1;
nodes = (
(323,0,l),
(323,800,l),
(166,800,l),
(40,709,l),
(40,514,l),
(166,605,l),
(166,0,l)
);
}
);
width = 373;
},
{
layerId = "F01B58DE-C728-4329-B3AC-16E1FFD45204";
shapes = (
{
closed = 1;
nodes = (
(236,0,l),
(236,800,l),
(120,800,l),
(40,741,l),
(40,612,l),
(136,684,l),
(136,0,l)
);
}
);
userData = {
assembly = "PUSHW[ ]	/* 1 value pushed */
0 
CALL[ ]	/* CallFunction */
SVTCA[0]	/* SetFreedomAndProjectionVectorToAxis */
PUSHW[ ]	/* 1 value pushed */
0 
RCVT[ ]	/* ReadCVT */
IF[ ]	/* If */
PUSHW[ ]	/* 1 value pushed */
6 
MDAP[1]	/* MoveDirectAbsPt */
ELSE[ ]	/* Else */
PUSHW[ ]	/* 2 values pushed */
6 3 
MIAP[0]	/* MoveIndirectAbsPt */
EIF[ ]	/* EndIf */
IUP[0]	/* InterpolateUntPts */
IUP[1]	/* InterpolateUntPts */";
};
width = 286;
}
);
unicode = 49;
},
{
color = 5;
glyphname = two;
layers = (
{
layerId = "63F83B90-CAEF-434E-8639-9EC66952CC6B";
shapes = (
{
closed = 1;
nodes = (
(591,0,l),
(591,158,l),
(237,158,l),
(237,254,o),
(599,254,o),
(599,545,cs),
(599,705,o),
(485,806,o),
(324,806,cs),
(144,806,o),
(40,711,o),
(40,543,c),
(198,543,l),
(198,602,o),
(229,649,o),
(325,649,cs),
(400,649,o),
(442,604,o),
(442,545,cs),
(442,332,o),
(53,387,o),
(53,134,cs),
(54,0,l)
);
}
);
width = 639;
},
{
layerId = "F01B58DE-C728-4329-B3AC-16E1FFD45204";
shapes = (
{
closed = 1;
nodes = (
(543,0,l),
(543,104,l),
(157,104,l),
(151,294,o),
(555,221,o),
(551,555,cs),
(549,703,o),
(443,795,o),
(298,795,cs),
(151,795,o),
(40,720,o),
(40,559,c),
(143,559,l),
(143,656,o),
(208,692,o),
(299,692,cs),
(380,692,o),
(451,643,o),
(451,552,cs),
(451,297,o),
(49,381,o),
(49,104,c),
(50,0,l)
);
}
);
width = 591;
}
);
unicode = 50;
},
{
color = 5;
glyphname = three;
layers = (
{
layerId = "63F83B90-CAEF-434E-8639-9EC66952CC6B";
shapes = (
{
closed = 1;
nodes = (
(517,-6,o),
(636,86,o),
(648,229,c),
(658,341,o),
(598,445,o),
(500,505,c),
(649,795,l),
(132,795,l),
(132,638,l),
(391,638,l),
(278,418,l),
(583,384,o),
(525,165,o),
(391,153,cs),
(329,147,o),
(229,158,o),
(176,308,c),
(40,259,l),
(91,92,o),
(211,-6,o),
(365,-6,c)
);
}
);
width = 689;
},
{
layerId = "F01B58DE-C728-4329-B3AC-16E1FFD45204";
shapes = (
{
closed = 1;
nodes = (
(496,-5,o),
(611,89,o),
(611,239,cs),
(611,366,o),
(558,437,o),
(448,495,c),
(599,800,l),
(117,800,l),
(117,697,l),
(434,697,l),
(306,439,l),
(600,378,o),
(552,90,o),
(348,90,cs),
(242,90,o),
(167,174,o),
(135,275,c),
(40,240,l),
(81,102,o),
(174,-7,o),
(348,-6,cs)
);
}
);
width = 651;
}
);
unicode = 51;
},
{
color = 5;
glyphname = four;
layers = (
{
layerId = "63F83B90-CAEF-434E-8639-9EC66952CC6B";
shapes = (
{
closed = 1;
nodes = (
(504,0,l),
(504,134,l),
(613,134,l),
(613,292,l),
(504,292,l),
(504,400,l),
(357,400,l),
(357,292,l),
(243,292,l),
(355,460,o),
(405,649,o),
(431,800,c),
(268,800,l),
(222,586,o),
(170,460,o),
(40,293,c),
(40,134,l),
(357,134,l),
(357,0,l)
);
}
);
width = 653;
},
{
layerId = "F01B58DE-C728-4329-B3AC-16E1FFD45204";
shapes = (
{
closed = 1;
nodes = (
(417,0,l),
(417,143,l),
(510,143,l),
(510,247,l),
(417,247,l),
(417,362,l),
(322,362,l),
(322,247,l),
(161,247,l),
(268,388,o),
(361,619,o),
(374,799,c),
(271,799,l),
(258,615,o),
(155,388,o),
(40,247,c),
(40,143,l),
(322,143,l),
(322,0,l)
);
}
);
width = 550;
}
);
unicode = 52;
},
{
color = 5;
glyphname = five;
layers = (
{
layerId = "63F83B90-CAEF-434E-8639-9EC66952CC6B";
shapes = (
{
closed = 1;
nodes = (
(470,-6,o),
(585,111,o),
(581,271,cs),
(581,449,o),
(434,570,o),
(245,528,c),
(261,648,l),
(536,648,l),
(554,805,l),
(121,805,l),
(69,374,l),
(225,370,l),
(235,377,o),
(247,382,o),
(261,385,cs),
(351,403,o),
(422,344,o),
(425,270,cs),
(425,206,o),
(388,156,o),
(316,152,cs),
(259,150,o),
(197,181,o),
(197,230,c),
(40,230,l),
(40,97,o),
(163,-6,o),
(309,-6,cs)
);
}
);
width = 621;
},
{
layerId = "F01B58DE-C728-4329-B3AC-16E1FFD45204";
shapes = (
{
closed = 1;
nodes = (
(431.92,-6,o),
(537,101,o),
(537,253,cs),
(537,441,o),
(350,570,o),
(183,496,c),
(208,700,l),
(491,700,l),
(503,803,l),
(118,803,l),
(71,394,l),
(189,394,l),
(214,409,o),
(243,414,o),
(268,414,cs),
(376,414,o),
(435,347.177,o),
(435,252,cs),
(435,159.917,o),
(371.549,98,o),
(283,98,cs),
(218,98,o),
(157,127,o),
(143,181,c),
(40,181,l),
(53,64,o),
(168.164,-6,o),
(284,-6,c)
);
}
);
width = 574;
}
);
unicode = 53;
},
{
color = 5;
glyphname = six;
layers = (
{
layerId = "63F83B90-CAEF-434E-8639-9EC66952CC6B";
shapes = (
{
closed = 1;
nodes = (
(473,-6,o),
(586,108,o),
(586,268,cs),
(586,489,o),
(390,580,o),
(256,525,cs),
(231,515,o),
(367,754,o),
(397,801,c),
(225,801,l),
(108,618,o),
(37,420,o),
(40,265,c),
(45,101,o),
(152,-6,o),
(313,-6,cs)
);
},
{
closed = 1;
nodes = (
(247,151,o),
(202,194,o),
(202,262,cs),
(202,344,o),
(243,380,o),
(317,380,cs),
(389,380,o),
(429,333,o),
(428,263,cs),
(426,189,o),
(387,151,o),
(316,151,cs)
);
}
);
width = 626;
},
{
layerId = "F01B58DE-C728-4329-B3AC-16E1FFD45204";
shapes = (
{
closed = 1;
nodes = (
(439,-6,o),
(542,102,o),
(542,255,cs),
(542,507,o),
(279,558,o),
(181,478,c),
(223,623,o),
(247,663,o),
(323,793,c),
(217,793,l),
(123,639,o),
(40,411,o),
(40,247,cs),
(40,93,o),
(141,-6,o),
(291,-6,cs)
);
},
{
closed = 1;
nodes = (
(206,97,o),
(145,157,o),
(145,250,cs),
(145,350,o),
(195,408,o),
(295,408,cs),
(384,408,o),
(440,346,o),
(440,257,cs),
(440,158,o),
(393,97,o),
(294,97,c)
);
}
);
width = 582;
}
);
unicode = 54;
},
{
color = 5;
glyphname = seven;
layers = (
{
layerId = "63F83B90-CAEF-434E-8639-9EC66952CC6B";
shapes = (
{
closed = 1;
nodes = (
(40,800,l),
(40,574,l),
(198,574,l),
(198,642,l),
(412,642,l),
(310,455,o),
(190,196,o),
(135,0,c),
(300,0,l),
(381,241,o),
(473,429,o),
(593,642,c),
(593,800,l)
);
}
);
width = 633;
},
{
layerId = "F01B58DE-C728-4329-B3AC-16E1FFD45204";
shapes = (
{
closed = 1;
nodes = (
(40,789,l),
(40,632,l),
(141,632,l),
(141,684,l),
(435,684,l),
(326,497,o),
(279,430,o),
(148,0,c),
(252,0,l),
(370,409,o),
(431,497,o),
(549,684,c),
(549,789,l)
);
}
);
width = 589;
}
);
unicode = 55;
},
{
color = 5;
glyphname = eight;
layers = (
{
layerId = "63F83B90-CAEF-434E-8639-9EC66952CC6B";
shapes = (
{
closed = 1;
nodes = (
(447,-6,o),
(565,108,o),
(565,248,cs),
(565,349,o),
(504,435,o),
(416,475,c),
(381,491,o),
(343,500,o),
(302,500,cs),
(255,500,o),
(211,488,o),
(172,467,c),
(93,424,o),
(40,342,o),
(40,248,cs),
(40,108,o),
(158,-6,o),
(302,-6,cs)
);
},
{
closed = 1;
nodes = (
(245,152,o),
(198,195,o),
(198,248,cs),
(198,301,o),
(245,344,o),
(302,344,cs),
(360,344,o),
(407,301,o),
(407,248,cs),
(407,195,o),
(360,152,o),
(302,152,cs)
);
},
{
closed = 1;
nodes = (
(435,346,o),
(543,448,o),
(543,577,cs),
(543,706,o),
(435,810,o),
(302,810,cs),
(169,810,o),
(62,706,o),
(62,577,cs),
(62,448,o),
(169,346,o),
(302,346,cs)
);
},
{
closed = 1;
nodes = (
(256,501,o),
(219,535,o),
(219,577,cs),
(219,619,o),
(256,653,o),
(302,653,cs),
(348,653,o),
(386,619,o),
(386,577,cs),
(386,535,o),
(348,501,o),
(302,501,cs)
);
}
);
width = 605;
},
{
layerId = "F01B58DE-C728-4329-B3AC-16E1FFD45204";
shapes = (
{
closed = 1;
nodes = (
(418,-4,o),
(528,101,o),
(528,232,cs),
(528,315,o),
(484,387,o),
(416,429,c),
(377,453,o),
(332,466,o),
(284,466,cs),
(232,466,o),
(185,451,o),
(146,425,c),
(82,383,o),
(40,313,o),
(40,232,cs),
(40,101,o),
(150,-4,o),
(284,-4,cs)
);
},
{
closed = 1;
nodes = (
(204,98,o),
(140,158,o),
(140,232,cs),
(140,305,o),
(204,365,o),
(284,365,cs),
(364,365,o),
(428,305,o),
(428,232,cs),
(428,158,o),
(364,98,o),
(284,98,cs)
);
},
{
closed = 1;
nodes = (
(407,370,o),
(508,465,o),
(508,585,cs),
(508,705,o),
(407,801,o),
(284,801,cs),
(160,801,o),
(61,705,o),
(61,585,cs),
(61,465,o),
(160,370,o),
(284,370,cs)
);
},
{
closed = 1;
nodes = (
(216,472,o),
(161,523,o),
(161,585,cs),
(161,646,o),
(216,698,o),
(284,698,cs),
(352,698,o),
(407,646,o),
(407,585,cs),
(407,523,o),
(352,472,o),
(284,472,cs)
);
}
);
width = 568;
}
);
unicode = 56;
},
{
color = 5;
glyphname = fraction;
layers = (
{
layerId = "63F83B90-CAEF-434E-8639-9EC66952CC6B";
shapes = (
{
closed = 1;
nodes = (
(10,1,l),
(551,803,l),
(441,803,l),
(-100,1,l)
);
}
);
width = 451;
},
{
layerId = "F01B58DE-C728-4329-B3AC-16E1FFD45204";
shapes = (
{
closed = 1;
nodes = (
(-21,1,l),
(497,792,l),
(418,792,l),
(-100,1,l)
);
}
);
userData = {
assembly = "PUSHW[ ]	/* 1 value pushed */
0 
CALL[ ]	/* CallFunction */
SVTCA[0]	/* SetFreedomAndProjectionVectorToAxis */
PUSHW[ ]	/* 1 value pushed */
0 
RCVT[ ]	/* ReadCVT */
IF[ ]	/* If */
PUSHW[ ]	/* 1 value pushed */
2 
MDAP[1]	/* MoveDirectAbsPt */
ELSE[ ]	/* Else */
PUSHW[ ]	/* 2 values pushed */
2 3 
MIAP[0]	/* MoveIndirectAbsPt */
EIF[ ]	/* EndIf */
IUP[0]	/* InterpolateUntPts */
IUP[1]	/* InterpolateUntPts */";
};
width = 397;
}
);
unicode = 8260;
},
{
color = 5;
glyphname = .notdef;
layers = (
{
associatedMasterId = "63F83B90-CAEF-434E-8639-9EC66952CC6B";
layerId = "14225CED-126E-4DE4-8A21-83F8E5FAF17E";
name = Regular;
width = 579;
},
{
associatedMasterId = "63F83B90-CAEF-434E-8639-9EC66952CC6B";
layerId = "E1ADDF7C-A343-4E6D-B630-136BDFE64807";
name = Bold;
width = 579;
},
{
layerId = "63F83B90-CAEF-434E-8639-9EC66952CC6B";
shapes = (
{
closed = 1;
nodes = (
(702,-209,l),
(702,799,l),
(50,799,l),
(50,-209,l)
);
},
{
closed = 1;
nodes = (
(208,641,l),
(544,641,l),
(544,-51,l),
(208,-51,l)
);
}
);
width = 752;
},
{
layerId = "F01B58DE-C728-4329-B3AC-16E1FFD45204";
shapes = (
{
closed = 1;
nodes = (
(662,-222,l),
(662,789,l),
(50,789,l),
(50,-222,l)
);
},
{
closed = 1;
nodes = (
(151,684,l),
(560,684,l),
(560,-117,l),
(151,-117,l)
);
}
);
width = 712;
}
);
},
{
color = 5;
glyphname = period;
layers = (
{
layerId = "63F83B90-CAEF-434E-8639-9EC66952CC6B";
shapes = (
{
closed = 1;
nodes = (
(165,-10,o),
(206,31,o),
(206,83,c),
(206,134,o),
(165,176,o),
(113,176,c),
(61,176,o),
(20,134,o),
(20,83,c),
(20,31,o),
(61,-10,o),
(113,-10,c)
);
}
);
width = 246;
},
{
layerId = "F01B58DE-C728-4329-B3AC-16E1FFD45204";
shapes = (
{
closed = 1;
nodes = (
(121,-8,o),
(150,21,o),
(150,57,cs),
(150,93,o),
(121,122,o),
(85,122,cs),
(49,122,o),
(20,93,o),
(20,57,cs),
(20,21,o),
(49,-8,o),
(85,-8,cs)
);
}
);
userData = {
assembly = "PUSHW[ ]	/* 1 value pushed */
0 
CALL[ ]	/* CallFunction */
SVTCA[0]	/* SetFreedomAndProjectionVectorToAxis */
PUSHW[ ]	/* 1 value pushed */
0 
RCVT[ ]	/* ReadCVT */
IF[ ]	/* If */
PUSHW[ ]	/* 1 value pushed */
0 
MDAP[1]	/* MoveDirectAbsPt */
ELSE[ ]	/* Else */
PUSHW[ ]	/* 2 values pushed */
0 3 
MIAP[0]	/* MoveIndirectAbsPt */
EIF[ ]	/* EndIf */
IUP[0]	/* InterpolateUntPts */
IUP[1]	/* InterpolateUntPts */";
};
width = 190;
}
);
unicode = 46;
},
{
color = 5;
glyphname = comma;
layers = (
{
layerId = "63F83B90-CAEF-434E-8639-9EC66952CC6B";
shapes = (
{
closed = 1;
nodes = (
(135,-137,l),
(161,-69,o),
(193,39,o),
(195,71,c),
(90,89,l),
(83,16,o),
(72,-52,o),
(56,-115,c)
);
},
{
closed = 1;
nodes = (
(155,-10,o),
(196,31,o),
(196,83,c),
(196,134,o),
(155,176,o),
(103,176,c),
(51,176,o),
(10,134,o),
(10,83,c),
(10,31,o),
(51,-10,o),
(103,-10,c)
);
}
);
width = 236;
},
{
guides = (
{
pos = (-6,-114);
}
);
layerId = "F01B58DE-C728-4329-B3AC-16E1FFD45204";
shapes = (
{
closed = 1;
nodes = (
(89,-129,l),
(110,-69,o),
(141,31,o),
(140,56,c),
(67,61,l),
(62,7,o),
(64,-15,o),
(34,-114,c)
);
},
{
closed = 1;
nodes = (
(112,-9,o),
(140,19,o),
(140,56,c),
(140,92,o),
(112,121,o),
(75,121,c),
(39,121,o),
(10,92,o),
(10,56,c),
(10,19,o),
(39,-9,o),
(75,-9,c)
);
}
);
userData = {
assembly = "PUSHW[ ]	/* 1 value pushed */
0 
CALL[ ]	/* CallFunction */
SVTCA[0]	/* SetFreedomAndProjectionVectorToAxis */
PUSHW[ ]	/* 1 value pushed */
1 
MDAP[1]	/* MoveDirectAbsPt */
IUP[0]	/* InterpolateUntPts */
IUP[1]	/* InterpolateUntPts */";
};
width = 180;
}
);
unicode = 44;
},
{
color = 5;
glyphname = exclam;
layers = (
{
layerId = "63F83B90-CAEF-434E-8639-9EC66952CC6B";
shapes = (
{
closed = 1;
nodes = (
(201,248,l),
(212,800,l),
(54,800,l),
(64,248,l)
);
},
{
pos = (20,0);
ref = period;
}
);
width = 266;
},
{
layerId = "F01B58DE-C728-4329-B3AC-16E1FFD45204";
shapes = (
{
closed = 1;
nodes = (
(144,204,l),
(155,800,l),
(55,800,l),
(65,204,l)
);
},
{
pos = (20,0);
ref = period;
}
);
width = 210;
}
);
unicode = 33;
},
{
color = 5;
glyphname = question;
layers = (
{
layerId = "63F83B90-CAEF-434E-8639-9EC66952CC6B";
shapes = (
{
closed = 1;
nodes = (
(399,230,l),
(399,268,l),
(397,357,o),
(563,362,o),
(563,540,cs),
(563,669,o),
(478,808,o),
(307,808,cs),
(164,808,o),
(40,696,o),
(40,521,c),
(198,521,l),
(198,557,o),
(208,648,o),
(309,648,cs),
(387,648,o),
(407,584,o),
(407,540,cs),
(407,497,o),
(385,471,o),
(346,446,cs),
(325,432,o),
(301,417,o),
(281,393,cs),
(255,362,o),
(241,311,o),
(241,268,c),
(241,230,l)
);
},
{
pos = (206,-6);
ref = period;
}
);
width = 603;
},
{
layerId = "F01B58DE-C728-4329-B3AC-16E1FFD45204";
shapes = (
{
closed = 1;
nodes = (
(347,190,l),
(347,265,l),
(347,366,o),
(516,356,o),
(516,542,cs),
(516,689,o),
(426,795,o),
(285,795,cs),
(132,795,o),
(40,694,o),
(40,555,c),
(142,555,l),
(142,600,o),
(172,691,o),
(285,691,cs),
(374.554,691,o),
(417,622,o),
(417,542,cs),
(417,485,o),
(386.667,451.667,o),
(356,429,cs),
(343.333,418.333,o),
(329,407.667,o),
(313,397,cs),
(275,369,o),
(246,341,o),
(246,265,c),
(246,190,l)
);
},
{
pos = (208,-6);
ref = period;
}
);
width = 556;
}
);
unicode = 63;
},
{
color = 5;
glyphname = asterisk;
layers = (
{
layerId = "63F83B90-CAEF-434E-8639-9EC66952CC6B";
shapes = (
{
attr = {
strokeWidth = 90;
};
closed = 0;
nodes = (
(187,687,l),
(187,373,l)
);
},
{
attr = {
strokeWidth = 90;
};
closed = 0;
nodes = (
(320,613,l),
(54,447,l)
);
},
{
attr = {
strokeWidth = 90;
};
closed = 0;
nodes = (
(54,613,l),
(320,447,l)
);
}
);
width = 374;
},
{
layerId = "F01B58DE-C728-4329-B3AC-16E1FFD45204";
shapes = (
{
attr = {
strokeWidth = 70;
};
closed = 0;
nodes = (
(182,685,l),
(182,371,l)
);
},
{
attr = {
strokeWidth = 70;
};
closed = 0;
nodes = (
(315,611,l),
(49,445,l)
);
},
{
attr = {
strokeWidth = 70;
};
closed = 0;
nodes = (
(49,611,l),
(315,445,l)
);
}
);
width = 364;
}
);
unicode = 42;
},
{
color = 5;
glyphname = numbersign;
layers = (
{
layerId = "63F83B90-CAEF-434E-8639-9EC66952CC6B";
shapes = (
{
closed = 1;
nodes = (
(576,0,l),
(778,800,l),
(617,800,l),
(415,0,l)
);
},
{
closed = 1;
nodes = (
(820,204,l),
(820,360,l),
(40,360,l),
(40,204,l)
);
},
{
closed = 1;
nodes = (
(307,0,l),
(510,800,l),
(349,800,l),
(146,0,l)
);
},
{
closed = 1;
nodes = (
(885,439,l),
(885,596,l),
(104,596,l),
(104,439,l)
);
}
);
width = 925;
},
{
layerId = "F01B58DE-C728-4329-B3AC-16E1FFD45204";
shapes = (
{
closed = 1;
nodes = (
(543,0,l),
(736,789,l),
(634,789,l),
(441,0,l)
);
},
{
closed = 1;
nodes = (
(787,217,l),
(787,321,l),
(40,321,l),
(40,217,l)
);
},
{
closed = 1;
nodes = (
(265,0,l),
(458,789,l),
(356,789,l),
(163,0,l)
);
},
{
closed = 1;
nodes = (
(855,467,l),
(855,571,l),
(108,571,l),
(108,467,l)
);
}
);
width = 895;
}
);
unicode = 35;
},
{
color = 5;
glyphname = slash;
layers = (
{
layerId = "63F83B90-CAEF-434E-8639-9EC66952CC6B";
shapes = (
{
closed = 1;
nodes = (
(201,-53,l),
(388,800,l),
(226,800,l),
(40,-53,l)
);
}
);
width = 428;
},
{
layerId = "F01B58DE-C728-4329-B3AC-16E1FFD45204";
shapes = (
{
closed = 1;
nodes = (
(143,-56,l),
(323,789,l),
(219,789,l),
(40,-56,l)
);
}
);
width = 363;
}
);
unicode = 47;
},
{
color = 5;
glyphname = hyphen;
layers = (
{
layerId = "63F83B90-CAEF-434E-8639-9EC66952CC6B";
shapes = (
{
closed = 1;
nodes = (
(404,242,l),
(404,357,l),
(40,357,l),
(40,242,l)
);
}
);
width = 444;
},
{
layerId = "F01B58DE-C728-4329-B3AC-16E1FFD45204";
shapes = (
{
closed = 1;
nodes = (
(374,251,l),
(374,340,l),
(40,340,l),
(40,251,l)
);
}
);
width = 414;
}
);
unicode = 45;
},
{
color = 5;
glyphname = underscore;
layers = (
{
layerId = "63F83B90-CAEF-434E-8639-9EC66952CC6B";
shapes = (
{
closed = 1;
nodes = (
(577,-153,l),
(577,-83,l),
(40,-83,l),
(40,-153,l)
);
}
);
width = 617;
},
{
layerId = "F01B58DE-C728-4329-B3AC-16E1FFD45204";
shapes = (
{
closed = 1;
nodes = (
(533,-135,l),
(533,-83,l),
(40,-83,l),
(40,-135,l)
);
}
);
userData = {
assembly = "PUSHW[ ]	/* 1 value pushed */
0 
CALL[ ]	/* CallFunction */
SVTCA[0]	/* SetFreedomAndProjectionVectorToAxis */
PUSHW[ ]	/* 1 value pushed */
2 
MDAP[1]	/* MoveDirectAbsPt */
IUP[0]	/* InterpolateUntPts */
IUP[1]	/* InterpolateUntPts */";
};
width = 573;
}
);
unicode = 95;
},
{
color = 5;
glyphname = parenleft;
layers = (
{
layerId = "63F83B90-CAEF-434E-8639-9EC66952CC6B";
shapes = (
{
closed = 1;
nodes = (
(307,-238,l),
(203,-101,o),
(198,-40,o),
(198,186,cs),
(198,376,ls),
(198,602,o),
(205,661,o),
(307,800,c),
(168,800,l),
(121,734,o),
(72,661,o),
(56,580,cs),
(40,496,o),
(40,423,o),
(40,384,cs),
(40,178,ls),
(40,139,o),
(40,66,o),
(56,-18,cs),
(71,-99,o),
(121,-172,o),
(168,-238,c)
);
}
);
width = 347;
},
{
layerId = "F01B58DE-C728-4329-B3AC-16E1FFD45204";
shapes = (
{
closed = 1;
nodes = (
(223,-254,l),
(165.034,-167.051,o),
(149,-107,o),
(143,2,c),
(143,510,l),
(148,618,o),
(156.769,693.17,o),
(223,789,c),
(158,789,l),
(111,720,o),
(82,667,o),
(64,612,cs),
(45,547,o),
(40,479,o),
(40,377,cs),
(40,158,ls),
(40,71,o),
(42,8,o),
(56,-49,cs),
(71,-114,o),
(101,-173,o),
(157,-254,c)
);
}
);
width = 263;
}
);
unicode = 40;
},
{
color = 5;
glyphname = braceright;
layers = (
{
layerId = "63F83B90-CAEF-434E-8639-9EC66952CC6B";
shapes = (
{
closed = 1;
nodes = (
(151,-237,ls),
(163,-237,o),
(202,-234,o),
(239,-199,cs),
(278,-162,o),
(297,-105,o),
(297,-30,cs),
(297,84,o),
(265,164,o),
(244,213,c),
(343,233,l),
(343,330,l),
(244,350,l),
(265,399,o),
(297,478,o),
(297,592,cs),
(297,668,o),
(278,725,o),
(239,762,cs),
(202,797,o),
(163,800,o),
(151,800,cs),
(30,800,l),
(30,642,l),
(133,642,l),
(136,634,o),
(139,618,o),
(139,592,cs),
(139,492,o),
(110,440,o),
(94,407,cs),
(84,387,o),
(75,370,o),
(75,347,cs),
(75,328,o),
(96,308,o),
(110,290,cs),
(114,285,o),
(114,279,o),
(111,274,cs),
(99,254,o),
(75,235,o),
(75,216,cs),
(75,193,o),
(84,176,o),
(94,156,cs),
(110,123,o),
(139,70,o),
(139,-30,cs),
(139,-55,o),
(136,-71,o),
(133,-79,c),
(30,-79,l),
(30,-237,l)
);
}
);
width = 383;
},
{
layerId = "F01B58DE-C728-4329-B3AC-16E1FFD45204";
shapes = (
{
closed = 1;
nodes = (
(124,-253,ls),
(148,-253,o),
(174,-240,o),
(194,-221,cs),
(231,-185,o),
(244,-125,o),
(244,-64,cs),
(244,25,o),
(225,98,o),
(177,219,c),
(271,243,l),
(271,293,l),
(177,318,l),
(226,438,o),
(244,511,o),
(244,599,cs),
(244,660,o),
(231,722,o),
(194,757,cs),
(174,776,o),
(148,789,o),
(124,789,cs),
(30,789,l),
(30,684,l),
(127,684,l),
(141,642,o),
(143,614,o),
(143,599,cs),
(143,518,o),
(128,459,o),
(93,388,cs),
(87,373,o),
(76,357,o),
(76,337,cs),
(76,334,o),
(81,302,o),
(92,281,cs),
(98,269,o),
(97,259,o),
(91,249,cs),
(82,233,o),
(76,204,o),
(76,198,cs),
(76,190,o),
(82,169,o),
(93,148,cs),
(128,77,o),
(143,17,o),
(143,-64,cs),
(143,-99,o),
(138,-115,o),
(127,-148,c),
(30,-148,l),
(30,-253,l)
);
}
);
width = 311;
}
);
unicode = 125;
},
{
color = 5;
glyphname = bracketleft;
layers = (
{
layerId = "63F83B90-CAEF-434E-8639-9EC66952CC6B";
shapes = (
{
closed = 1;
nodes = (
(322,-238,l),
(322,-80,l),
(208,-80,l),
(208,642,l),
(322,642,l),
(322,800,l),
(50,800,l),
(50,-238,l)
);
}
);
width = 362;
},
{
layerId = "F01B58DE-C728-4329-B3AC-16E1FFD45204";
shapes = (
{
closed = 1;
nodes = (
(269,-254,l),
(269,-149,l),
(151,-149,l),
(151,684,l),
(269,684,l),
(269,789,l),
(50,789,l),
(50,-254,l)
);
}
);
width = 309;
}
);
unicode = 91;
},
{
color = 5;
glyphname = quotedblleft;
layers = (
{
layerId = "63F83B90-CAEF-434E-8639-9EC66952CC6B";
shapes = (
{
closed = 1;
nodes = (
(331,591,l),
(321,800,l),
(206,800,l),
(229,591,l)
);
},
{
closed = 1;
nodes = (
(180,591,l),
(155,800,l),
(40,800,l),
(78,591,l)
);
}
);
width = 351;
},
{
layerId = "F01B58DE-C728-4329-B3AC-16E1FFD45204";
shapes = (
{
closed = 1;
nodes = (
(281,599,l),
(258,800,l),
(173,800,l),
(206,599,l)
);
},
{
closed = 1;
nodes = (
(158,599,l),
(125,800,l),
(40,800,l),
(83,599,l)
);
}
);
width = 301;
}
);
unicode = 8220;
},
{
color = 5;
glyphname = quotedblright;
layers = (
{
layerId = "63F83B90-CAEF-434E-8639-9EC66952CC6B";
shapes = (
{
closed = 1;
nodes = (
(145,800,l),
(30,800,l),
(20,591,l),
(122,591,l)
);
},
{
closed = 1;
nodes = (
(311,800,l),
(196,800,l),
(176,591,l),
(278,591,l)
);
}
);
width = 351;
},
{
layerId = "F01B58DE-C728-4329-B3AC-16E1FFD45204";
shapes = (
{
closed = 1;
nodes = (
(128,800,l),
(43,800,l),
(20,599,l),
(95,599,l)
);
},
{
closed = 1;
nodes = (
(261,800,l),
(176,800,l),
(143,599,l),
(218,599,l)
);
}
);
width = 301;
}
);
unicode = 8221;
},
{
color = 5;
glyphname = quoteleft;
layers = (
{
layerId = "63F83B90-CAEF-434E-8639-9EC66952CC6B";
shapes = (
{
closed = 1;
nodes = (
(165,591,l),
(155,800,l),
(40,800,l),
(63,591,l)
);
}
);
width = 185;
},
{
layerId = "F01B58DE-C728-4329-B3AC-16E1FFD45204";
shapes = (
{
closed = 1;
nodes = (
(138,598,l),
(125,789,l),
(40,789,l),
(63,598,l)
);
}
);
width = 158;
}
);
unicode = 8216;
},
{
color = 5;
glyphname = guillemetright;
layers = (
{
layerId = "63F83B90-CAEF-434E-8639-9EC66952CC6B";
shapes = (
{
attr = {
lineCapEnd = "4";
lineCapStart = "4";
strokeHeight = 90;
strokeWidth = 90;
};
closed = 0;
nodes = (
(41,521,l),
(307,301,l),
(40,82,l)
);
},
{
attr = {
lineCapEnd = "4";
lineCapStart = "4";
strokeHeight = 90;
strokeWidth = 90;
};
closed = 0;
nodes = (
(298,521,l),
(564,301,l),
(297,82,l)
);
}
);
width = 604;
},
{
guides = (
{
pos = (76,304);
}
);
layerId = "F01B58DE-C728-4329-B3AC-16E1FFD45204";
shapes = (
{
attr = {
lineCapEnd = "4";
lineCapStart = "4";
strokeHeight = 70;
strokeWidth = 70;
};
closed = 0;
nodes = (
(41,521,l),
(307,301,l),
(40,82,l)
);
},
{
attr = {
lineCapEnd = "4";
lineCapStart = "4";
strokeHeight = 70;
strokeWidth = 70;
};
closed = 0;
nodes = (
(268,521,l),
(534,301,l),
(267,82,l)
);
}
);
width = 574;
}
);
unicode = 187;
},
{
color = 5;
glyphname = guilsinglright;
layers = (
{
layerId = "63F83B90-CAEF-434E-8639-9EC66952CC6B";
shapes = (
{
attr = {
lineCapEnd = "4";
lineCapStart = "4";
strokeWidth = 120;
};
closed = 0;
nodes = (
(40,492,l),
(275,300,l),
(40,113,l)
);
}
);
width = 401;
},
{
layerId = "F01B58DE-C728-4329-B3AC-16E1FFD45204";
shapes = (
{
attr = {
lineCapEnd = 4;
lineCapStart = 4;
strokeWidth = 90;
};
closed = 0;
nodes = (
(41,517,l),
(307,300,l),
(40,88,l)
);
}
);
width = 409;
}
);
unicode = 8250;
},
{
color = 5;
glyphname = quotesingle;
layers = (
{
layerId = "63F83B90-CAEF-434E-8639-9EC66952CC6B";
shapes = (
{
closed = 1;
nodes = (
(145,591,l),
(155,800,l),
(40,800,l),
(50,591,l)
);
}
);
width = 195;
},
{
layerId = "F01B58DE-C728-4329-B3AC-16E1FFD45204";
shapes = (
{
closed = 1;
nodes = (
(111,599,l),
(121,788,l),
(40,788,l),
(50,599,l)
);
}
);
width = 161;
}
);
unicode = 39;
},
{
color = 5;
glyphname = florin;
layers = (
{
layerId = "63F83B90-CAEF-434E-8639-9EC66952CC6B";
shapes = (
{
closed = 1;
nodes = (
(292,-42,o),
(350,58,o),
(350,326,c),
(452,326,l),
(452,450,l),
(356,450,l),
(359,555,l),
(359,625,o),
(430,645,o),
(509,645,c),
(509,803,l),
(335,803,o),
(202,719,o),
(202,555,c),
(197,450,l),
(88,450,l),
(88,326,l),
(192,326,l),
(184,154,o),
(179,116,o),
(37,116,c),
(37,-42,l)
);
}
);
width = 552;
},
{
layerId = "F01B58DE-C728-4329-B3AC-16E1FFD45204";
shapes = (
{
closed = 1;
nodes = (
(251,-43,o),
(302,67,o),
(301,349,c),
(407,349,l),
(407,417,l),
(301,417,l),
(304,560,l),
(309,651,o),
(374,694,o),
(466,694,c),
(466,792,l),
(315,792,o),
(210,700,o),
(207,560,cs),
(204,417,l),
(93,417,l),
(93,349,l),
(204,349,l),
(204,142,o),
(199,53,o),
(40,53,c),
(40,-43,l)
);
}
);
width = 506;
}
);
unicode = 402;
},
{
color = 5;
glyphname = at;
layers = (
{
layerId = "63F83B90-CAEF-434E-8639-9EC66952CC6B";
shapes = (
{
closed = 1;
nodes = (
(40,-40,o),
(311,-273,o),
(631,-202,c),
(596,-56,l),
(380,-98,o),
(198,64,o),
(198,280,cs),
(198,460,o),
(301,653,o),
(565,653,cs),
(776,653,o),
(913,533,o),
(919,329,cs),
(923,210,o),
(902,128,o),
(867,104,c),
(850,96,o),
(830,96,o),
(809,100,c),
(809,388,ls),
(809,510,o),
(726,590,o),
(559,590,cs),
(461,588,o),
(403,563,o),
(350,527,c),
(421,400,l),
(442,416,o),
(491,432,o),
(545,432,cs),
(574,432,ls),
(614,432,o),
(651,424,o),
(651,391,cs),
(651,352,l),
(643,358,o),
(631,363,o),
(616,363,cs),
(510,363,ls),
(393,363,o),
(312,280,o),
(312,176,cs),
(312,65,o),
(408,-10,o),
(532,-10,cs),
(580,-10,o),
(617,3,o),
(651,24,c),
(651,0,l),
(700,-28,o),
(761,-60,o),
(836,-60,cs),
(938,-60,o),
(1013,3,o),
(1049,101,cs),
(1071,162,o),
(1081,237,o),
(1078,333,cs),
(1074,613,o),
(862,810,o),
(569,810,cs),
(237,813,o),
(40,551,o),
(40,280,cs)
);
},
{
closed = 1;
nodes = (
(475,220,o),
(486,246,o),
(510,246,cs),
(639,246,l),
(648,245,o),
(651,240,o),
(651,233,cs),
(651,205,ls),
(651,161,o),
(614,133,o),
(551,133,cs),
(510,133,o),
(475,149,o),
(475,195,cs)
);
}
);
width = 1119;
},
{
layerId = "F01B58DE-C728-4329-B3AC-16E1FFD45204";
shapes = (
{
closed = 1;
nodes = (
(42,-94,o),
(348,-275,o),
(585,-231,c),
(560,-128,l),
(327,-157,o),
(143,31,o),
(143,266,cs),
(143,518,o),
(299.258,696,o),
(551,696,cs),
(781.175,696,o),
(948,563,o),
(948,289,cs),
(948,225.789,o),
(941.941,89.312,o),
(879,51,cs),
(849,35,o),
(818,24,o),
(772,48,c),
(772,382,ls),
(772,496.667,o),
(700,565,o),
(560,565,cs),
(494,565,o),
(441,560,o),
(371,519,c),
(415,438,l),
(452.333,454,o),
(500.333,460,o),
(531,460,cs),
(562,460,ls),
(613,460,o),
(671,443,o),
(671,385,cs),
(671,302,l),
(671,323,o),
(643,326,o),
(604,326,cs),
(495,326,ls),
(393,326,o),
(321,243,o),
(321,146,cs),
(321,42,o),
(413,-20,o),
(517,-21,cs),
(556,-21,o),
(631,-20,o),
(671,31,c),
(671,-13,l),
(672,-13,o),
(713,-64,o),
(831,-64,cs),
(918,-64,o),
(976.268,-15.123,o),
(1009,57.5,cs),
(1047,139,o),
(1049,220,o),
(1049,289,cs),
(1049,615,o),
(845.78,798.339,o),
(555,799,cs),
(257,799,o),
(40,572,o),
(40,266,c)
);
},
{
closed = 1;
nodes = (
(427,185,o),
(447,242,o),
(495,242,cs),
(628,242,ls),
(658,242,o),
(671,224,o),
(671,207,cs),
(671,177,ls),
(671,87,o),
(537,36,o),
(464,89,cs),
(443,104,o),
(427,129,o),
(427,166,c)
);
}
);
width = 1089;
}
);
unicode = 64;
},
{
color = 5;
glyphname = ampersand;
layers = (
{
layerId = "63F83B90-CAEF-434E-8639-9EC66952CC6B";
shapes = (
{
attr = {
lineCapEnd = "4";
lineCapStart = "4";
strokeWidth = 165;
};
closed = 0;
nodes = (
(676,1,l),
(301,436,l),
(254,485,o),
(215,546,o),
(204,585,cs),
(192,626,o),
(223,733,o),
(332,732,cs),
(415,731,o),
(460,655,o),
(460,619,cs),
(460,527,o),
(337,443,o),
(253,405,cs),
(174,372,o),
(123,304,o),
(123,242,cs),
(123,135,o),
(223,63,o),
(324,63,cs),
(451,63,o),
(664,164,o),
(670,398,cs)
);
}
);
width = 833;
},
{
background = {
shapes = (
{
attr = {
lineCapEnd = "4";
lineCapStart = "4";
strokeWidth = 103;
};
closed = 0;
nodes = (
(649,0,l),
(277,429,l),
(228,481,o),
(187,544,o),
(175,585,cs),
(162,629,o),
(170,740,o),
(311,741,cs),
(401,742,o),
(449,660,o),
(445,621,cs),
(437,540,o),
(314,440,o),
(227,397,cs),
(146,357,o),
(91,312,o),
(91,225,cs),
(91,113,o),
(189,38,o),
(302,38,cs),
(415,38,o),
(660,144,o),
(666,390,cs)
);
}
);
};
layerId = "F01B58DE-C728-4329-B3AC-16E1FFD45204";
shapes = (
{
attr = {
lineCapEnd = "4";
lineCapStart = "4";
strokeWidth = 103;
};
closed = 0;
nodes = (
(649,0,l),
(277,429,l),
(228,481,o),
(187,544,o),
(175,585,cs),
(162,629,o),
(170,740,o),
(311,741,cs),
(401,742,o),
(449,660,o),
(445,621,cs),
(437,540,o),
(314,440,o),
(227,397,cs),
(146,357,o),
(91,312,o),
(91,225,cs),
(91,113,o),
(189,38,o),
(302,38,cs),
(415,38,o),
(640,144,o),
(646,390,cs)
);
}
);
width = 758;
}
);
unicode = 38;
},
{
color = 5;
glyphname = paragraph;
layers = (
{
layerId = "63F83B90-CAEF-434E-8639-9EC66952CC6B";
shapes = (
{
closed = 1;
nodes = (
(475,-238,l),
(475,801,l),
(299,801,l),
(156,801,o),
(40,685,o),
(40,542,c),
(40,399,o),
(156,282,o),
(299,282,c),
(314,282,o),
(327,283,o),
(340,285,c),
(340,-238,l)
);
},
{
closed = 1;
nodes = (
(746,-238,l),
(746,801,l),
(611,801,l),
(611,-238,l)
);
}
);
width = 786;
},
{
layerId = "F01B58DE-C728-4329-B3AC-16E1FFD45204";
shapes = (
{
closed = 1;
nodes = (
(437,-244,l),
(437,800,l),
(277,800,l),
(144,800,o),
(40,687,o),
(40,556,cs),
(40,427,o),
(135,316,o),
(277,311,cs),
(289,311,o),
(326,312,o),
(350,319,c),
(350,-244,l)
);
},
{
closed = 1;
nodes = (
(611,-244,l),
(611,800,l),
(524,800,l),
(524,-244,l)
);
}
);
width = 651;
}
);
unicode = 182;
},
{
color = 5;
glyphname = section;
layers = (
{
layerId = "63F83B90-CAEF-434E-8639-9EC66952CC6B";
shapes = (
{
closed = 1;
nodes = (
(414,-10,o),
(524,66,o),
(524,184,cs),
(524,223,o),
(511,266,o),
(487,296,c),
(511,329,o),
(524,363,o),
(524,402,cs),
(524,500,o),
(458,567,o),
(350,566,cs),
(253,565,o),
(218,584,o),
(218,610,cs),
(218,628,o),
(245,643,o),
(280,643,cs),
(320,643,o),
(370,633,o),
(399,618,c),
(481,749,l),
(425,785,o),
(357,805,o),
(290,805,cs),
(170,805,o),
(57,739,o),
(57,619,cs),
(57,570,o),
(69,532,o),
(92,504,c),
(70,476,o),
(57,440,o),
(57,401,cs),
(57,281,o),
(129,231,o),
(250,218,cs),
(307,212,o),
(364,208,o),
(364,180,cs),
(364,156,o),
(329,136,o),
(285,136,cs),
(224,136,o),
(147,165,o),
(121,194,c),
(40,65,l),
(112,7,o),
(208,-10,o),
(281,-10,cs)
);
},
{
closed = 1;
nodes = (
(223,352,o),
(194,374,o),
(194,401,cs),
(194,438,o),
(255,444,o),
(299,444,c),
(368,444,o),
(388,415,o),
(388,398,cs),
(388,365,o),
(339,352,o),
(294,352,c)
);
}
);
width = 564;
},
{
layerId = "F01B58DE-C728-4329-B3AC-16E1FFD45204";
shapes = (
{
closed = 1;
nodes = (
(384,-11,o),
(468,68,o),
(468,164,cs),
(468,200,o),
(457,239,o),
(421,282,c),
(457,332,o),
(468,362.333,o),
(468,397,cs),
(468,526,o),
(355,562,o),
(271,562,cs),
(203,562,o),
(152,586,o),
(152,627,cs),
(152,672,o),
(203,685,o),
(243,685,cs),
(275,685,o),
(319,681,o),
(357,666,c),
(411,756,l),
(363,780,o),
(311.667,794,o),
(257,794,cs),
(147.641,794,o),
(47,734.464,o),
(47,628,cs),
(47,588,o),
(55,553,o),
(92,505,c),
(57,459,o),
(47,429,o),
(47,395,cs),
(47,265,o),
(136,238,o),
(248,229.5,cs),
(302,225,o),
(364,212,o),
(364,158,cs),
(364,128,o),
(325,92,o),
(252,92,cs),
(213.709,92,o),
(140.043,100.607,o),
(91,129,c),
(40,46,l),
(100,6,o),
(173.333,-11,o),
(248,-11,cs)
);
},
{
closed = 1;
nodes = (
(209,323,o),
(152,342,o),
(152,394,c),
(146,444,o),
(218,462,o),
(264,462,cs),
(308.663,462,o),
(364,441.951,o),
(364,392,cs),
(364,339.423,o),
(303.419,323,o),
(260,323,cs)
);
}
);
width = 508;
}
);
unicode = 167;
},
{
color = 5;
glyphname = copyright;
layers = (
{
layerId = "63F83B90-CAEF-434E-8639-9EC66952CC6B";
shapes = (
{
closed = 1;
nodes = (
(488,-3,l),
(646,-3,o),
(774,125,o),
(774,283,c),
(774,475,l),
(774,633,o),
(646,761,o),
(488,761,c),
(326,761,l),
(167,761,o),
(40,633,o),
(40,475,c),
(40,283,l),
(40,125,o),
(167,-3,o),
(326,-3,c)
);
},
{
closed = 1;
nodes = (
(238,123,o),
(166,195,o),
(166,283,c),
(166,475,l),
(166,563,o),
(238,634,o),
(326,634,c),
(488,634,l),
(576,634,o),
(648,563,o),
(648,475,c),
(648,283,l),
(648,195,o),
(576,123,o),
(488,123,c),
(326,123,l)
);
},
{
closed = 1;
nodes = (
(430,202,l),
(484,202,o),
(530,230,o),
(555,274,c),
(472,322,l),
(465,307,o),
(448,298,o),
(430,298,c),
(413,298,l),
(374,298,o),
(354,330,o),
(354,355,c),
(354,402,l),
(354,428,o),
(376,460,o),
(413,460,c),
(430,460,l),
(448,460,o),
(465,450,o),
(472,436,c),
(555,484,l),
(530,528,o),
(484,556,o),
(430,556,c),
(413,556,l),
(328,556,o),
(259,487,o),
(259,402,c),
(259,355,l),
(259,271,o),
(328,202,o),
(413,202,c)
);
}
);
width = 814;
},
{
layerId = "F01B58DE-C728-4329-B3AC-16E1FFD45204";
shapes = (
{
closed = 1;
nodes = (
(488,-4,l),
(646,-4,o),
(774,124,o),
(774,282,c),
(774,474,l),
(774,632,o),
(646,760,o),
(488,760,c),
(326,760,l),
(167,760,o),
(40,632,o),
(40,474,c),
(40,282,l),
(40,124,o),
(167,-4,o),
(326,-4,c)
);
},
{
closed = 1;
nodes = (
(210,81,o),
(127,165,o),
(127,267,c),
(127,490,l),
(127,592,o),
(210,675,o),
(313,675,c),
(501,675,l),
(604,675,o),
(687,592,o),
(687,490,c),
(687,267,l),
(687,165,o),
(604,81,o),
(501,81,c),
(313,81,l)
);
},
{
closed = 1;
nodes = (
(434,156,ls),
(483,156,o),
(529,179,o),
(561,221,c),
(495,260,l),
(477,244,o),
(457,234,o),
(434,234,cs),
(412,234,ls),
(358,234,o),
(314,280,o),
(314,335,cs),
(314,422,ls),
(314,477,o),
(358,522,o),
(412,522,c),
(434,522,l),
(455,522,o),
(475,517,o),
(495,496,c),
(561,537,l),
(530,577,o),
(483,600,o),
(434,600,cs),
(412,600,ls),
(317,600,o),
(239,520,o),
(239,422,cs),
(239,335,ls),
(239,239,o),
(317,156,o),
(412,156,c)
);
}
);
userData = {
assembly = "PUSHW[ ]	/* 1 value pushed */
0 
CALL[ ]	/* CallFunction */
SVTCA[0]	/* SetFreedomAndProjectionVectorToAxis */
PUSHW[ ]	/* 1 value pushed */
0 
RCVT[ ]	/* ReadCVT */
IF[ ]	/* If */
PUSHW[ ]	/* 1 value pushed */
11 
MDAP[1]	/* MoveDirectAbsPt */
ELSE[ ]	/* Else */
PUSHW[ ]	/* 2 values pushed */
11 3 
MIAP[0]	/* MoveIndirectAbsPt */
EIF[ ]	/* EndIf */
IUP[0]	/* InterpolateUntPts */
IUP[1]	/* InterpolateUntPts */";
};
width = 814;
}
);
unicode = 169;
},
{
color = 5;
glyphname = registered;
layers = (
{
layerId = "63F83B90-CAEF-434E-8639-9EC66952CC6B";
shapes = (
{
closed = 1;
nodes = (
(317,290,l),
(415,290,o),
(493,368,o),
(493,466,c),
(493,585,l),
(493,681,o),
(415,761,o),
(317,761,c),
(216,761,l),
(120,761,o),
(40,681,o),
(40,585,c),
(40,466,l),
(40,368,o),
(120,290,o),
(216,290,c)
);
},
{
closed = 1;
nodes = (
(163,368,o),
(118,411,o),
(118,466,c),
(118,585,l),
(118,638,o),
(163,683,o),
(216,683,c),
(317,683,l),
(372,683,o),
(415,638,o),
(415,585,c),
(415,466,l),
(415,411,o),
(372,368,o),
(317,368,c),
(216,368,l)
);
},
{
closed = 1;
nodes = (
(238,495,o),
(285,495,o),
(294,495,c),
(333,495,o),
(364,527,o),
(364,566,c),
(364,604,o),
(333,635,o),
(294,635,c),
(284,635,o),
(238,635,o),
(217,635,c),
(217,591,l),
(294,591,l),
(308,591,o),
(319,579,o),
(319,566,c),
(319,552,o),
(308,540,o),
(294,540,c),
(217,540,l),
(217,495,l)
);
},
{
closed = 1;
nodes = (
(233,409,l),
(233,635,l),
(188,635,l),
(188,409,l)
);
},
{
closed = 1;
nodes = (
(370,409,l),
(316,530,l),
(274,514,l),
(322,409,l)
);
}
);
width = 533;
},
{
layerId = "F01B58DE-C728-4329-B3AC-16E1FFD45204";
shapes = (
{
closed = 1;
nodes = (
(317,290,l),
(415,290,o),
(493,368,o),
(493,466,c),
(493,585,l),
(493,681,o),
(415,761,o),
(317,761,c),
(216,761,l),
(120,761,o),
(40,681,o),
(40,585,c),
(40,466,l),
(40,368,o),
(120,290,o),
(216,290,c)
);
},
{
closed = 1;
nodes = (
(150,349,o),
(100,397,o),
(100,459,c),
(100,592,l),
(100,652,o),
(150,702,o),
(210,702,c),
(323,702,l),
(385,702,o),
(433,652,o),
(433,592,c),
(433,459,l),
(433,397,o),
(385,349,o),
(323,349,c),
(210,349,l)
);
},
{
closed = 1;
nodes = (
(242,495,o),
(285,495,o),
(294,495,c),
(333,495,o),
(364,527,o),
(364,566,c),
(364,604,o),
(333,635,o),
(294,635,c),
(284,635,o),
(242,635,o),
(221,635,c),
(215,594,l),
(297,594,l),
(313,594,o),
(325,581,o),
(325,566,c),
(325,550,o),
(313,537,o),
(297,537,c),
(215,537,l),
(221,495,l)
);
},
{
closed = 1;
nodes = (
(227,409,l),
(227,635,l),
(192,635,l),
(192,409,l)
);
},
{
closed = 1;
nodes = (
(365,409,l),
(311,530,l),
(279,514,l),
(327,409,l)
);
}
);
userData = {
assembly = "PUSHW[ ]	/* 1 value pushed */
0 
CALL[ ]	/* CallFunction */
SVTCA[0]	/* SetFreedomAndProjectionVectorToAxis */
PUSHW[ ]	/* 1 value pushed */
5 
MDAP[1]	/* MoveDirectAbsPt */
PUSHW[ ]	/* 1 value pushed */
18 
MDAP[1]	/* MoveDirectAbsPt */
PUSHW[ ]	/* 1 value pushed */
24 
MDAP[1]	/* MoveDirectAbsPt */
PUSHW[ ]	/* 1 value pushed */
35 
MDAP[1]	/* MoveDirectAbsPt */
IUP[0]	/* InterpolateUntPts */
IUP[1]	/* InterpolateUntPts */";
};
width = 486;
}
);
unicode = 174;
},
{
color = 5;
glyphname = trademark;
layers = (
{
layerId = "63F83B90-CAEF-434E-8639-9EC66952CC6B";
shapes = (
{
closed = 1;
nodes = (
(313,495,l),
(313,673,l),
(372,564,l),
(440,564,l),
(498,674,l),
(498,496,l),
(558,496,l),
(558,801,l),
(498,801,l),
(406,627,l),
(312,801,l),
(253,801,l),
(253,495,l)
);
},
{
closed = 1;
nodes = (
(177,495,l),
(177,801,l),
(117,801,l),
(117,495,l)
);
},
{
closed = 1;
nodes = (
(254,740,l),
(254,801,l),
(40,801,l),
(40,740,l)
);
}
);
width = 598;
},
{
layerId = "F01B58DE-C728-4329-B3AC-16E1FFD45204";
shapes = (
{
closed = 1;
nodes = (
(303,493,l),
(303,681,l),
(367,562,l),
(425,562,l),
(488,682,l),
(488,494,l),
(538,494,l),
(538,799,l),
(488,799,l),
(396,625,l),
(302,799,l),
(253,799,l),
(253,493,l)
);
},
{
closed = 1;
nodes = (
(177,493,l),
(177,799,l),
(127,799,l),
(127,493,l)
);
},
{
closed = 1;
nodes = (
(254,748,l),
(254,799,l),
(40,799,l),
(40,748,l)
);
}
);
width = 578;
}
);
unicode = 8482;
},
{
color = 5;
glyphname = degree;
layers = (
{
layerId = "63F83B90-CAEF-434E-8639-9EC66952CC6B";
shapes = (
{
closed = 1;
nodes = (
(321,404,o),
(402,485,o),
(402,585,c),
(402,685,o),
(321,766,o),
(221,766,c),
(121,766,o),
(40,685,o),
(40,585,c),
(40,485,o),
(121,404,o),
(221,404,c)
);
},
{
closed = 1;
nodes = (
(183,516,o),
(153,547,o),
(153,585,c),
(153,622,o),
(183,653,o),
(221,653,c),
(258,653,o),
(289,622,o),
(289,585,c),
(289,547,o),
(258,516,o),
(221,516,c)
);
}
);
width = 442;
},
{
layerId = "F01B58DE-C728-4329-B3AC-16E1FFD45204";
shapes = (
{
closed = 1;
nodes = (
(296,426,o),
(370,500,o),
(370,591,c),
(370,682,o),
(296,756,o),
(205,756,c),
(114,756,o),
(40,682,o),
(40,591,c),
(40,500,o),
(114,426,o),
(205,426,c)
);
},
{
closed = 1;
nodes = (
(145,483,o),
(98,531,o),
(98,592,c),
(98,651,o),
(145,699,o),
(205,699,c),
(264,699,o),
(312,651,o),
(312,592,c),
(312,531,o),
(264,483,o),
(205,483,c)
);
}
);
width = 410;
}
);
unicode = 176;
},
{
color = 5;
glyphname = dagger;
layers = (
{
layerId = "63F83B90-CAEF-434E-8639-9EC66952CC6B";
shapes = (
{
closed = 1;
nodes = (
(371,77,l),
(371,776,l),
(213,776,l),
(213,77,l)
);
},
{
closed = 1;
nodes = (
(543,495,l),
(543,635,l),
(40,635,l),
(40,495,l)
);
}
);
width = 583;
},
{
layerId = "F01B58DE-C728-4329-B3AC-16E1FFD45204";
shapes = (
{
closed = 1;
nodes = (
(295,82,l),
(295,763,l),
(194,763,l),
(194,82,l)
);
},
{
closed = 1;
nodes = (
(448,531,l),
(448,622,l),
(40,622,l),
(40,531,l)
);
}
);
width = 488;
}
);
unicode = 8224;
},
{
color = 5;
glyphname = daggerdbl;
layers = (
{
layerId = "63F83B90-CAEF-434E-8639-9EC66952CC6B";
shapes = (
{
closed = 1;
nodes = (
(371,77,l),
(371,776,l),
(213,776,l),
(213,77,l)
);
},
{
closed = 1;
nodes = (
(543,216,l),
(543,356,l),
(40,356,l),
(40,216,l)
);
},
{
closed = 1;
nodes = (
(543,495,l),
(543,635,l),
(40,635,l),
(40,495,l)
);
}
);
width = 583;
},
{
layerId = "F01B58DE-C728-4329-B3AC-16E1FFD45204";
shapes = (
{
closed = 1;
nodes = (
(295,82,l),
(295,763,l),
(194,763,l),
(194,82,l)
);
},
{
closed = 1;
nodes = (
(448,271,l),
(448,362,l),
(40,362,l),
(40,271,l)
);
},
{
closed = 1;
nodes = (
(448,491,l),
(448,582,l),
(40,582,l),
(40,491,l)
);
}
);
width = 488;
}
);
unicode = 8225;
},
{
color = 5;
glyphname = currency;
layers = (
{
layerId = "63F83B90-CAEF-434E-8639-9EC66952CC6B";
shapes = (
{
closed = 1;
nodes = (
(43,515,l),
(138,421,l),
(208,491,l),
(113,585,l)
);
},
{
closed = 1;
nodes = (
(373,491,l),
(443,421,l),
(538,515,l),
(468,585,l)
);
},
{
closed = 1;
nodes = (
(208,103,l),
(138,173,l),
(43,79,l),
(113,9,l)
);
},
{
closed = 1;
nodes = (
(538,79,l),
(443,173,l),
(373,103,l),
(468,9,l)
);
},
{
pos = (3,34);
ref = o;
scale = (0.93,0.93);
}
);
width = 582;
},
{
layerId = "F01B58DE-C728-4329-B3AC-16E1FFD45204";
shapes = (
{
closed = 1;
nodes = (
(40,512,l),
(128,424,l),
(193,489,l),
(105,577,l)
);
},
{
closed = 1;
nodes = (
(379,489,l),
(444,424,l),
(532,512,l),
(467,577,l)
);
},
{
closed = 1;
nodes = (
(195,96,l),
(130,162,l),
(42,74,l),
(107,9,l)
);
},
{
closed = 1;
nodes = (
(532,74,l),
(444,162,l),
(379,96,l),
(467,9,l)
);
},
{
pos = (5,33);
ref = o;
scale = (0.93,0.93);
}
);
userData = {
assembly = "PUSHW[ ]	/* 1 value pushed */
0 
CALL[ ]	/* CallFunction */
SVTCA[0]	/* SetFreedomAndProjectionVectorToAxis */
PUSHW[ ]	/* 1 value pushed */
0 
RCVT[ ]	/* ReadCVT */
IF[ ]	/* If */
PUSHW[ ]	/* 1 value pushed */
11 
MDAP[1]	/* MoveDirectAbsPt */
ELSE[ ]	/* Else */
PUSHW[ ]	/* 2 values pushed */
11 3 
MIAP[0]	/* MoveIndirectAbsPt */
EIF[ ]	/* EndIf */
IUP[0]	/* InterpolateUntPts */
IUP[1]	/* InterpolateUntPts */";
};
width = 580;
}
);
unicode = 164;
},
{
color = 5;
glyphname = sterling;
layers = (
{
layerId = "63F83B90-CAEF-434E-8639-9EC66952CC6B";
shapes = (
{
closed = 1;
nodes = (
(523,-19,o),
(588,-6,o),
(629,2,c),
(604,157,l),
(590,155,o),
(577,152,o),
(539,146,c),
(521,144,o),
(469,137,o),
(414,140,c),
(380,142,o),
(331,147,o),
(285,150,c),
(299,203,o),
(303,263,o),
(299,318,c),
(391,318,l),
(391,453,l),
(275,453,l),
(196,670,o),
(428,698,o),
(460,523,c),
(616,550,l),
(591,695,o),
(477,801,o),
(336,797,cs),
(189,794,o),
(52,666,o),
(110,453,c),
(72,453,l),
(72,318,l),
(141,318,l),
(148,247,o),
(137,187,o),
(119,148,c),
(93,147,o),
(66,146,o),
(40,143,c),
(51,-15,l),
(142,-9,o),
(191,6,o),
(361,-13,c),
(374,-14,o),
(425,-19,o),
(447,-19,c)
);
}
);
width = 669;
},
{
layerId = "F01B58DE-C728-4329-B3AC-16E1FFD45204";
shapes = (
{
closed = 1;
nodes = (
(479,-19,o),
(529.333,-13.667,o),
(580,-3,c),
(564,99,l),
(516,92.333,o),
(471.333,85,o),
(422,85,cs),
(394,85,o),
(366.667,86.667,o),
(340,90,cs),
(313.333,93.333,o),
(286,95,o),
(221,99,c),
(242,189,o),
(249,273,o),
(241,340,c),
(339,340,l),
(339,420,l),
(224,420,l),
(112,676,o),
(386,800,o),
(464,563,c),
(565,581,l),
(533.118,697.899,o),
(442.141,788,o),
(319,788,cs),
(121,788,o),
(57,577,o),
(120,420,c),
(71,420,l),
(71,340,l),
(139,340,l),
(147,266,o),
(146,181,o),
(108,95,c),
(73.667,95,o),
(57.333,94,o),
(40,92,c),
(47,-13,l),
(73.667,-11,o),
(100.167,-8.667,o),
(126.5,-6,cs),
(275,9,o),
(278,-19,o),
(427,-19,cs)
);
}
);
width = 620;
}
);
unicode = 163;
},
{
color = 5;
glyphname = yen;
layers = (
{
layerId = "63F83B90-CAEF-434E-8639-9EC66952CC6B";
shapes = (
{
closed = 1;
nodes = (
(419,-5,l),
(419,341.594,l),
(640,800,l),
(465,800,l),
(340,520,l),
(215,800,l),
(40,800,l),
(261,340.629,l),
(261,-5,l)
);
},
{
closed = 1;
nodes = (
(543,97,l),
(543,232,l),
(137,232,l),
(137,97,l)
);
},
{
closed = 1;
nodes = (
(537,284,l),
(537,419,l),
(131,419,l),
(131,284,l)
);
}
);
width = 680;
},
{
layerId = "F01B58DE-C728-4329-B3AC-16E1FFD45204";
shapes = (
{
closed = 1;
nodes = (
(351,-5,l),
(351,340,l),
(561,789,l),
(449,789,l),
(300,443,l),
(152,789,l),
(40,789,l),
(250,340,l),
(250,-5,l)
);
},
{
closed = 1;
nodes = (
(479,103,l),
(479,184,l),
(122,184,l),
(122,103,l)
);
},
{
closed = 1;
nodes = (
(473,259,l),
(473,340,l),
(115,340,l),
(115,259,l)
);
}
);
width = 601;
}
);
unicode = 165;
},
{
color = 5;
glyphname = divisionslash;
layers = (
{
layerId = "63F83B90-CAEF-434E-8639-9EC66952CC6B";
shapes = (
{
closed = 1;
nodes = (
(40,-27,l),
(151,-27,l),
(344,800,l),
(232,800,l)
);
}
);
width = 374;
},
{
associatedMasterId = "63F83B90-CAEF-434E-8639-9EC66952CC6B";
layerId = "40E32FB9-B6BE-48EB-82C7-9119AE8E729C";
name = Bold;
width = 327;
},
{
layerId = "F01B58DE-C728-4329-B3AC-16E1FFD45204";
shapes = (
{
closed = 1;
nodes = (
(40,-27,l),
(121,-27,l),
(324,800,l),
(242,800,l)
);
}
);
width = 354;
}
);
unicode = 8725;
},
{
color = 5;
glyphname = notequal;
layers = (
{
layerId = "63F83B90-CAEF-434E-8639-9EC66952CC6B";
shapes = (
{
closed = 1;
nodes = (
(229,86,l),
(457,516,l),
(337,516,l),
(109,86,l)
);
},
{
pos = (-12,-115);
ref = hyphen;
scale = (1.3,1);
},
{
pos = (-12,115);
ref = hyphen;
scale = (1.3,1);
}
);
width = 553;
},
{
layerId = "F01B58DE-C728-4329-B3AC-16E1FFD45204";
shapes = (
{
closed = 1;
nodes = (
(193,106,l),
(380,470,l),
(296,470,l),
(109,106,l)
);
},
{
pos = (-12,-85);
ref = hyphen;
scale = (1.3,1);
},
{
pos = (-12,85);
ref = hyphen;
scale = (1.3,1);
}
);
width = 488;
}
);
unicode = 8800;
},
{
color = 5;
glyphname = greater;
layers = (
{
layerId = "63F83B90-CAEF-434E-8639-9EC66952CC6B";
shapes = (
{
closed = 1;
nodes = (
(545,299,l),
(545,408,l),
(40,636,l),
(40,487,l),
(338,353,l),
(40,218,l),
(40,69,l)
);
}
);
width = 585;
},
{
layerId = "F01B58DE-C728-4329-B3AC-16E1FFD45204";
shapes = (
{
closed = 1;
nodes = (
(500,307,l),
(500,383,l),
(40,597,l),
(40,507,l),
(392,344,l),
(40,180,l),
(40,92,l)
);
}
);
width = 540;
}
);
unicode = 62;
},
{
color = 5;
glyphname = greaterequal;
layers = (
{
layerId = "63F83B90-CAEF-434E-8639-9EC66952CC6B";
shapes = (
{
closed = 1;
nodes = (
(545,349,l),
(545,458,l),
(40,636,l),
(40,487,l),
(348,403,l),
(40,318,l),
(40,169,l)
);
},
{
closed = 1;
nodes = (
(545,7,l),
(545,122,l),
(40,122,l),
(40,7,l)
);
}
);
width = 585;
},
{
layerId = "F01B58DE-C728-4329-B3AC-16E1FFD45204";
shapes = (
{
closed = 1;
nodes = (
(500,350,l),
(500,422,l),
(40,599,l),
(40,509,l),
(383,386,l),
(40,261,l),
(40,171,l)
);
},
{
closed = 1;
nodes = (
(500,6,l),
(500,88,l),
(40,88,l),
(40,6,l)
);
}
);
userData = {
assembly = "PUSHW[ ]	/* 1 value pushed */
0 
CALL[ ]	/* CallFunction */
SVTCA[0]	/* SetFreedomAndProjectionVectorToAxis */
PUSHW[ ]	/* 1 value pushed */
8 
MDAP[1]	/* MoveDirectAbsPt */
IUP[0]	/* InterpolateUntPts */
IUP[1]	/* InterpolateUntPts */";
};
width = 540;
}
);
unicode = 8805;
},
{
color = 5;
glyphname = approxequal;
layers = (
{
layerId = "63F83B90-CAEF-434E-8639-9EC66952CC6B";
shapes = (
{
attr = {
strokeWidth = 120;
};
closed = 0;
nodes = (
(617,541,l),
(617,487,o),
(619,390,o),
(484,390,cs),
(379,390,o),
(327,450,o),
(251,452,cs),
(182,454,o),
(117,415,o),
(117,294,cs)
);
},
{
attr = {
strokeWidth = 120;
};
closed = 0;
nodes = (
(626,289,l),
(626,235,o),
(628,138,o),
(493,138,cs),
(388,138,o),
(336,198,o),
(260,200,cs),
(191,202,o),
(126,163,o),
(126,42,cs)
);
}
);
width = 725;
},
{
layerId = "F01B58DE-C728-4329-B3AC-16E1FFD45204";
shapes = (
{
attr = {
strokeWidth = 90;
};
closed = 0;
nodes = (
(585,491,l),
(585,437,o),
(587,340,o),
(452,340,cs),
(347,340,o),
(295,400,o),
(219,400,cs),
(150,400,o),
(85,365,o),
(85,244,cs)
);
},
{
attr = {
strokeWidth = 90;
};
closed = 0;
nodes = (
(594,269,l),
(594,215,o),
(596,118,o),
(461,118,cs),
(356,118,o),
(304,178,o),
(228,180,cs),
(159,182,o),
(94,143,o),
(94,22,cs)
);
}
);
width = 679;
}
);
unicode = 8776;
},
{
color = 5;
glyphname = asciitilde;
layers = (
{
layerId = "63F83B90-CAEF-434E-8639-9EC66952CC6B";
shapes = (
{
attr = {
strokeWidth = 120;
};
closed = 0;
nodes = (
(583,395,l),
(561,355,o),
(535,303,o),
(467,294,cs),
(397,285,o),
(331,354,o),
(245,354,cs),
(161,354,o),
(114,276,o),
(94,234,cs)
);
}
);
width = 676;
},
{
layerId = "F01B58DE-C728-4329-B3AC-16E1FFD45204";
shapes = (
{
attr = {
strokeHeight = 90;
strokeWidth = 90;
};
closed = 0;
nodes = (
(570,377,l),
(548,337,o),
(522,281,o),
(454,276,cs),
(366,269,o),
(318,336,o),
(232,336,cs),
(148,336,o),
(101,258,o),
(81,216,cs)
);
}
);
width = 641;
}
);
unicode = 126;
},
{
color = 5;
glyphname = asciicircum;
layers = (
{
layerId = "63F83B90-CAEF-434E-8639-9EC66952CC6B";
shapes = (
{
closed = 1;
nodes = (
(211,453,l),
(311,618,l),
(410,453,l),
(581,453,l),
(349,774,l),
(272,774,l),
(40,453,l)
);
}
);
width = 621;
},
{
layerId = "F01B58DE-C728-4329-B3AC-16E1FFD45204";
shapes = (
{
closed = 1;
nodes = (
(139,455,l),
(279,683,l),
(418,455,l),
(517,455,l),
(307,769,l),
(250,769,l),
(40,455,l)
);
}
);
width = 557;
}
);
unicode = 94;
},
{
color = 5;
glyphname = emptyset;
layers = (
{
layerId = "63F83B90-CAEF-434E-8639-9EC66952CC6B";
shapes = (
{
closed = 1;
nodes = (
(671,-6,o),
(853,176,o),
(853,400,c),
(853,625,o),
(671,807,o),
(447,807,c),
(222,807,o),
(40,625,o),
(40,400,c),
(40,176,o),
(222,-6,o),
(446,-6,c)
);
},
{
closed = 1;
nodes = (
(380,152,o),
(317,178,o),
(270,225,c),
(223,272,o),
(197,334,o),
(197,400,c),
(197,467,o),
(223,529,o),
(270,576,c),
(317,623,o),
(380,649,o),
(446,649,c),
(513,649,o),
(575,623,o),
(622,576,c),
(669,529,o),
(695,467,o),
(695,400,c),
(695,334,o),
(669,272,o),
(622,225,c),
(575,178,o),
(513,152,o),
(446,152,c)
);
},
{
closed = 1;
nodes = (
(768,755,l),
(695,807,l),
(143,33,l),
(216,-19,l)
);
}
);
width = 893;
},
{
layerId = "F01B58DE-C728-4329-B3AC-16E1FFD45204";
shapes = (
{
closed = 1;
nodes = (
(671,-14,o),
(853,168,o),
(853,392,c),
(853,617,o),
(671,799,o),
(447,799,c),
(222,799,o),
(40,617,o),
(40,392,c),
(40,168,o),
(222,-14,o),
(446,-14,c)
);
},
{
closed = 1;
nodes = (
(365,89,o),
(288,120,o),
(231,178,c),
(173,235,o),
(142,311,o),
(142,392,c),
(142,474,o),
(173,550,o),
(231,607,c),
(288,665,o),
(365,696,o),
(446,696,c),
(528,696,o),
(604,665,o),
(661,607,c),
(719,550,o),
(750,474,o),
(750,392,c),
(750,311,o),
(719,235,o),
(661,178,c),
(604,120,o),
(528,89,o),
(446,89,c)
);
},
{
closed = 1;
nodes = (
(748,761,l),
(695,799,l),
(144,27,l),
(197,-11,l)
);
}
);
userData = {
assembly = "PUSHW[ ]	/* 1 value pushed */
0 
CALL[ ]	/* CallFunction */
SVTCA[0]	/* SetFreedomAndProjectionVectorToAxis */
PUSHW[ ]	/* 1 value pushed */
0 
RCVT[ ]	/* ReadCVT */
IF[ ]	/* If */
PUSHW[ ]	/* 1 value pushed */
9 
MDAP[1]	/* MoveDirectAbsPt */
ELSE[ ]	/* Else */
PUSHW[ ]	/* 2 values pushed */
9 3 
MIAP[0]	/* MoveIndirectAbsPt */
EIF[ ]	/* EndIf */
IUP[0]	/* InterpolateUntPts */
IUP[1]	/* InterpolateUntPts */";
};
width = 893;
}
);
unicode = 8709;
},
{
color = 5;
glyphname = infinity;
layers = (
{
layerId = "63F83B90-CAEF-434E-8639-9EC66952CC6B";
shapes = (
{
closed = 1;
nodes = (
(370,112,o),
(445,144,o),
(501,206,c),
(557,144,o),
(632,112,o),
(719,112,cs),
(889,112,o),
(962,246,o),
(962,376,cs),
(962,529,o),
(875,642,o),
(719,642,cs),
(626,642,o),
(556,603,o),
(501,540,c),
(446,603,o),
(376,642,o),
(283,642,cs),
(127,642,o),
(40,529,o),
(40,376,cs),
(40,246,o),
(113,112,o),
(283,112,cs)
);
},
{
closed = 1;
nodes = (
(218,270,o),
(196,313,o),
(196,378,cs),
(196,441,o),
(217,484,o),
(283,484,cs),
(360,484,o),
(400,423,o),
(418,368,c),
(401,321,o),
(359,270,o),
(283,270,cs)
);
},
{
closed = 1;
nodes = (
(643,270,o),
(601,321,o),
(584,368,c),
(602,423,o),
(642,484,o),
(719,484,cs),
(785,484,o),
(806,441,o),
(806,378,cs),
(806,313,o),
(784,270,o),
(719,270,cs)
);
}
);
width = 1002;
},
{
layerId = "F01B58DE-C728-4329-B3AC-16E1FFD45204";
shapes = (
{
closed = 1;
nodes = (
(338.645,119,o),
(408.048,148.734,o),
(482.998,234.846,c),
(557.621,148.734,o),
(627.355,119,o),
(707,119,cs),
(850,119,o),
(926,225,o),
(926,370,cs),
(926,518,o),
(847,620,o),
(707,620,cs),
(623.713,620,o),
(561.071,587.558,o),
(483.008,497.329,c),
(405.261,587.883,o),
(342.29,620,o),
(259,620,cs),
(118.588,620,o),
(40,517.66,o),
(40,370,cs),
(40,224.978,o),
(116.238,119,o),
(259,119,cs)
);
},
{
closed = 1;
nodes = (
(164.488,224,o),
(138,298.333,o),
(138,371,cs),
(138,442.258,o),
(162.787,515.105,o),
(259,516,cs),
(354.082,516,o),
(403.753,442.742,o),
(432,360,c),
(401.333,274,o),
(340.333,224,o),
(259,224,cs)
);
},
{
closed = 1;
nodes = (
(629,224,o),
(568,274,o),
(537,360,c),
(565,443,o),
(615,516,o),
(710,516,cs),
(806,515,o),
(831,442,o),
(831,371,cs),
(831,298,o),
(805,224,o),
(710,224,cs)
);
}
);
width = 966;
}
);
unicode = 8734;
},
{
color = 5;
glyphname = integral;
layers = (
{
layerId = "63F83B90-CAEF-434E-8639-9EC66952CC6B";
shapes = (
{
closed = 1;
nodes = (
(319,839,o),
(180,755,o),
(180,588,c),
(180,73,l),
(180,-2,o),
(116,-21,o),
(40,-21,c),
(40,-179,l),
(213,-179,o),
(338,-96,o),
(338,73,c),
(338,588,l),
(338,658,o),
(393,681,o),
(478,681,c),
(478,839,l)
);
}
);
width = 518;
},
{
layerId = "F01B58DE-C728-4329-B3AC-16E1FFD45204";
shapes = (
{
closed = 1;
nodes = (
(289.45,827.297,o),
(185,739.468,o),
(185,595,cs),
(185,46,ls),
(185,-41.615,o),
(123.642,-85.577,o),
(40,-86,c),
(40,-191,l),
(173.098,-183.606,o),
(281.315,-118.411,o),
(286,46,c),
(286,595,ls),
(286,683,o),
(346,723.333,o),
(430,726,c),
(430,830,l)
);
}
);
width = 470;
}
);
unicode = 8747;
},
{
color = 5;
glyphname = summation;
layers = (
{
layerId = "63F83B90-CAEF-434E-8639-9EC66952CC6B";
shapes = (
{
closed = 1;
nodes = (
(492,-238,l),
(492,-80,l),
(208,-80,l),
(337,281,l),
(208,642,l),
(492,642,l),
(492,800,l),
(40,800,l),
(40,642,l),
(170,281,l),
(40,-80,l),
(40,-238,l)
);
}
);
width = 532;
},
{
layerId = "F01B58DE-C728-4329-B3AC-16E1FFD45204";
shapes = (
{
closed = 1;
nodes = (
(428,-254,l),
(428,-149,l),
(141,-149,l),
(286,268,l),
(141,684,l),
(428,684,l),
(428,789,l),
(40,789,l),
(40,684,l),
(179,268,l),
(40,-149,l),
(40,-254,l)
);
}
);
width = 468;
}
);
unicode = 8721;
},
{
color = 5;
glyphname = radical;
layers = (
{
layerId = "63F83B90-CAEF-434E-8639-9EC66952CC6B";
shapes = (
{
closed = 1;
nodes = (
(373,0,l),
(534,642,l),
(666,642,l),
(666,800,l),
(411,800,l),
(267,226,l),
(217,326,l),
(40,326,l),
(204,0,l)
);
}
);
width = 706;
},
{
layerId = "F01B58DE-C728-4329-B3AC-16E1FFD45204";
shapes = (
{
closed = 1;
nodes = (
(310,0,l),
(476,684,l),
(605,684,l),
(605,789,l),
(396,789,l),
(233,117,l),
(153,284,l),
(40,284,l),
(177,0,l)
);
}
);
userData = {
assembly = "PUSHW[ ]	/* 1 value pushed */
0 
CALL[ ]	/* CallFunction */
SVTCA[0]	/* SetFreedomAndProjectionVectorToAxis */
PUSHW[ ]	/* 1 value pushed */
0 
RCVT[ ]	/* ReadCVT */
IF[ ]	/* If */
PUSHW[ ]	/* 1 value pushed */
0 
MDAP[1]	/* MoveDirectAbsPt */
ELSE[ ]	/* Else */
PUSHW[ ]	/* 2 values pushed */
0 3 
MIAP[0]	/* MoveIndirectAbsPt */
EIF[ ]	/* EndIf */
IUP[0]	/* InterpolateUntPts */
IUP[1]	/* InterpolateUntPts */";
};
width = 645;
}
);
unicode = 8730;
},
{
color = 5;
glyphname = partialdiff;
layers = (
{
layerId = "63F83B90-CAEF-434E-8639-9EC66952CC6B";
shapes = (
{
closed = 1;
nodes = (
(40,202,o),
(60,-5,o),
(295,-5,cs),
(611,-5,o),
(592,340,o),
(508,604,cs),
(420,880,o),
(162,791,o),
(113,777,c),
(157,633,l),
(205,648,o),
(307,688,o),
(356,583,c),
(343,584,o),
(331,584,o),
(318,584,cs),
(83,584,o),
(40,389,o),
(40,305,cs)
);
},
{
closed = 1;
nodes = (
(190,367,o),
(205,434,o),
(318,434,cs),
(414,434,o),
(410,404,o),
(418,296,c),
(418,202,o),
(383,145,o),
(295,145,cs),
(181,145,o),
(190,244,o),
(190,305,cs)
);
}
);
width = 601;
},
{
layerId = "F01B58DE-C728-4329-B3AC-16E1FFD45204";
shapes = (
{
closed = 1;
nodes = (
(40,219,o),
(46,-5,o),
(280,-5,cs),
(568,-5,o),
(554,350,o),
(471,612,cs),
(391,860,o),
(173,804,o),
(122,789,c),
(150,693,l),
(199,708,o),
(325,740,o),
(385,546,c),
(359,553,o),
(331,555,o),
(303,555,cs),
(62,555,o),
(40,356,o),
(40,280,cs)
);
},
{
closed = 1;
nodes = (
(140,347,o),
(153,455,o),
(303,455,cs),
(399,455,o),
(413,448,o),
(427,322,cs),
(435,185,o),
(397,95,o),
(280,95,cs),
(144,95,o),
(140,221,o),
(140,280,cs)
);
}
);
width = 563;
}
);
unicode = 8706;
},
{
color = 5;
glyphname = percent;
layers = (
{
guides = (
{
angle = 90;
pos = (111,-2);
},
{
angle = 90;
pos = (823,797);
}
);
layerId = "63F83B90-CAEF-434E-8639-9EC66952CC6B";
shapes = (
{
closed = 1;
nodes = (
(250,0,l),
(822,800,l),
(684,800,l),
(111,0,l)
);
},
{
closed = 1;
nodes = (
(331,430,o),
(415,514,o),
(415,618,c),
(415,722,o),
(331,806,o),
(227,806,c),
(124,806,o),
(40,722,o),
(40,618,c),
(40,514,o),
(124,430,o),
(227,430,c)
);
},
{
closed = 1;
nodes = (
(192,554,o),
(164,583,o),
(164,618,c),
(164,653,o),
(192,682,o),
(227,682,c),
(263,682,o),
(291,653,o),
(291,618,c),
(291,583,o),
(263,554,o),
(227,554,c)
);
},
{
closed = 1;
nodes = (
(811,-6,o),
(895,78,o),
(895,182,c),
(895,286,o),
(811,370,o),
(707,370,c),
(603,370,o),
(519,286,o),
(519,182,c),
(519,78,o),
(603,-6,o),
(707,-6,c)
);
},
{
closed = 1;
nodes = (
(672,118,o),
(643,147,o),
(643,182,c),
(643,217,o),
(672,246,o),
(707,246,c),
(742,246,o),
(771,217,o),
(771,182,c),
(771,147,o),
(742,118,o),
(707,118,c)
);
}
);
width = 935;
},
{
layerId = "F01B58DE-C728-4329-B3AC-16E1FFD45204";
shapes = (
{
closed = 1;
nodes = (
(207,0,l),
(772,800,l),
(694,800,l),
(121,0,l)
);
},
{
closed = 1;
nodes = (
(331,430,o),
(415,514,o),
(415,618,c),
(415,722,o),
(331,806,o),
(227,806,c),
(124,806,o),
(40,722,o),
(40,618,c),
(40,514,o),
(124,430,o),
(227,430,c)
);
},
{
closed = 1;
nodes = (
(171,517,o),
(127,563,o),
(127,618,c),
(127,673,o),
(171,719,o),
(227,719,c),
(284,719,o),
(328,673,o),
(328,618,c),
(328,563,o),
(284,517,o),
(227,517,c)
);
},
{
closed = 1;
nodes = (
(768,-6,o),
(852,78,o),
(852,182,c),
(852,286,o),
(768,370,o),
(664,370,c),
(560,370,o),
(476,286,o),
(476,182,c),
(476,78,o),
(560,-6,o),
(664,-6,c)
);
},
{
closed = 1;
nodes = (
(609,81,o),
(563,127,o),
(563,182,c),
(563,237,o),
(609,283,o),
(664,283,c),
(719,283,o),
(765,237,o),
(765,182,c),
(765,127,o),
(719,81,o),
(664,81,c)
);
}
);
userData = {
assembly = "PUSHW[ ]	/* 1 value pushed */
0 
CALL[ ]	/* CallFunction */
SVTCA[0]	/* SetFreedomAndProjectionVectorToAxis */
PUSHW[ ]	/* 1 value pushed */
0 
RCVT[ ]	/* ReadCVT */
IF[ ]	/* If */
PUSHW[ ]	/* 1 value pushed */
25 
MDAP[1]	/* MoveDirectAbsPt */
ELSE[ ]	/* Else */
PUSHW[ ]	/* 2 values pushed */
25 3 
MIAP[0]	/* MoveIndirectAbsPt */
EIF[ ]	/* EndIf */
PUSHW[ ]	/* 1 value pushed */
0 
RCVT[ ]	/* ReadCVT */
IF[ ]	/* If */
PUSHW[ ]	/* 1 value pushed */
76 
MDAP[1]	/* MoveDirectAbsPt */
ELSE[ ]	/* Else */
PUSHW[ ]	/* 2 values pushed */
76 3 
MIAP[0]	/* MoveIndirectAbsPt */
EIF[ ]	/* EndIf */
IUP[0]	/* InterpolateUntPts */
IUP[1]	/* InterpolateUntPts */";
};
width = 892;
}
);
unicode = 37;
},
{
color = 5;
glyphname = perthousand;
layers = (
{
layerId = "63F83B90-CAEF-434E-8639-9EC66952CC6B";
shapes = (
{
closed = 1;
nodes = (
(250,0,l),
(822,800,l),
(684,800,l),
(111,0,l)
);
},
{
closed = 1;
nodes = (
(331,430,o),
(415,514,o),
(415,618,c),
(415,722,o),
(331,806,o),
(227,806,c),
(124,806,o),
(40,722,o),
(40,618,c),
(40,514,o),
(124,430,o),
(227,430,c)
);
},
{
closed = 1;
nodes = (
(192,554,o),
(164,583,o),
(164,618,c),
(164,653,o),
(192,682,o),
(227,682,c),
(263,682,o),
(291,653,o),
(291,618,c),
(291,583,o),
(263,554,o),
(227,554,c)
);
},
{
closed = 1;
nodes = (
(811,-6,o),
(895,78,o),
(895,182,c),
(895,286,o),
(811,370,o),
(707,370,c),
(603,370,o),
(519,286,o),
(519,182,c),
(519,78,o),
(603,-6,o),
(707,-6,c)
);
},
{
closed = 1;
nodes = (
(672,118,o),
(643,147,o),
(643,182,c),
(643,217,o),
(672,246,o),
(707,246,c),
(742,246,o),
(771,217,o),
(771,182,c),
(771,147,o),
(742,118,o),
(707,118,c)
);
},
{
closed = 1;
nodes = (
(1271,-6,o),
(1355,78,o),
(1355,182,c),
(1355,286,o),
(1271,370,o),
(1167,370,c),
(1063,370,o),
(979,286,o),
(979,182,c),
(979,78,o),
(1063,-6,o),
(1167,-6,c)
);
},
{
closed = 1;
nodes = (
(1132,118,o),
(1103,147,o),
(1103,182,c),
(1103,217,o),
(1132,246,o),
(1167,246,c),
(1202,246,o),
(1231,217,o),
(1231,182,c),
(1231,147,o),
(1202,118,o),
(1167,118,c)
);
}
);
width = 1395;
},
{
layerId = "F01B58DE-C728-4329-B3AC-16E1FFD45204";
shapes = (
{
closed = 1;
nodes = (
(207,0,l),
(779,800,l),
(694,800,l),
(121,0,l)
);
},
{
closed = 1;
nodes = (
(331,430,o),
(415,514,o),
(415,618,c),
(415,722,o),
(331,806,o),
(227,806,c),
(124,806,o),
(40,722,o),
(40,618,c),
(40,514,o),
(124,430,o),
(227,430,c)
);
},
{
closed = 1;
nodes = (
(171,517,o),
(127,563,o),
(127,618,c),
(127,673,o),
(171,719,o),
(227,719,c),
(284,719,o),
(328,673,o),
(328,618,c),
(328,563,o),
(284,517,o),
(227,517,c)
);
},
{
closed = 1;
nodes = (
(768,-6,o),
(852,78,o),
(852,182,c),
(852,286,o),
(768,370,o),
(664,370,c),
(560,370,o),
(476,286,o),
(476,182,c),
(476,78,o),
(560,-6,o),
(664,-6,c)
);
},
{
closed = 1;
nodes = (
(609,81,o),
(563,127,o),
(563,182,c),
(563,237,o),
(609,283,o),
(664,283,c),
(719,283,o),
(765,237,o),
(765,182,c),
(765,127,o),
(719,81,o),
(664,81,c)
);
},
{
closed = 1;
nodes = (
(1228,-6,o),
(1312,78,o),
(1312,182,c),
(1312,286,o),
(1228,370,o),
(1124,370,c),
(1020,370,o),
(936,286,o),
(936,182,c),
(936,78,o),
(1020,-6,o),
(1124,-6,c)
);
},
{
closed = 1;
nodes = (
(1069,81,o),
(1023,127,o),
(1023,182,c),
(1023,237,o),
(1069,283,o),
(1124,283,c),
(1179,283,o),
(1225,237,o),
(1225,182,c),
(1225,127,o),
(1179,81,o),
(1124,81,c)
);
}
);
userData = {
assembly = "PUSHW[ ]	/* 1 value pushed */
0 
CALL[ ]	/* CallFunction */
SVTCA[0]	/* SetFreedomAndProjectionVectorToAxis */
PUSHW[ ]	/* 1 value pushed */
0 
RCVT[ ]	/* ReadCVT */
IF[ ]	/* If */
PUSHW[ ]	/* 1 value pushed */
25 
MDAP[1]	/* MoveDirectAbsPt */
ELSE[ ]	/* Else */
PUSHW[ ]	/* 2 values pushed */
25 3 
MIAP[0]	/* MoveIndirectAbsPt */
EIF[ ]	/* EndIf */
PUSHW[ ]	/* 1 value pushed */
0 
RCVT[ ]	/* ReadCVT */
IF[ ]	/* If */
PUSHW[ ]	/* 1 value pushed */
65 
MDAP[1]	/* MoveDirectAbsPt */
ELSE[ ]	/* Else */
PUSHW[ ]	/* 2 values pushed */
65 3 
MIAP[0]	/* MoveIndirectAbsPt */
EIF[ ]	/* EndIf */
PUSHW[ ]	/* 1 value pushed */
0 
RCVT[ ]	/* ReadCVT */
IF[ ]	/* If */
PUSHW[ ]	/* 1 value pushed */
116 
MDAP[1]	/* MoveDirectAbsPt */
ELSE[ ]	/* Else */
PUSHW[ ]	/* 2 values pushed */
116 3 
MIAP[0]	/* MoveIndirectAbsPt */
EIF[ ]	/* EndIf */
IUP[0]	/* InterpolateUntPts */
IUP[1]	/* InterpolateUntPts */";
};
width = 1352;
}
);
unicode = 8240;
},
{
color = 5;
glyphname = rightArrow;
layers = (
{
layerId = "63F83B90-CAEF-434E-8639-9EC66952CC6B";
shapes = (
{
closed = 1;
nodes = (
(40,321,l),
(40,479,l),
(787,479,l),
(787,321,l)
);
},
{
closed = 1;
nodes = (
(350,180,l),
(654,400,l),
(350,619,l),
(442,747,l),
(924,400,l),
(442,52,l)
);
}
);
width = 964;
},
{
layerId = "F01B58DE-C728-4329-B3AC-16E1FFD45204";
shapes = (
{
closed = 1;
nodes = (
(40,348,l),
(40,452,l),
(787,452,l),
(787,348,l)
);
},
{
closed = 1;
nodes = (
(382,135,l),
(749,400,l),
(382,665,l),
(442,747,l),
(924,400,l),
(442,52,l)
);
}
);
width = 964;
}
);
unicode = 8594;
},
{
color = 5;
glyphname = lozenge;
layers = (
{
layerId = "63F83B90-CAEF-434E-8639-9EC66952CC6B";
shapes = (
{
closed = 1;
nodes = (
(579,408,l),
(310,774,l),
(40,408,l),
(310,39,l)
);
},
{
closed = 1;
nodes = (
(230,408,l),
(310,514,l),
(389,408,l),
(310,300,l)
);
}
);
width = 619;
},
{
layerId = "F01B58DE-C728-4329-B3AC-16E1FFD45204";
shapes = (
{
closed = 1;
nodes = (
(520,403,l),
(281,739,l),
(40,403,l),
(281,64,l)
);
},
{
closed = 1;
nodes = (
(160,403,l),
(281,569,l),
(401,403,l),
(281,233,l)
);
}
);
width = 560;
}
);
unicode = 9674;
},
{
color = 5;
glyphname = gravecomb;
layers = (
{
anchors = (
{
name = _top;
pos = (145,582);
},
{
name = top;
pos = (145,768);
}
);
layerId = "63F83B90-CAEF-434E-8639-9EC66952CC6B";
shapes = (
{
closed = 1;
nodes = (
(206,625,l),
(163,768,l),
(40,768,l),
(112,625,l)
);
}
);
width = 246;
},
{
anchors = (
{
name = _top;
pos = (124,582);
},
{
name = top;
pos = (124,755);
}
);
layerId = "F01B58DE-C728-4329-B3AC-16E1FFD45204";
shapes = (
{
closed = 1;
nodes = (
(183,626,l),
(146,755,l),
(40,755,l),
(109,626,l)
);
}
);
width = 223;
}
);
unicode = 768;
},
{
color = 5;
glyphname = hungarumlautcomb;
layers = (
{
anchors = (
{
name = _top;
pos = (170,582);
},
{
name = top;
pos = (170,768);
}
);
layerId = "63F83B90-CAEF-434E-8639-9EC66952CC6B";
shapes = (
{
closed = 1;
nodes = (
(369,770,l),
(246,770,l),
(173,627,l),
(267,627,l)
);
},
{
closed = 1;
nodes = (
(206,770,l),
(83,770,l),
(40,627,l),
(134,627,l)
);
}
);
width = 409;
},
{
anchors = (
{
name = _top;
pos = (188,582);
},
{
name = top;
pos = (188,757);
}
);
layerId = "F01B58DE-C728-4329-B3AC-16E1FFD45204";
shapes = (
{
closed = 1;
nodes = (
(326,757,l),
(220,757,l),
(153,628,l),
(227,628,l)
);
},
{
closed = 1;
nodes = (
(183,757,l),
(77,757,l),
(40,628,l),
(114,628,l)
);
}
);
width = 366;
}
);
unicode = 779;
},
{
color = 5;
glyphname = circumflexcomb;
layers = (
{
anchors = (
{
name = _top;
pos = (214,582);
},
{
name = top;
pos = (214,762);
}
);
layerId = "63F83B90-CAEF-434E-8639-9EC66952CC6B";
shapes = (
{
closed = 1;
nodes = (
(176,637,l),
(214,671,l),
(252,637,l),
(388,637,l),
(247,762,l),
(181,762,l),
(40,637,l)
);
}
);
width = 428;
},
{
anchors = (
{
name = _top;
pos = (214,582);
},
{
name = top;
pos = (214,762);
}
);
layerId = "F01B58DE-C728-4329-B3AC-16E1FFD45204";
shapes = (
{
closed = 1;
nodes = (
(151,637,l),
(214,694,l),
(277,637,l),
(388,637,l),
(247,762,l),
(181,762,l),
(40,637,l)
);
}
);
width = 428;
}
);
unicode = 770;
},
{
color = 5;
glyphname = brevecomb;
layers = (
{
anchors = (
{
name = _top;
pos = (228,582);
},
{
name = top;
pos = (228,764);
}
);
layerId = "63F83B90-CAEF-434E-8639-9EC66952CC6B";
shapes = (
{
attr = {
lineCapEnd = 4;
lineCapStart = 4;
strokeWidth = 90;
};
closed = 0;
nodes = (
(86,765,l),
(96,726,o),
(142,672,o),
(228,672,cs),
(322,672,o),
(367,726,o),
(377,765,cs)
);
}
);
width = 463;
},
{
anchors = (
{
name = _top;
pos = (215,582);
},
{
name = top;
pos = (215,764);
}
);
layerId = "F01B58DE-C728-4329-B3AC-16E1FFD45204";
shapes = (
{
attr = {
lineCapEnd = "4";
lineCapStart = "4";
strokeWidth = 70;
};
closed = 0;
nodes = (
(73,765,l),
(83,726,o),
(129,672,o),
(215,672,cs),
(309,672,o),
(354,726,o),
(364,765,cs)
);
}
);
width = 437;
}
);
unicode = 774;
},
{
color = 5;
glyphname = ringcomb;
layers = (
{
anchors = (
{
name = _top;
pos = (163,582);
},
{
name = top;
pos = (163,829);
}
);
layerId = "63F83B90-CAEF-434E-8639-9EC66952CC6B";
shapes = (
{
attr = {
strokePos = "0";
strokeWidth = 90;
};
closed = 1;
nodes = (
(180,702,o),
(195,717,o),
(195,735,cs),
(195,753,o),
(180,767,o),
(163,767,cs),
(144,767,o),
(130,753,o),
(130,735,cs),
(130,717,o),
(144,702,o),
(163,702,cs)
);
}
);
width = 325;
},
{
anchors = (
{
name = _top;
pos = (161,582);
},
{
name = top;
pos = (161,855);
}
);
layerId = "F01B58DE-C728-4329-B3AC-16E1FFD45204";
shapes = (
{
attr = {
strokePos = "0";
strokeWidth = 70;
};
closed = 1;
nodes = (
(190,680,o),
(214,704,o),
(214,734,cs),
(214,764,o),
(190,787,o),
(161,787,cs),
(130,787,o),
(107,764,o),
(107,734,cs),
(107,704,o),
(130,680,o),
(161,680,cs)
);
}
);
width = 321;
}
);
unicode = 778;
},
{
color = 5;
glyphname = tildecomb;
layers = (
{
anchors = (
{
name = _top;
pos = (268,582);
},
{
name = top;
pos = (274,775);
}
);
layerId = "63F83B90-CAEF-434E-8639-9EC66952CC6B";
shapes = (
{
attr = {
strokeWidth = 90;
};
closed = 0;
nodes = (
(432,756,l),
(417,728,o),
(385,679,o),
(338,681,cs),
(287,683,o),
(244,732,o),
(185,732,cs),
(127,732,o),
(95,678,o),
(81,649,cs)
);
}
);
width = 512;
},
{
anchors = (
{
name = _top;
pos = (242,582);
},
{
name = top;
pos = (242,770);
}
);
layerId = "F01B58DE-C728-4329-B3AC-16E1FFD45204";
shapes = (
{
attr = {
strokeWidth = 70;
};
closed = 0;
nodes = (
(418,756,l),
(403,728,o),
(371,679,o),
(324,681,cs),
(273,683,o),
(230,732,o),
(171,732,cs),
(113,732,o),
(81,678,o),
(67,649,cs)
);
}
);
width = 484;
}
);
unicode = 771;
},
{
color = 5;
glyphname = macroncomb;
layers = (
{
anchors = (
{
name = _top;
pos = (218,582);
},
{
name = top;
pos = (218,752);
}
);
layerId = "63F83B90-CAEF-434E-8639-9EC66952CC6B";
shapes = (
{
closed = 1;
nodes = (
(395,662,l),
(395,752,l),
(40,752,l),
(40,662,l)
);
}
);
width = 435;
},
{
anchors = (
{
name = _top;
pos = (217.5,582);
},
{
name = top;
pos = (217.5,732);
}
);
layerId = "F01B58DE-C728-4329-B3AC-16E1FFD45204";
shapes = (
{
closed = 1;
nodes = (
(395,662,l),
(395,732,l),
(40,732,l),
(40,662,l)
);
}
);
width = 435;
}
);
unicode = 772;
},
{
color = 5;
glyphname = hookabovecomb;
layers = (
{
anchors = (
{
name = _top;
pos = (145,582);
},
{
name = top;
pos = (145,799);
}
);
layerId = "63F83B90-CAEF-434E-8639-9EC66952CC6B";
shapes = (
{
attr = {
lineCapStart = 4;
strokeWidth = 90;
};
closed = 0;
nodes = (
(85,700,l),
(85,726,o),
(95,778,o),
(155,776,cs),
(190,775,o),
(213,736,o),
(213,715,cs),
(213,643,o),
(144,662,o),
(144,602,cs),
(144,581,l)
);
}
);
width = 298;
},
{
anchors = (
{
name = _top;
pos = (142,582);
},
{
name = top;
pos = (142,823);
}
);
layerId = "F01B58DE-C728-4329-B3AC-16E1FFD45204";
shapes = (
{
attr = {
lineCapStart = "4";
strokeWidth = 70;
};
closed = 0;
nodes = (
(75,708,l),
(75,735,o),
(85,790,o),
(148,788,cs),
(181,787,o),
(209,746,o),
(209,724,cs),
(209,648,o),
(137,668,o),
(137,605,cs),
(137,583,l)
);
}
);
width = 284;
}
);
unicode = 777;
},
{
color = 5;
glyphname = commaturnedabovecomb;
layers = (
{
anchors = (
{
name = _top;
pos = (108,582);
},
{
name = top;
pos = (108,858);
}
);
layerId = "63F83B90-CAEF-434E-8639-9EC66952CC6B";
shapes = (
{
closed = 1;
nodes = (
(79,832,o),
(40,719,o),
(40,687,cs),
(40,650,o),
(70,620,o),
(108,620,cs),
(146,620,o),
(175,650,o),
(175,687,cs),
(175,718.844,o),
(154.634,745.071,o),
(125.673,752.732,c),
(131.126,786.482,o),
(138.268,817.371,o),
(148,849,c),
(94,865,l)
);
}
);
width = 215;
},
{
anchors = (
{
name = _top;
pos = (100,970);
},
{
name = top;
pos = (100,869);
}
);
layerId = "F01B58DE-C728-4329-B3AC-16E1FFD45204";
shapes = (
{
closed = 1;
nodes = (
(77,823,o),
(39,715,o),
(40,683,cs),
(40,650,o),
(67,621,o),
(103,621,cs),
(137,621,o),
(166,650,o),
(166,683,cs),
(166,715.306,o),
(143.892,740.751,o),
(115.65,746.687,c),
(119.076,765.04,o),
(126.769,792.626,o),
(144,846,c),
(93,861,l)
);
}
);
width = 206;
}
);
unicode = 786;
},
{
color = 5;
glyphname = cedillacomb;
layers = (
{
anchors = (
{
name = _bottom;
pos = (175,0);
},
{
name = bottom;
pos = (175,-256);
}
);
layerId = "63F83B90-CAEF-434E-8639-9EC66952CC6B";
shapes = (
{
closed = 1;
nodes = (
(139,-263,o),
(325,-252,o),
(325,-121,cs),
(325,-35,o),
(248,-17,o),
(187,-14,c),
(224,71,l),
(142,107,l),
(71,-54,l),
(70,-103,l),
(156,-97,o),
(235,-94,o),
(235,-121,cs),
(235,-169,o),
(120,-168,o),
(57,-156,c),
(40,-244,l)
);
}
);
width = 365;
},
{
anchors = (
{
name = _bottom;
pos = (175,0);
},
{
name = bottom;
pos = (175,-240);
}
);
layerId = "F01B58DE-C728-4329-B3AC-16E1FFD45204";
shapes = (
{
closed = 1;
nodes = (
(114,-247,o),
(309,-250,o),
(309,-119,cs),
(309,-44,o),
(235,-18,o),
(154,-24,c),
(206,94,l),
(142,122,l),
(70,-43,l),
(69,-92,l),
(159,-77,o),
(239,-89,o),
(239,-119,cs),
(239,-177,o),
(118,-176,o),
(53,-164,c),
(40,-233,l)
);
}
);
width = 349;
}
);
unicode = 807;
},
{
color = 5;
glyphname = ogonekcomb;
layers = (
{
anchors = (
{
name = _ogonek;
pos = (241,47);
}
);
layerId = "63F83B90-CAEF-434E-8639-9EC66952CC6B";
shapes = (
{
closed = 1;
nodes = (
(143,-157,o),
(130,-132,o),
(130,-99,cs),
(130,-67,o),
(157,-5,o),
(241,16,c),
(173,47,l),
(90,9,o),
(40,-41,o),
(40,-99,cs),
(40,-159,o),
(82,-248,o),
(228,-246,c),
(227,-156,l)
);
}
);
width = 281;
},
{
anchors = (
{
name = _ogonek;
pos = (235,45);
}
);
layerId = "F01B58DE-C728-4329-B3AC-16E1FFD45204";
shapes = (
{
closed = 1;
nodes = (
(127,-173,o),
(110,-140,o),
(110,-105,cs),
(110,-72,o),
(133,-2,o),
(235,20,c),
(177,45,l),
(105,11,o),
(40,-47,o),
(40,-105,cs),
(40,-161,o),
(79,-243,o),
(218,-242,c),
(218,-172,l)
);
}
);
width = 275;
}
);
unicode = 808;
},
{
glyphname = newGlyph;
layers = (
{
layerId = "F01B58DE-C728-4329-B3AC-16E1FFD45204";
shapes = (
{
attr = {
strokeWidth = 100;
};
closed = 0;
nodes = (
(112,800,l),
(112,0,l)
);
},
{
attr = {
lineCapEnd = "4";
strokeWidth = 110;
};
closed = 0;
nodes = (
(180,382,l),
(641,886,l)
);
},
{
attr = {
lineCapEnd = "4";
lineCapStart = "4";
strokeWidth = 110;
};
closed = 0;
nodes = (
(616,-69,l),
(185,419,l)
);
}
